<svg width="200" height="200" viewBox="0 0 200 200" fill="none" xmlns="http://www.w3.org/2000/svg">
<circle cx="100" cy="100" r="100" fill="#0078A2"/>
<path d="M34.7852 112.72L41.1086 110.341V108.709L34.7852 111.087V112.72Z" fill="#01416D"/>
<path d="M70.3359 107.67L76.6594 105.292V103.659L70.3359 106.034V107.67Z" fill="#01416D"/>
<path d="M76.5085 96.0502V90.4069H73.8402C73.8402 92.9032 73.9016 96.796 73.7211 98.2192C73.7211 99.0449 72.554 99.0792 70.3348 99.0792H69.3442C66.2881 99.0792 65.2975 98.1887 65.2975 96.1377V92.3362H62.5984C62.5984 95.3081 62.6292 97.4771 62.5984 97.9528C62.5984 99.3418 54.5357 99.083 54.5357 99.083H54.3246H49.8018C48.124 99.083 47.0144 97.8957 47.0144 96.1415V79.5312H44.1387V99.7946C44.1387 102.706 41.5586 104.639 37.7538 104.639C34.0987 104.639 31.3075 102.321 31.3382 98.4894V96.914L29 96.8835V98.9041C29 104.251 32.4478 107.816 37.6309 107.816C42.4263 107.816 45.5439 105.202 45.7244 100.803H45.9048C46.5345 101.903 47.7324 102.169 49.1721 102.169H49.6828H49.8056H54.3323H54.5434H59.1891V102.162C61.3814 102.078 62.7098 100.852 63.1168 98.9612H63.2665C63.7157 101.012 65.1862 102.169 67.6741 102.169H68.7837H69.3519H70.761C74.6195 102.173 76.5085 100.537 76.5085 96.0502Z" fill="#01416D"/>
<path d="M83.9723 88.7153C85.7998 88.7153 86.8787 87.5585 86.8787 85.7129C86.8787 83.8712 85.6501 82.4746 83.9723 82.4746C82.3252 82.4746 81.0352 83.8407 81.0352 85.7129C81.0352 87.5547 82.1447 88.7153 83.9723 88.7153ZM83.9723 84.1109C84.9014 84.1109 85.5618 84.8225 85.5618 85.7167C85.5618 86.5197 84.9936 87.0829 83.9723 87.0829C82.951 87.0829 82.3521 86.5197 82.3521 85.7167C82.3521 84.8225 83.0432 84.1109 83.9723 84.1109Z" fill="#01416D"/>
<path d="M96.7453 79L90.4219 81.3783V83.0108L96.7453 80.6325V79Z" fill="#01416D"/>
<path d="M93.8043 98.2225C93.8043 99.1396 92.6333 99.0825 90.418 99.0825H89.4006C86.7629 99.0825 85.4421 98.0436 85.4421 95.8442V92.3395H82.9542V99.4097C82.9542 103.451 81.4837 106.244 78.7271 106.244L77.4102 106.214L78.4276 109.273C82.0251 109.482 85.231 106.301 84.8125 100.064H84.9622C85.35 101.194 86.7898 102.172 88.6173 102.172H88.8554H89.3967H90.8365C94.7027 102.172 96.5917 100.54 96.5917 96.0535V90.4102H93.9233C93.9233 92.9064 93.9848 96.7955 93.8043 98.2225Z" fill="#01416D"/>
<path d="M91.8645 84.7959C92.091 84.9671 92.3329 85.1688 92.5901 85.3971C92.8474 85.6293 93.0892 85.869 93.3158 86.1163C93.5538 85.8652 93.8034 85.6255 94.0606 85.3971C94.3178 85.1688 94.5597 84.9671 94.7862 84.7959C95.1164 85.0318 95.4581 85.321 95.8114 85.6635C96.1646 86.006 96.4717 86.3332 96.7366 86.6491C96.4717 86.9649 96.1569 87.296 95.7922 87.6461C95.4274 87.9962 95.0934 88.2816 94.7862 88.5023C94.5597 88.3196 94.3178 88.1141 94.0606 87.8896C93.8034 87.6651 93.5615 87.4292 93.335 87.1818C93.0969 87.433 92.8474 87.6727 92.5901 87.901C92.3329 88.1332 92.091 88.331 91.8645 88.5023C91.5573 88.2664 91.2233 87.981 90.8585 87.6461C90.4938 87.3112 90.179 86.9802 89.9141 86.6491C90.179 86.3218 90.4938 85.987 90.8585 85.6521C91.2271 85.3172 91.5612 85.0318 91.8645 84.7959Z" fill="#01416D"/>
<path d="M56.6145 104.616C56.841 104.787 57.0829 104.989 57.3401 105.217C57.5974 105.45 57.8392 105.689 58.0658 105.937C58.3038 105.686 58.5534 105.446 58.8106 105.217C59.0678 104.989 59.3097 104.787 59.5362 104.616C59.8664 104.852 60.2081 105.141 60.5614 105.484C60.9146 105.826 61.2217 106.154 61.4866 106.469C61.2217 106.785 60.9069 107.116 60.5422 107.466C60.1774 107.816 59.8434 108.102 59.5362 108.323C59.3097 108.14 59.0678 107.934 58.8106 107.71C58.5534 107.485 58.3115 107.249 58.085 107.002C57.8469 107.253 57.5974 107.493 57.3401 107.721C57.0829 107.953 56.841 108.151 56.6145 108.323C56.3073 108.087 55.9733 107.801 55.6086 107.466C55.2438 107.132 54.929 106.8 54.6641 106.469C54.929 106.142 55.2438 105.807 55.6086 105.472C55.9771 105.138 56.3112 104.852 56.6145 104.616Z" fill="#01416D"/>
<path d="M71.5012 84.7959C71.7277 84.9671 71.9696 85.1688 72.2268 85.3971C72.4841 85.6293 72.726 85.869 72.9525 86.1163C73.1905 85.8652 73.4401 85.6255 73.6973 85.3971C73.9546 85.1688 74.1964 84.9671 74.423 84.7959C74.7531 85.0318 75.0949 85.321 75.4481 85.6635C75.8013 86.006 76.1084 86.3332 76.3734 86.6491C76.1084 86.9649 75.7936 87.296 75.4289 87.6461C75.0641 87.9962 74.7301 88.2816 74.423 88.5023C74.1964 88.3196 73.9546 88.1141 73.6973 87.8896C73.4401 87.6651 73.1982 87.4292 72.9717 87.1818C72.7336 87.433 72.4841 87.6727 72.2268 87.901C71.9696 88.1332 71.7277 88.331 71.5012 88.5023C71.194 88.2664 70.86 87.981 70.4953 87.6461C70.1305 87.3112 69.8157 86.9802 69.5508 86.6491C69.8157 86.3218 70.1305 85.987 70.4953 85.6521C70.86 85.3172 71.194 85.0318 71.5012 84.7959Z" fill="#01416D"/>
<path d="M47.7684 118.672V119.129H47.6609C47.1695 119.129 46.751 118.832 46.559 118.364H46.536C46.344 118.851 45.8257 119.193 45.2306 119.201C44.7545 119.201 44.2784 119.018 44.0404 118.729L44.0327 119.486C43.9828 120.221 43.5412 120.628 42.7695 120.628V120.171C43.2994 120.171 43.6564 119.916 43.7025 119.422C43.7025 119.319 43.7102 117.736 43.7409 117.569C43.7908 116.636 44.4089 116.027 45.1922 116.027C45.9255 116.027 46.3363 116.53 46.7395 117.736C46.9698 118.406 47.1771 118.672 47.7684 118.672ZM46.3402 117.721C46.1482 117.059 45.841 116.469 45.173 116.469C44.4704 116.469 44.0442 117.093 44.0442 117.793C44.0442 118.352 44.4934 118.752 45.2191 118.752C45.9793 118.752 46.5283 118.288 46.3402 117.721Z" fill="#01416D"/>
<path d="M49.3311 116.216V117.685C49.3311 118.834 48.8896 119.131 47.9144 119.131H47.707V118.674H47.8836C48.6246 118.674 48.8742 118.347 48.8896 118.347C48.9472 117.932 48.9318 117.156 48.9318 116.216H49.3311ZM48.187 120.428C48.0257 120.428 47.9144 120.318 47.9144 120.173C47.9144 120.029 48.0257 119.903 48.187 119.903C48.3482 119.903 48.4519 120.029 48.4519 120.173C48.4557 120.318 48.3482 120.428 48.187 120.428ZM48.8972 120.428C48.736 120.428 48.6246 120.318 48.6246 120.173C48.6246 120.029 48.736 119.903 48.8972 119.903C49.0585 119.903 49.1622 120.029 49.1622 120.173C49.1622 120.318 49.0585 120.428 48.8972 120.428Z" fill="#01416D"/>
<path d="M51.3058 118.587H51.2751C51.3634 120.167 50.5571 121.015 49.7931 121L49.5742 120.543L49.7662 120.551C50.5072 120.551 50.9756 119.721 50.9756 118.492V116.727H51.3557V117.796C51.3557 118.348 51.7358 118.675 52.5229 118.675V119.132H52.4038C51.8702 119.128 51.4133 118.915 51.3058 118.587Z" fill="#01416D"/>
<path d="M52.418 119.126V118.673H54.0689C54.0689 118.658 54.4144 118.258 54.0843 117.691L52.6253 115.184L52.656 114.872L55.5893 113.197L55.8235 113.54L53.1014 115.089L54.6064 117.691C55.0326 118.403 55.2898 118.673 55.9694 118.673V119.126H55.8657C55.2553 119.126 54.9059 118.909 54.5296 118.361L54.4989 118.369C54.4567 118.791 54.257 119.126 53.8385 119.126H52.418Z" fill="#01416D"/>
<path d="M55.9413 118.674C56.6094 118.674 56.882 118.45 56.882 117.852V112.989H57.3005V117.826C57.3005 118.728 56.9281 119.127 56.068 119.127H55.9375V118.674H55.9413Z" fill="#01416D"/>
<path d="M58.9224 112.989H58.5039V119.127H58.9224V112.989Z" fill="#01416D"/>
<path d="M63.3212 120.618C61.9198 120.618 61.1289 119.956 61.1289 118.719V117.753H61.4898V118.639C61.4821 119.651 62.1655 120.165 63.3327 120.165C64.4768 120.165 65.1449 119.648 65.1449 118.658V116.984H65.548V118.651C65.5519 119.918 64.7034 120.618 63.3212 120.618ZM63.3673 116.756C63.206 116.756 63.0947 116.638 63.0947 116.493C63.0947 116.348 63.206 116.23 63.3673 116.23C63.5208 116.23 63.6245 116.352 63.6245 116.493C63.6245 116.638 63.5208 116.756 63.3673 116.756Z" fill="#01416D"/>
<path d="M67.0122 112.989H66.5938V119.127H67.0122V112.989Z" fill="#01416D"/>
<path d="M69.2394 118.587H69.2087C69.297 120.167 68.4907 121.015 67.7267 121L67.5078 120.543L67.6998 120.551C68.4408 120.551 68.9092 119.721 68.9092 118.492V116.727H69.2893V117.796C69.2893 118.348 69.6694 118.675 70.4565 118.675V119.132H70.3374C69.8038 119.128 69.343 118.915 69.2394 118.587Z" fill="#01416D"/>
<path d="M70.3516 118.674H70.7393C71.0772 118.674 71.4727 118.644 71.7069 118.602C71.1924 118.355 70.8545 117.795 70.8699 117.221C70.8852 116.254 71.4573 115.585 72.2789 115.585C73.0775 115.585 73.615 116.254 73.6304 117.221C73.6304 117.795 73.3079 118.355 72.8395 118.595C73.0814 118.644 73.4538 118.674 73.7648 118.674H74.1833V119.127H73.6765C72.8395 119.127 72.5016 119.009 72.2521 118.777H72.2021C71.9603 118.987 71.5341 119.127 70.7624 119.127H70.3516V118.674ZM72.2905 118.496C72.8856 118.321 73.2964 117.811 73.2964 117.297C73.2964 116.57 72.8779 116.018 72.2559 116.026C71.6186 116.026 71.2001 116.57 71.2001 117.297C71.2039 117.811 71.6301 118.313 72.2905 118.496ZM71.8566 114.953C71.703 114.953 71.5994 114.85 71.5994 114.69C71.5994 114.538 71.703 114.428 71.8566 114.428C72.0255 114.428 72.1292 114.538 72.1292 114.69C72.1292 114.85 72.0255 114.953 71.8566 114.953ZM72.6859 114.953C72.517 114.953 72.4133 114.85 72.4133 114.69C72.4133 114.538 72.517 114.428 72.6859 114.428C72.8395 114.428 72.9431 114.538 72.9431 114.69C72.9431 114.85 72.8395 114.953 72.6859 114.953Z" fill="#01416D"/>
<path d="M74.0898 118.674C74.7578 118.674 75.0304 118.45 75.0304 117.852V112.989H75.4489V117.826C75.4489 118.728 75.0765 119.127 74.2165 119.127H74.0859V118.674H74.0898Z" fill="#01416D"/>
<path d="M77.0747 112.989H76.6562V119.127H77.0747V112.989Z" fill="#01416D"/>
<path d="M84.2216 118.672V119.129H84.1179C83.6265 119.129 83.208 118.832 83.016 118.364H82.993C82.801 118.851 82.2827 119.193 81.6876 119.201C81.2115 119.201 80.7354 119.018 80.4974 118.729L80.4897 119.486C80.4398 120.221 79.9983 120.628 79.2266 120.628V120.171C79.7564 120.171 80.1135 119.916 80.1595 119.422C80.1595 119.319 80.1672 117.736 80.1979 117.569C80.2478 116.636 80.866 116.027 81.6492 116.027C82.3825 116.027 82.7933 116.53 83.1965 117.736C83.423 118.406 83.6303 118.672 84.2216 118.672ZM82.7933 117.721C82.6014 117.059 82.2942 116.469 81.6262 116.469C80.9236 116.469 80.4974 117.093 80.4974 117.793C80.4974 118.352 80.9466 118.752 81.6722 118.752C82.4324 118.752 82.9815 118.288 82.7933 117.721Z" fill="#01416D"/>
<path d="M86.4068 119.128C85.804 119.128 85.4662 118.858 85.3433 118.37H85.3126C85.1936 118.85 84.8135 119.128 84.1953 119.128V118.671H84.2759C84.9517 118.671 85.1859 118.241 85.2012 118.241C85.2089 118.211 85.2012 117.834 85.2012 116.727H85.6044V117.788C85.6044 118.393 85.9115 118.675 86.6103 118.675V119.132H86.4068V119.128ZM84.9478 120.406C84.7866 120.406 84.6752 120.281 84.6752 120.136C84.6752 119.992 84.7866 119.881 84.9478 119.881C85.0937 119.881 85.2127 119.992 85.2127 120.136C85.2127 120.277 85.0937 120.406 84.9478 120.406ZM85.7695 120.406C85.6236 120.406 85.5045 120.281 85.5045 120.136C85.5045 119.992 85.6274 119.881 85.7695 119.881C85.923 119.881 86.0344 119.992 86.0344 120.136C86.0344 120.277 85.923 120.406 85.7695 120.406Z" fill="#01416D"/>
<path d="M88.7154 119.127C88.0704 119.127 87.7248 118.88 87.6212 118.4H87.5905C87.4791 118.872 87.1412 119.127 86.5039 119.127V118.674H86.6076C87.2372 118.674 87.5021 118.419 87.5021 117.738V112.989H87.9206V117.788C87.9206 118.442 88.1702 118.674 88.8229 118.674V119.127H88.7154Z" fill="#01416D"/>
<path d="M88.7539 118.675H89.4565C89.875 118.675 90.3511 118.572 90.6467 118.515L89.445 116.792L89.4949 116.407C90.1783 116.209 90.5584 116.11 91.0806 116.11C92.121 116.11 92.6509 116.476 92.6586 117.13C92.6662 117.64 92.2477 118.199 91.5451 118.569C91.8369 118.633 92.1556 118.671 92.5434 118.671H93.173V119.128H92.5203C91.9099 119.128 91.4069 119.048 91.0076 118.873C90.5661 119.025 90.0094 119.128 89.4373 119.128H88.7539V118.675ZM89.8174 116.742L91.0422 118.458C91.7409 118.241 92.3399 117.731 92.3169 117.222C92.3169 116.776 91.8484 116.544 91.0844 116.544C90.689 116.54 90.4125 116.59 89.8174 116.742Z" fill="#01416D"/>
<path d="M95.2895 119.128C94.6868 119.128 94.3412 118.858 94.2184 118.37H94.1953C94.0725 118.85 93.6885 119.128 93.0742 119.128V118.671H93.1548C93.8229 118.671 94.0648 118.241 94.0801 118.241V116.723H94.4833V117.784C94.4833 118.393 94.7751 118.671 95.4508 118.671V119.128H95.2895ZM93.9074 116.007C93.7538 116.007 93.6424 115.878 93.6424 115.737C93.6424 115.593 93.7538 115.475 93.9074 115.475C94.0533 115.475 94.1723 115.593 94.1723 115.737C94.1723 115.878 94.0494 116.007 93.9074 116.007ZM94.729 116.007C94.5831 116.007 94.4641 115.878 94.4641 115.737C94.4641 115.593 94.5831 115.475 94.729 115.475C94.8902 115.475 95.0016 115.593 95.0016 115.737C95.0016 115.878 94.8864 116.007 94.729 116.007Z" fill="#01416D"/>
<path d="M95.3788 118.674C96.0469 118.674 96.3195 118.45 96.3195 117.852V112.989H96.738V117.826C96.738 118.728 96.3656 119.127 95.5055 119.127H95.375V118.674H95.3788Z" fill="#01416D"/>
<path d="M146.133 103.196L140.71 105.286L135.287 103.196L133.665 102.571L114.458 95.1577C113.006 94.5954 111.928 93.3682 111.564 91.8664L110.406 87.0535C110.246 86.382 110.95 85.8263 111.574 86.1339L139.265 99.802L140.71 100.516L146.133 103.196Z" fill="white"/>
<path d="M165.585 113.103L164.644 114.347C164.581 114.43 164.47 114.463 164.374 114.423L142.477 105.972L147.683 103.964L165.498 112.756C165.629 112.826 165.672 112.991 165.585 113.103Z" fill="white"/>
<path d="M170.972 87.1875L169.86 91.8152C169.49 93.3534 168.385 94.6103 166.897 95.1859L146.128 103.201L140.704 105.291L117.035 114.428C117.005 114.438 116.978 114.444 116.952 114.444C116.878 114.444 116.811 114.411 116.765 114.352L115.823 113.108C115.737 112.992 115.777 112.827 115.907 112.764L135.278 103.201L140.701 100.521L169.713 86.1985C169.844 86.1323 169.977 86.1025 170.107 86.1025C170.651 86.1025 171.115 86.602 170.972 87.1875Z" fill="white"/>
<path d="M139.26 99.8057L133.66 102.574L135.279 103.196L140.706 100.52L139.26 99.8057Z" fill="white"/>
<path d="M137.107 80.0215C137.657 80.4416 138.252 80.9311 138.886 81.4935C139.52 82.0558 140.111 82.6446 140.665 83.2566C141.249 82.6446 141.859 82.0558 142.493 81.4935C143.128 80.9311 143.718 80.4383 144.272 80.0215C145.083 80.6004 145.921 81.3115 146.782 82.1484C147.643 82.9853 148.397 83.7924 149.048 84.5632C148.397 85.3372 147.626 86.1509 146.732 87.0044C145.838 87.8578 145.017 88.5591 144.269 89.1049C143.715 88.655 143.124 88.1555 142.49 87.6064C141.856 87.0573 141.262 86.4784 140.711 85.8665C140.127 86.4784 139.516 87.0672 138.882 87.6296C138.248 88.1919 137.654 88.6848 137.103 89.1015C136.356 88.5227 135.535 87.8214 134.64 87.0011C133.746 86.1807 132.975 85.367 132.324 84.5599C132.975 83.7561 133.746 82.9423 134.64 82.1187C135.542 81.3016 136.359 80.6037 137.107 80.0215Z" fill="white"/>
</svg>
