<svg width="41" height="42" viewBox="0 0 41 42" fill="none" xmlns="http://www.w3.org/2000/svg">
<path d="M40.5 8.58035L31.3 0.860352L28.72 3.92035L37.92 11.6404L40.5 8.58035ZM12.26 3.92035L9.7 0.860352L0.5 8.56035L3.08 11.6204L12.26 3.92035ZM20.5 5.14035C10.56 5.14035 2.5 13.2004 2.5 23.1404C2.5 33.0804 10.54 41.1404 20.5 41.1404C30.44 41.1404 38.5 33.0804 38.5 23.1404C38.5 13.2004 30.44 5.14035 20.5 5.14035ZM20.5 37.1404C12.76 37.1404 6.5 30.8804 6.5 23.1404C6.5 15.4004 12.76 9.14035 20.5 9.14035C28.24 9.14035 34.5 15.4004 34.5 23.1404C34.5 30.8804 28.24 37.1404 20.5 37.1404ZM17.58 26.2004L13.32 21.9404L11.2 24.0604L17.56 30.4204L29.56 18.4204L27.44 16.3004L17.58 26.2004Z" fill="#005D85"/>
</svg>
