<svg width="222" height="220" viewBox="0 0 222 220" fill="none" xmlns="http://www.w3.org/2000/svg">
<rect width="5.99541" height="5.99743" rx="1.22333" fill="#E0E0E0"/>
<rect x="23.9844" width="5.99541" height="5.99743" rx="1.22333" fill="#E0E0E0"/>
<rect x="47.9609" width="5.99541" height="5.99743" rx="1.22333" fill="#E0E0E0"/>
<rect x="71.9453" width="5.99541" height="5.99743" rx="1.22333" fill="#E0E0E0"/>
<rect x="95.9258" width="5.99541" height="5.99743" rx="1.22333" fill="#E0E0E0"/>
<rect x="119.906" width="5.99541" height="5.99743" rx="1.22333" fill="#E0E0E0"/>
<rect x="143.891" width="5.99541" height="5.99743" rx="1.22333" fill="#E0E0E0"/>
<rect x="167.871" width="5.99541" height="5.99743" rx="1.22333" fill="#E0E0E0"/>
<rect x="191.855" width="5.99541" height="5.99743" rx="1.22333" fill="#E0E0E0"/>
<rect x="215.836" width="5.99541" height="5.99743" rx="1.22333" fill="#E0E0E0"/>
<rect y="23.9893" width="5.99541" height="5.99743" rx="1.22333" fill="#E0E0E0"/>
<rect x="23.9844" y="23.9893" width="5.99541" height="5.99743" rx="1.22333" fill="#E0E0E0"/>
<rect x="47.9609" y="23.9893" width="5.99541" height="5.99743" rx="1.22333" fill="#E0E0E0"/>
<rect x="71.9453" y="23.9893" width="5.99541" height="5.99743" rx="1.22333" fill="#E0E0E0"/>
<rect x="95.9258" y="23.9893" width="5.99541" height="5.99743" rx="1.22333" fill="#E0E0E0"/>
<rect x="119.906" y="23.9893" width="5.99541" height="5.99743" rx="1.22333" fill="#E0E0E0"/>
<rect x="143.891" y="23.9893" width="5.99541" height="5.99743" rx="1.22333" fill="#E0E0E0"/>
<rect x="167.871" y="23.9893" width="5.99541" height="5.99743" rx="1.22333" fill="#E0E0E0"/>
<rect x="191.852" y="23.9893" width="5.99541" height="5.99743" rx="1.22333" fill="#E0E0E0"/>
<rect x="215.836" y="23.9893" width="5.99541" height="5.99743" rx="1.22333" fill="#E0E0E0"/>
<rect y="47.9795" width="5.99541" height="5.99743" rx="1.22333" fill="#E0E0E0"/>
<rect x="23.9844" y="47.9795" width="5.99541" height="5.99743" rx="1.22333" fill="#E0E0E0"/>
<rect x="47.9609" y="47.9795" width="5.99541" height="5.99743" rx="1.22333" fill="#E0E0E0"/>
<rect x="71.9453" y="47.9795" width="5.99541" height="5.99743" rx="1.22333" fill="#E0E0E0"/>
<rect x="95.9258" y="47.9795" width="5.99541" height="5.99743" rx="1.22333" fill="#E0E0E0"/>
<rect x="119.906" y="47.9795" width="5.99541" height="5.99743" rx="1.22333" fill="#E0E0E0"/>
<rect x="143.891" y="47.9795" width="5.99541" height="5.99743" rx="1.22333" fill="#E0E0E0"/>
<rect x="167.871" y="47.9795" width="5.99541" height="5.99743" rx="1.22333" fill="#E0E0E0"/>
<rect x="191.852" y="47.9795" width="5.99541" height="5.99743" rx="1.22333" fill="#E0E0E0"/>
<rect x="215.836" y="47.9795" width="5.99541" height="5.99743" rx="1.22333" fill="#E0E0E0"/>
<rect y="71.9688" width="5.99541" height="5.99743" rx="1.22333" fill="#E0E0E0"/>
<rect x="23.9844" y="71.9688" width="5.99541" height="5.99743" rx="1.22333" fill="#E0E0E0"/>
<rect x="47.9609" y="71.9688" width="5.99541" height="5.99743" rx="1.22333" fill="#E0E0E0"/>
<rect x="71.9453" y="71.9688" width="5.99541" height="5.99743" rx="1.22333" fill="#E0E0E0"/>
<rect x="95.9258" y="71.9688" width="5.99541" height="5.99743" rx="1.22333" fill="#E0E0E0"/>
<rect x="119.906" y="71.9688" width="5.99541" height="5.99743" rx="1.22333" fill="#E0E0E0"/>
<rect x="143.891" y="71.9688" width="5.99541" height="5.99743" rx="1.22333" fill="#E0E0E0"/>
<rect x="167.871" y="71.9688" width="5.99541" height="5.99743" rx="1.22333" fill="#E0E0E0"/>
<rect x="191.855" y="71.9688" width="5.99541" height="5.99743" rx="1.22333" fill="#E0E0E0"/>
<rect x="215.836" y="71.9688" width="5.99541" height="5.99743" rx="1.22333" fill="#E0E0E0"/>
<rect y="95.959" width="5.99541" height="5.99743" rx="1.22333" fill="#E0E0E0"/>
<rect x="23.9844" y="95.959" width="5.99541" height="5.99743" rx="1.22333" fill="#E0E0E0"/>
<rect x="47.9609" y="95.959" width="5.99541" height="5.99743" rx="1.22333" fill="#E0E0E0"/>
<rect x="71.9453" y="95.959" width="5.99541" height="5.99743" rx="1.22333" fill="#E0E0E0"/>
<rect x="95.9258" y="95.959" width="5.99541" height="5.99743" rx="1.22333" fill="#E0E0E0"/>
<rect x="119.906" y="95.959" width="5.99541" height="5.99743" rx="1.22333" fill="#E0E0E0"/>
<rect x="143.891" y="95.959" width="5.99541" height="5.99743" rx="1.22333" fill="#E0E0E0"/>
<rect x="167.871" y="95.959" width="5.99541" height="5.99743" rx="1.22333" fill="#E0E0E0"/>
<rect x="191.855" y="95.959" width="5.99541" height="5.99743" rx="1.22333" fill="#E0E0E0"/>
<rect x="215.836" y="95.959" width="5.99541" height="5.99743" rx="1.22333" fill="#E0E0E0"/>
<rect y="119.948" width="5.99541" height="5.99743" rx="1.22333" fill="#E0E0E0"/>
<rect x="23.9844" y="119.948" width="5.99541" height="5.99743" rx="1.22333" fill="#E0E0E0"/>
<rect x="47.9609" y="119.948" width="5.99541" height="5.99743" rx="1.22333" fill="#E0E0E0"/>
<rect x="71.9453" y="119.948" width="5.99541" height="5.99743" rx="1.22333" fill="#E0E0E0"/>
<rect x="95.9258" y="119.948" width="5.99541" height="5.99743" rx="1.22333" fill="#E0E0E0"/>
<rect x="119.906" y="119.948" width="5.99541" height="5.99743" rx="1.22333" fill="#E0E0E0"/>
<rect x="143.891" y="119.948" width="5.99541" height="5.99743" rx="1.22333" fill="#E0E0E0"/>
<rect x="167.871" y="119.948" width="5.99541" height="5.99743" rx="1.22333" fill="#E0E0E0"/>
<rect x="191.852" y="119.948" width="5.99541" height="5.99743" rx="1.22333" fill="#E0E0E0"/>
<rect x="215.836" y="119.948" width="5.99541" height="5.99743" rx="1.22333" fill="#E0E0E0"/>
<rect y="143.938" width="5.99541" height="5.99743" rx="1.22333" fill="#E0E0E0"/>
<rect y="167.075" width="5.99541" height="5.99743" rx="1.22333" fill="#E0E0E0"/>
<rect y="190.213" width="5.99541" height="5.99743" rx="1.22333" fill="#E0E0E0"/>
<rect y="213.35" width="5.99541" height="5.99743" rx="1.22333" fill="#E0E0E0"/>
<rect x="23.9844" y="143.938" width="5.99541" height="5.99743" rx="1.22333" fill="#E0E0E0"/>
<rect x="23.9844" y="167.075" width="5.99541" height="5.99743" rx="1.22333" fill="#E0E0E0"/>
<rect x="23.9844" y="190.213" width="5.99541" height="5.99743" rx="1.22333" fill="#E0E0E0"/>
<rect x="23.9844" y="213.35" width="5.99541" height="5.99743" rx="1.22333" fill="#E0E0E0"/>
<rect x="47.9609" y="143.938" width="5.99541" height="5.99743" rx="1.22333" fill="#E0E0E0"/>
<rect x="47.9609" y="167.075" width="5.99541" height="5.99743" rx="1.22333" fill="#E0E0E0"/>
<rect x="47.9609" y="190.213" width="5.99541" height="5.99743" rx="1.22333" fill="#E0E0E0"/>
<rect x="47.9609" y="213.35" width="5.99541" height="5.99743" rx="1.22333" fill="#E0E0E0"/>
<rect x="71.9453" y="143.938" width="5.99541" height="5.99743" rx="1.22333" fill="#E0E0E0"/>
<rect x="71.9453" y="167.075" width="5.99541" height="5.99743" rx="1.22333" fill="#E0E0E0"/>
<rect x="71.9453" y="190.213" width="5.99541" height="5.99743" rx="1.22333" fill="#E0E0E0"/>
<rect x="71.9453" y="213.35" width="5.99541" height="5.99743" rx="1.22333" fill="#E0E0E0"/>
<rect x="95.9258" y="143.938" width="5.99541" height="5.99743" rx="1.22333" fill="#E0E0E0"/>
<rect x="95.9258" y="167.075" width="5.99541" height="5.99743" rx="1.22333" fill="#E0E0E0"/>
<rect x="95.9258" y="190.213" width="5.99541" height="5.99743" rx="1.22333" fill="#E0E0E0"/>
<rect x="95.9258" y="213.35" width="5.99541" height="5.99743" rx="1.22333" fill="#E0E0E0"/>
<rect x="119.906" y="143.938" width="5.99541" height="5.99743" rx="1.22333" fill="#E0E0E0"/>
<rect x="119.906" y="167.075" width="5.99541" height="5.99743" rx="1.22333" fill="#E0E0E0"/>
<rect x="119.906" y="190.213" width="5.99541" height="5.99743" rx="1.22333" fill="#E0E0E0"/>
<rect x="119.906" y="213.35" width="5.99541" height="5.99743" rx="1.22333" fill="#E0E0E0"/>
<rect x="143.891" y="143.938" width="5.99541" height="5.99743" rx="1.22333" fill="#E0E0E0"/>
<rect x="143.891" y="167.075" width="5.99541" height="5.99743" rx="1.22333" fill="#E0E0E0"/>
<rect x="143.891" y="190.213" width="5.99541" height="5.99743" rx="1.22333" fill="#E0E0E0"/>
<rect x="143.891" y="213.35" width="5.99541" height="5.99743" rx="1.22333" fill="#E0E0E0"/>
<rect x="167.871" y="143.938" width="5.99541" height="5.99743" rx="1.22333" fill="#E0E0E0"/>
<rect x="167.871" y="167.075" width="5.99541" height="5.99743" rx="1.22333" fill="#E0E0E0"/>
<rect x="167.871" y="190.213" width="5.99541" height="5.99743" rx="1.22333" fill="#E0E0E0"/>
<rect x="167.871" y="213.35" width="5.99541" height="5.99743" rx="1.22333" fill="#E0E0E0"/>
<rect x="191.855" y="143.938" width="5.99541" height="5.99743" rx="1.22333" fill="#E0E0E0"/>
<rect x="191.852" y="167.075" width="5.99541" height="5.99743" rx="1.22333" fill="#E0E0E0"/>
<rect x="191.855" y="190.213" width="5.99541" height="5.99743" rx="1.22333" fill="#E0E0E0"/>
<rect x="191.855" y="213.35" width="5.99541" height="5.99743" rx="1.22333" fill="#E0E0E0"/>
<rect x="215.836" y="143.938" width="5.99541" height="5.99743" rx="1.22333" fill="#E0E0E0"/>
<rect x="215.836" y="167.075" width="5.99541" height="5.99743" rx="1.22333" fill="#E0E0E0"/>
<rect x="215.836" y="190.213" width="5.99541" height="5.99743" rx="1.22333" fill="#E0E0E0"/>
<rect x="215.836" y="213.35" width="5.99541" height="5.99743" rx="1.22333" fill="#E0E0E0"/>
</svg>
