<svg width="32" height="32" viewBox="0 0 32 32" fill="none" xmlns="http://www.w3.org/2000/svg">
<path d="M24.8175 0H7.18254C3.21573 0 0 3.21573 0 7.18254V24.8175C0 28.7843 3.21573 32 7.18254 32H24.8175C28.7843 32 32 28.7843 32 24.8175V7.18254C32 3.21573 28.7843 0 24.8175 0Z" fill="#4C76BE"/>
<path fill-rule="evenodd" clip-rule="evenodd" d="M18.6885 10.2973H20.5173V7.49304C20.2292 7.49304 19.9299 7.42653 19.6306 7.40436H17.9791C17.1476 7.39961 16.3348 7.65118 15.6514 8.12483C15.2729 8.39889 14.9533 8.74611 14.7115 9.14594C14.4697 9.54577 14.3106 9.99007 14.2437 10.4525C14.1812 10.8486 14.1479 11.2487 14.1439 11.6496V13.7667H11.4727V16.8813H14.1329V24.7178H17.3805V16.8702H20.0296L20.4398 13.7334H17.3584V11.5166C17.4138 10.5966 17.9569 10.3195 18.6885 10.2973Z" fill="white"/>
</svg>
