<svg width="49" height="48" viewBox="0 0 49 48" fill="none" xmlns="http://www.w3.org/2000/svg">
<path d="M28.5 4H12.5C11.4391 4 10.4217 4.42143 9.67157 5.17157C8.92143 5.92172 8.5 6.93913 8.5 8V40C8.5 41.0609 8.92143 42.0783 9.67157 42.8284C10.4217 43.5786 11.4391 44 12.5 44H36.5C37.5609 44 38.5783 43.5786 39.3284 42.8284C40.0786 42.0783 40.5 41.0609 40.5 40V16M28.5 4L40.5 16M28.5 4V16H40.5M32.5 26H16.5M32.5 34H16.5M20.5 18H16.5" stroke="#005D85" stroke-width="4" stroke-linecap="round" stroke-linejoin="round"/>
</svg>
