<svg width="1128" height="480" viewBox="0 0 1128 480" fill="none" xmlns="http://www.w3.org/2000/svg">
<path opacity="0.981" fill-rule="evenodd" clip-rule="evenodd" d="M38.8533 0C45.4333 0 52.0133 0 58.5933 0C67.7931 2.01362 77.0364 4.0142 86.3233 6.00173C88.6774 3.99761 91.0274 1.99703 93.3733 0C97.1333 0 100.893 0 104.653 0C101.295 2.99213 97.8487 5.97076 94.3133 8.93591C115.174 26.7395 136.115 44.5225 157.137 62.2847C178.038 44.4691 198.979 26.664 219.96 8.86923C216.385 5.93666 212.938 2.98025 209.62 0C213.38 0 217.14 0 220.9 0C223.246 1.99703 225.596 3.99761 227.95 6.00173C237.237 4.0142 246.48 2.01362 255.68 0C262.156 0 268.631 0 275.107 0C274.911 0.375432 274.493 0.708862 273.853 1.00029C261.529 3.62327 249.204 6.24624 236.88 8.86923C249.253 11.4803 261.578 14.1255 273.853 16.8049C274.16 17.0024 274.526 17.1803 274.95 17.3383C280.875 22.4271 286.881 27.4953 292.967 32.5427C299.052 27.4953 305.058 22.4271 310.983 17.3383C311.311 17.1263 311.677 16.9262 312.08 16.7382C324.35 14.1493 336.57 11.5263 348.74 8.86923C336.833 6.33516 324.927 3.8011 313.02 1.26703C311.784 0.985466 310.948 0.563121 310.513 0C317.093 0 323.673 0 330.253 0C339.453 2.01362 348.696 4.0142 357.983 6.00173C360.336 3.99761 362.686 1.99703 365.033 0C368.793 0 372.553 0 376.313 0C372.954 2.99213 369.508 5.97076 365.973 8.93591C386.782 26.695 407.672 44.4335 428.64 62.1513C449.558 44.4779 470.395 26.784 491.15 9.06929C491.36 8.93591 491.36 8.80254 491.15 8.66917C487.75 5.77591 484.357 2.88618 480.967 0C484.83 0 488.697 0 492.56 0C494.666 2.01522 497.016 3.97135 499.61 5.86836C508.835 3.9604 517.974 2.00429 527.027 0C533.607 0 540.187 0 546.767 0C546.46 0.465364 545.833 0.84325 544.887 1.13366C532.77 3.71218 520.657 6.29071 508.54 8.86923C520.81 11.4581 533.03 14.0811 545.2 16.7382C545.783 16.946 546.253 17.1904 546.61 17.4717C552.563 22.5398 558.517 27.608 564.47 32.6761C570.527 27.519 576.587 22.3621 582.643 17.205C583.113 17.0049 583.583 16.8049 584.053 16.6048C596.17 14.0263 608.283 11.4477 620.4 8.86923C608.283 6.29071 596.17 3.71218 584.053 1.13366C583.107 0.84325 582.48 0.465364 582.173 0C588.65 0 595.123 0 601.6 0C610.799 2.01362 620.043 4.0142 629.33 6.00173C631.849 4.03541 634.199 2.03483 636.38 0C640.14 0 643.9 0 647.66 0C644.545 2.91796 641.255 5.80768 637.79 8.66917C637.58 8.847 637.58 9.02483 637.79 9.20266C658.573 26.8967 679.36 44.5906 700.143 62.2847C721.112 44.5669 742.002 26.8284 762.81 9.06929C763.02 8.93591 763.02 8.80254 762.81 8.66917C759.41 5.77591 756.017 2.88618 752.627 0C756.49 0 760.357 0 764.22 0C766.326 2.01522 768.676 3.97135 771.27 5.86836C780.495 3.9604 789.634 2.00429 798.687 0C805.267 0 811.847 0 818.427 0C818.12 0.465364 817.493 0.84325 816.547 1.13366C804.43 3.71218 792.317 6.29071 780.2 8.86923C792.47 11.4581 804.69 14.0811 816.86 16.7382C817.443 16.946 817.913 17.1904 818.27 17.4717C824.223 22.5398 830.177 27.608 836.13 32.6761C842.187 27.519 848.247 22.3621 854.303 17.205C854.773 17.0049 855.243 16.8049 855.713 16.6048C867.83 14.0263 879.943 11.4477 892.06 8.86923C879.943 6.29071 867.83 3.71218 855.713 1.13366C854.767 0.84325 854.14 0.465364 853.833 0C860.31 0 866.783 0 873.26 0C882.459 2.01362 891.703 4.0142 900.99 6.00173C903.509 4.03541 905.859 2.03483 908.04 0C911.8 0 915.56 0 919.32 0C916.205 2.91796 912.915 5.80768 909.45 8.66917C909.24 8.847 909.24 9.02483 909.45 9.20266C930.233 26.8967 951.02 44.5906 971.803 62.2847C992.772 44.5669 1013.66 26.8284 1034.47 9.06929C1034.68 8.93591 1034.68 8.80254 1034.47 8.66917C1031.07 5.77591 1027.68 2.88618 1024.29 0C1028.15 0 1032.02 0 1035.88 0C1037.99 2.01522 1040.34 3.97135 1042.93 5.86836C1052.15 3.9604 1061.29 2.00429 1070.35 0C1076.93 0 1083.51 0 1090.09 0C1089.78 0.465364 1089.15 0.84325 1088.21 1.13366C1076.09 3.71218 1063.98 6.29071 1051.86 8.86923C1064.13 11.4581 1076.35 14.0811 1088.52 16.7382C1089.1 16.946 1089.57 17.1904 1089.93 17.4717C1095.88 22.5398 1101.84 27.608 1107.79 32.6761C1113.85 27.519 1119.91 22.3621 1125.96 17.205C1126.52 16.8995 1127.2 16.6772 1128 16.5381C1128 19.4723 1128 22.4065 1128 25.3407C1123.5 29.0157 1119.11 32.7279 1114.84 36.4772C1119.09 37.5368 1123.48 38.4927 1128 39.3447C1128 40.9896 1128 42.6346 1128 44.2795C1121.43 42.8808 1114.85 41.4804 1108.26 40.0782C1107.95 39.9893 1107.63 39.9893 1107.32 40.0782C1065.7 48.9133 1024.13 57.7826 982.613 66.6859C1024.24 75.6114 1065.91 84.5029 1107.63 93.3603C1114.39 91.8999 1121.18 90.4773 1128 89.0924C1128 90.6929 1128 92.2933 1128 93.8938C1123.52 94.8478 1119.03 95.8037 1114.53 96.7613C1118.99 100.537 1123.48 104.293 1128 108.031C1128 110.965 1128 113.9 1128 116.834C1127.2 116.695 1126.52 116.472 1125.96 116.167C1119.91 111.01 1113.85 105.853 1107.79 100.696C1101.71 105.918 1095.54 111.119 1089.3 116.3C1088.81 116.548 1088.24 116.748 1087.58 116.9C1075.67 119.435 1063.77 121.969 1051.86 124.503C1063.98 127.081 1076.09 129.66 1088.21 132.238C1088.68 132.438 1089.15 132.638 1089.62 132.838C1095.67 137.996 1101.73 143.152 1107.79 148.31C1113.85 143.152 1119.91 137.996 1125.96 132.838C1126.52 132.533 1127.2 132.311 1128 132.172C1128 135.062 1128 137.951 1128 140.841C1123.48 144.579 1118.99 148.335 1114.53 152.111C1118.94 153.138 1123.43 154.094 1128 154.978C1128 156.623 1128 158.268 1128 159.913C1121.43 158.514 1114.85 157.113 1108.26 155.712C1107.84 155.622 1107.42 155.622 1107.01 155.712C1065.44 164.558 1023.87 173.406 982.3 182.253C1023.92 191.178 1065.6 200.07 1107.32 208.927C1107.63 209.016 1107.95 209.016 1108.26 208.927C1114.85 207.525 1121.43 206.125 1128 204.726C1128 206.326 1128 207.927 1128 209.527C1123.52 210.481 1119.03 211.437 1114.53 212.395C1118.99 216.17 1123.48 219.926 1128 223.665C1128 226.599 1128 229.533 1128 232.467C1127.19 232.324 1126.51 232.103 1125.96 231.8C1119.91 226.643 1113.85 221.487 1107.79 216.329C1101.55 221.509 1095.39 226.711 1089.3 231.934C1089.04 232.044 1088.78 232.156 1088.52 232.267C1076.25 234.856 1064.03 237.479 1051.86 240.136C1063.98 242.714 1076.09 245.294 1088.21 247.872C1088.68 248.072 1089.15 248.272 1089.62 248.472C1095.67 253.629 1101.73 258.785 1107.79 263.943C1113.99 258.599 1120.31 253.286 1126.75 248.005C1127.14 247.9 1127.56 247.833 1128 247.805C1128 250.695 1128 253.584 1128 256.474C1123.48 260.212 1118.99 263.968 1114.53 267.744C1118.94 268.771 1123.43 269.727 1128 270.612C1128 272.212 1128 273.812 1128 275.413C1121.21 274.044 1114.47 272.623 1107.79 271.145C1065.99 280.076 1024.16 288.989 982.3 297.886C1024.16 306.783 1065.99 315.697 1107.79 324.627C1114.47 323.149 1121.21 321.728 1128 320.359C1128 321.96 1128 323.56 1128 325.161C1123.43 326.045 1118.94 327.001 1114.53 328.028C1118.99 331.804 1123.48 335.56 1128 339.298C1128 342.232 1128 345.166 1128 348.101C1126.97 347.907 1126.19 347.596 1125.65 347.167C1119.78 342.037 1113.83 336.925 1107.79 331.829C1101.63 337.075 1095.47 342.322 1089.3 347.567C1088.86 347.739 1088.39 347.894 1087.89 348.034C1075.94 350.556 1064.03 353.113 1052.17 355.703C1064.03 358.293 1075.94 360.85 1087.89 363.372C1088.27 363.552 1088.68 363.708 1089.15 363.838C1095.36 369.04 1101.58 374.241 1107.79 379.443C1113.74 374.375 1119.7 369.307 1125.65 364.239C1126.19 363.809 1126.97 363.498 1128 363.305C1128 366.239 1128 369.173 1128 372.107C1123.48 375.846 1118.99 379.602 1114.53 383.377C1119.03 384.335 1123.52 385.291 1128 386.245C1128 387.845 1128 389.446 1128 391.046C1121.21 389.678 1114.47 388.256 1107.79 386.778C1066.04 395.676 1024.31 404.589 982.613 413.519C1024.41 422.382 1066.14 431.295 1107.79 440.26C1114.56 438.808 1121.29 437.341 1128 435.859C1128 437.504 1128 439.15 1128 440.794C1123.52 441.748 1119.03 442.704 1114.53 443.661C1118.99 447.437 1123.48 451.193 1128 454.931C1128 457.866 1128 460.8 1128 463.734C1127.41 463.574 1126.83 463.397 1126.28 463.2C1120.11 457.955 1113.95 452.708 1107.79 447.463C1101.73 452.62 1095.67 457.776 1089.62 462.934C1089.04 463.178 1088.47 463.423 1087.89 463.667C1075.94 466.189 1064.03 468.746 1052.17 471.336C1064.03 473.926 1075.94 476.483 1087.89 479.005C1089.03 479.242 1089.76 479.621 1090.09 480.139C1083.4 480.139 1076.72 480.139 1070.03 480.139C1061.02 478.153 1051.93 476.196 1042.77 474.27C1040.31 476.192 1038.01 478.149 1035.88 480.139C1032.02 480.139 1028.15 480.139 1024.29 480.139C1027.68 477.253 1031.07 474.362 1034.47 471.47C1034.68 471.336 1034.68 471.203 1034.47 471.069C1013.71 453.355 992.878 435.661 971.96 417.987C951.042 435.661 930.205 453.355 909.45 471.069C909.24 471.247 909.24 471.426 909.45 471.603C912.828 474.434 916.118 477.281 919.32 480.139C915.56 480.139 911.8 480.139 908.04 480.139C905.797 478.139 903.393 476.183 900.833 474.27C891.678 476.196 882.591 478.153 873.573 480.139C866.993 480.139 860.413 480.139 853.833 480.139C854.156 479.756 854.676 479.422 855.4 479.138C867.564 476.572 879.68 473.972 891.747 471.336C879.89 468.746 867.983 466.189 856.027 463.667C855.528 463.527 855.058 463.373 854.617 463.2C848.453 457.955 842.293 452.708 836.13 447.463C830.073 452.62 824.013 457.776 817.957 462.934C817.383 463.178 816.807 463.423 816.233 463.667C804.277 466.189 792.37 468.746 780.513 471.336C792.37 473.926 804.277 476.483 816.233 479.005C817.368 479.242 818.098 479.621 818.427 480.139C811.743 480.139 805.057 480.139 798.373 480.139C789.356 478.153 780.269 476.196 771.113 474.27C768.647 476.192 766.351 478.149 764.22 480.139C760.357 480.139 756.49 480.139 752.627 480.139C756.017 477.253 759.41 474.362 762.81 471.47C763.02 471.336 763.02 471.203 762.81 471.069C742.055 453.355 721.218 435.661 700.3 417.987C679.382 435.661 658.545 453.355 637.79 471.069C637.58 471.247 637.58 471.426 637.79 471.603C641.168 474.434 644.458 477.281 647.66 480.139C643.9 480.139 640.14 480.139 636.38 480.139C634.137 478.139 631.733 476.183 629.173 474.27C620.018 476.196 610.931 478.153 601.913 480.139C595.333 480.139 588.753 480.139 582.173 480.139C582.496 479.756 583.016 479.422 583.74 479.138C595.904 476.572 608.02 473.972 620.087 471.336C608.23 468.746 596.323 466.189 584.367 463.667C583.868 463.527 583.398 463.373 582.957 463.2C576.793 457.955 570.633 452.708 564.47 447.463C558.413 452.62 552.353 457.776 546.297 462.934C545.723 463.178 545.147 463.423 544.573 463.667C532.617 466.189 520.71 468.746 508.853 471.336C520.71 473.926 532.617 476.483 544.573 479.005C545.708 479.242 546.438 479.621 546.767 480.139C540.083 480.139 533.397 480.139 526.713 480.139C517.696 478.153 508.609 476.196 499.453 474.27C496.987 476.192 494.691 478.149 492.56 480.139C488.697 480.139 484.83 480.139 480.967 480.139C484.357 477.253 487.75 474.362 491.15 471.47C491.36 471.336 491.36 471.203 491.15 471.069C470.367 453.375 449.58 435.682 428.797 417.987C407.775 435.75 386.835 453.532 365.973 471.336C369.423 474.274 372.87 477.209 376.313 480.139C372.45 480.139 368.583 480.139 364.72 480.139C362.589 478.149 360.293 476.192 357.827 474.27C348.671 476.196 339.584 478.153 330.567 480.139C323.883 480.139 317.197 480.139 310.513 480.139C311.059 479.705 311.791 479.328 312.707 479.005C324.767 476.46 336.777 473.882 348.74 471.269C336.623 468.691 324.51 466.112 312.393 463.534C312.028 463.378 311.662 463.223 311.297 463.067C305.267 457.89 299.157 452.732 292.967 447.596C286.776 452.732 280.666 457.89 274.637 463.067C274.271 463.223 273.906 463.378 273.54 463.534C261.376 466.1 249.26 468.701 237.193 471.336C249.26 473.972 261.376 476.572 273.54 479.138C274.386 479.386 274.908 479.72 275.107 480.139C268.527 480.139 261.947 480.139 255.367 480.139C246.348 478.153 237.261 476.196 228.107 474.27C225.546 476.183 223.143 478.139 220.9 480.139C217.14 480.139 213.38 480.139 209.62 480.139C212.938 477.158 216.385 474.202 219.96 471.269C198.979 453.475 178.038 435.67 157.137 417.854C136.196 435.682 115.254 453.508 94.3133 471.336C97.7641 474.274 101.211 477.209 104.653 480.139C100.789 480.139 96.9243 480.139 93.06 480.139C90.9309 478.149 88.6332 476.192 86.1667 474.27C77.012 476.196 67.9253 478.153 58.9067 480.139C52.2223 480.139 45.5377 480.139 38.8533 480.139C39.3995 479.705 40.1308 479.328 41.0467 479.005C53.1066 476.46 65.1176 473.882 77.08 471.269C64.9643 468.691 52.849 466.112 40.7333 463.534C40.3677 463.378 40.0023 463.223 39.6367 463.067C33.6069 457.89 27.4968 452.732 21.3067 447.596C15.1165 452.732 9.00655 457.89 2.97667 463.067C2.20467 463.487 1.21245 463.754 0 463.867C0 461.156 0 458.443 0 455.732C4.83508 451.727 9.63954 447.704 14.4133 443.661C9.64948 442.581 4.84504 441.536 0 440.527C0 438.927 0 437.326 0 435.726C7.05768 437.217 14.1077 438.728 21.15 440.26C62.9556 431.33 104.786 422.417 146.64 413.519C104.786 404.622 62.9556 395.709 21.15 386.778C14.116 388.308 7.06601 389.821 0 391.313C0 389.713 0 388.112 0 386.512C4.84504 385.503 9.64948 384.458 14.4133 383.377C9.63954 379.335 4.83508 375.312 0 371.307C0 368.596 0 365.883 0 363.172C1.21245 363.285 2.20467 363.552 2.97667 363.972C9.03443 369.129 15.0922 374.285 21.15 379.443C27.1835 374.44 33.1369 369.416 39.01 364.372C39.4668 364.044 40.0412 363.754 40.7333 363.505C52.849 360.927 64.9643 358.348 77.08 355.769C65.1176 353.157 53.1066 350.579 41.0467 348.034C40.4723 347.79 39.8977 347.544 39.3233 347.3C33.4831 342.151 27.4774 337.037 21.3067 331.963C15.1165 337.099 9.00655 342.256 2.97667 347.434C2.20467 347.854 1.21245 348.121 0 348.234C0 345.566 0 342.899 0 340.232C4.75004 336.165 9.5545 332.097 14.4133 328.028C9.64948 326.948 4.84504 325.902 0 324.894C0 323.293 0 321.693 0 320.092C6.92501 321.5 13.8183 322.944 20.68 324.427C21.0978 324.516 21.5156 324.516 21.9333 324.427C63.5023 315.581 105.071 306.733 146.64 297.886C105.071 289.039 63.5023 280.192 21.9333 271.345C21.5156 271.256 21.0978 271.256 20.68 271.345C13.8183 272.828 6.92501 274.273 0 275.68C0 274.079 0 272.479 0 270.878C4.84504 269.87 9.64948 268.824 14.4133 267.744C9.63954 263.702 4.83508 259.679 0 255.674C0 252.962 0 250.25 0 247.538C1.10672 247.718 2.09895 247.985 2.97667 248.338C9.00655 253.516 15.1165 258.673 21.3067 263.81C27.4968 258.673 33.6069 253.516 39.6367 248.338C40.0023 248.182 40.3677 248.028 40.7333 247.872C52.849 245.294 64.9643 242.714 77.08 240.136C64.7557 237.469 52.431 234.801 40.1067 232.134C33.7479 226.876 27.4289 221.608 21.15 216.329C15.0922 221.487 9.03443 226.643 2.97667 231.8C2.19881 232.243 1.20659 232.555 0 232.734C0 230.022 0 227.31 0 224.598C4.87512 220.581 9.67956 216.536 14.4133 212.461C9.68936 211.368 4.88493 210.345 0 209.394C0 207.749 0 206.104 0 204.459C7.0939 205.969 14.1961 207.48 21.3067 208.994C63.1329 200.114 104.911 191.201 146.64 182.253C105.071 173.406 63.5023 164.558 21.9333 155.712C21.5156 155.622 21.0978 155.622 20.68 155.712C13.8183 157.195 6.92501 158.639 0 160.046C0 158.446 0 156.845 0 155.245C4.84504 154.237 9.64948 153.191 14.4133 152.111C9.63954 148.068 4.83508 144.046 0 140.04C0 137.329 0 134.616 0 131.905C1.4215 132.084 2.51817 132.44 3.29 132.972C9.21545 138.061 15.221 143.129 21.3067 148.176C27.4968 143.04 33.6069 137.882 39.6367 132.705C39.8977 132.594 40.159 132.483 40.42 132.372C52.5914 129.715 64.8114 127.092 77.08 124.503C64.9086 121.846 52.6886 119.223 40.42 116.634C40.159 116.523 39.8977 116.411 39.6367 116.3C33.6069 111.122 27.4968 105.965 21.3067 100.829C15.221 105.877 9.21545 110.945 3.29 116.034C2.41767 116.516 1.321 116.872 0 117.1C0 114.389 0 111.677 0 108.965C4.87512 104.948 9.67956 100.902 14.4133 96.828C9.68936 95.7337 4.88493 94.7111 0 93.7604C0 92.1155 0 90.4705 0 88.8257C7.0939 90.3354 14.1961 91.8469 21.3067 93.3603C63.0286 84.5029 104.702 75.6114 146.327 66.6859C104.806 57.7826 63.2376 48.9133 21.62 40.0782C21.3067 39.9893 20.9933 39.9893 20.68 40.0782C13.8183 41.5608 6.92501 43.0058 0 44.4128C0 42.8124 0 41.2119 0 39.6114C4.88493 38.6608 9.68936 37.6382 14.4133 36.5439C9.67956 32.4694 4.87512 28.4238 0 24.4071C0 21.6952 0 18.9832 0 16.2714C1.321 16.5001 2.41767 16.8557 3.29 17.3383C9.21545 22.4271 15.221 27.4953 21.3067 32.5427C27.3924 27.4953 33.3979 22.4271 39.3233 17.3383C39.6511 17.1263 40.0167 16.9262 40.42 16.7382C52.6886 14.1493 64.9086 11.5263 77.08 8.86923C65.1733 6.33516 53.2667 3.8011 41.36 1.26703C40.1236 0.985466 39.2879 0.563121 38.8533 0ZM86.1667 11.7367C105.8 28.2283 125.174 44.7664 144.29 61.3511C105.569 53.0991 66.8722 44.83 28.2 36.5439C34.6233 31.0756 41.0467 25.6074 47.47 20.1392C60.3637 17.3173 73.2623 14.5165 86.1667 11.7367ZM357.827 11.7367C377.46 28.2283 396.834 44.7664 415.95 61.3511C377.228 53.0991 338.532 44.83 299.86 36.5439C306.283 31.0756 312.707 25.6074 319.13 20.1392C332.024 17.3173 344.924 14.5165 357.827 11.7367ZM227.793 11.8701C240.776 14.5665 253.727 17.3006 266.647 20.0725C273.162 25.5526 279.638 31.0431 286.073 36.5439C247.401 44.83 208.704 53.0991 169.983 61.3511C189.069 44.8362 208.339 28.3425 227.793 11.8701ZM441.487 61.2177C460.616 44.7993 479.832 28.3946 499.14 12.0035C499.409 11.8591 499.723 11.8368 500.08 11.9368C512.717 14.6265 525.357 17.3161 537.993 20.0058C544.498 25.4088 550.921 30.8326 557.263 36.2771C557.498 36.4285 557.445 36.5619 557.107 36.6773C518.598 44.8951 480.058 53.0752 441.487 61.2177ZM687.453 61.2177C648.882 53.0752 610.342 44.8951 571.833 36.6773C571.495 36.5619 571.442 36.4285 571.677 36.2771C577.997 30.8979 584.313 25.5184 590.633 20.1392C603.326 17.3709 616.07 14.6368 628.86 11.9368C629.217 11.8368 629.531 11.8591 629.8 12.0035C649.108 28.3946 668.324 44.7993 687.453 61.2177ZM713.147 61.2177C732.276 44.7993 751.492 28.3946 770.8 12.0035C771.069 11.8591 771.383 11.8368 771.74 11.9368C784.377 14.6265 797.017 17.3161 809.653 20.0058C816.158 25.4088 822.581 30.8326 828.923 36.2771C829.158 36.4285 829.105 36.5619 828.767 36.6773C790.258 44.8951 751.718 53.0752 713.147 61.2177ZM959.113 61.2177C920.542 53.0752 882.002 44.8951 843.493 36.6773C843.155 36.5619 843.102 36.4285 843.337 36.2771C849.657 30.8979 855.973 25.5184 862.293 20.1392C874.986 17.3709 887.73 14.6368 900.52 11.9368C900.877 11.8368 901.191 11.8591 901.46 12.0035C920.768 28.3946 939.984 44.7993 959.113 61.2177ZM984.807 61.2177C1003.94 44.7993 1023.15 28.3946 1042.46 12.0035C1042.73 11.8591 1043.04 11.8368 1043.4 11.9368C1056.04 14.6265 1068.68 17.3161 1081.31 20.0058C1087.82 25.4088 1094.24 30.8326 1100.58 36.2771C1100.82 36.4285 1100.77 36.5619 1100.43 36.6773C1061.92 44.8951 1023.38 53.0752 984.807 61.2177ZM292.34 40.0116C334.339 48.7942 376.219 57.6857 417.987 66.6859C376.363 75.6114 334.69 84.5029 292.967 93.3603C251.14 84.4807 209.362 75.567 167.633 66.6192C209.27 57.78 250.839 48.9108 292.34 40.0116ZM564 40.0116C605.949 48.8061 647.832 57.6753 689.647 66.6192C647.917 75.567 606.14 84.4807 564.313 93.3603C522.59 84.5029 480.917 75.6114 439.293 66.6859C480.882 57.7904 522.449 48.8989 564 40.0116ZM835.66 40.0116C877.609 48.8061 919.492 57.6753 961.307 66.6192C919.577 75.567 877.8 84.4807 835.973 93.3603C794.25 84.5029 752.577 75.6114 710.953 66.6859C752.542 57.7904 794.109 48.8989 835.66 40.0116ZM156.98 71.0872C178.004 88.8739 198.997 106.679 219.96 124.503C198.979 142.297 178.038 160.102 157.137 177.918C136.196 160.09 115.254 142.264 94.3133 124.436C115.206 106.649 136.095 88.8666 156.98 71.0872ZM699.987 71.0872C721.174 88.8346 742.168 106.64 762.967 124.503C742.199 142.292 721.312 160.053 700.3 177.785C679.244 160.038 658.357 142.256 637.633 124.436C658.42 106.651 679.206 88.8679 699.987 71.0872ZM971.647 71.0872C992.834 88.8346 1013.83 106.64 1034.63 124.503C1013.86 142.292 992.972 160.053 971.96 177.785C950.904 160.038 930.017 142.256 909.293 124.436C930.08 106.651 950.866 88.8679 971.647 71.0872ZM428.327 71.2206C428.602 71.2031 428.809 71.2475 428.953 71.3539C449.781 89.0619 470.564 106.778 491.307 124.503C470.514 142.272 449.677 160.033 428.797 177.785C407.775 160.022 386.835 142.24 365.973 124.436C386.848 106.711 407.631 88.9726 428.327 71.2206ZM143.82 72.0208C144.052 72.0033 144.261 72.0256 144.447 72.0875C124.947 88.5765 105.573 105.092 86.3233 121.635C73.5531 118.884 60.7588 116.15 47.94 113.433C41.1037 107.902 34.576 102.323 28.3567 96.6946C66.8879 88.483 105.376 80.2584 143.82 72.0208ZM169.827 72.0208C208.616 80.254 247.365 88.523 286.073 96.828C279.65 102.296 273.227 107.764 266.803 113.233C253.865 116.064 240.862 118.798 227.793 121.435C208.343 104.988 189.02 88.5161 169.827 72.0208ZM415.48 72.0208C415.712 72.0033 415.922 72.0256 416.107 72.0875C396.608 88.5765 377.231 105.092 357.983 121.635C345.212 118.884 332.418 116.15 319.6 113.433C312.764 107.902 306.236 102.323 300.017 96.6946C338.547 88.483 377.037 80.2584 415.48 72.0208ZM441.173 72.1542C441.192 72.0818 441.296 72.0373 441.487 72.0208C480.237 80.2676 518.983 88.5145 557.733 96.7613C551.219 102.241 544.743 107.732 538.307 113.233C525.614 116.001 512.87 118.735 500.08 121.435C499.723 121.535 499.409 121.513 499.14 121.368C479.889 104.935 460.566 88.5301 441.173 72.1542ZM687.14 72.0208C687.309 72.0288 687.416 72.0732 687.453 72.1542C668.152 88.5424 648.932 104.947 629.8 121.368C629.531 121.513 629.217 121.535 628.86 121.435C616.223 118.745 603.583 116.056 590.947 113.366C584.326 107.842 577.746 102.307 571.207 96.7613C609.919 88.5445 648.562 80.2977 687.14 72.0208ZM712.833 72.1542C712.852 72.0818 712.956 72.0373 713.147 72.0208C751.897 80.2676 790.643 88.5145 829.393 96.7613C822.879 102.241 816.403 107.732 809.967 113.233C797.274 116.001 784.53 118.735 771.74 121.435C771.383 121.535 771.069 121.513 770.8 121.368C751.549 104.935 732.226 88.5301 712.833 72.1542ZM958.8 72.0208C958.969 72.0288 959.076 72.0732 959.113 72.1542C939.812 88.5424 920.592 104.947 901.46 121.368C901.191 121.513 900.877 121.535 900.52 121.435C887.883 118.745 875.243 116.056 862.607 113.366C855.986 107.842 849.406 102.307 842.867 96.7613C881.579 88.5445 920.222 80.2977 958.8 72.0208ZM984.493 72.1542C984.512 72.0818 984.616 72.0373 984.807 72.0208C1023.56 80.2676 1062.3 88.5145 1101.05 96.7613C1094.54 102.241 1088.06 107.732 1081.63 113.233C1068.93 116.001 1056.19 118.735 1043.4 121.435C1043.04 121.535 1042.73 121.513 1042.46 121.368C1023.21 104.935 1003.89 88.5301 984.493 72.1542ZM564.313 100.696C570.495 105.824 576.605 110.981 582.643 116.167C583.113 116.367 583.583 116.567 584.053 116.767C596.17 119.346 608.283 121.924 620.4 124.503C608.283 127.081 596.17 129.66 584.053 132.238C583.583 132.438 583.113 132.638 582.643 132.838C576.587 137.996 570.527 143.152 564.47 148.31C558.413 143.152 552.353 137.996 546.297 132.838C545.827 132.638 545.357 132.438 544.887 132.238C532.77 129.66 520.657 127.081 508.54 124.503C520.447 121.969 532.353 119.435 544.26 116.9C544.921 116.748 545.495 116.548 545.983 116.3C552.263 111.133 558.373 105.932 564.313 100.696ZM835.973 100.696C842.155 105.824 848.265 110.981 854.303 116.167C854.773 116.367 855.243 116.567 855.713 116.767C867.83 119.346 879.943 121.924 892.06 124.503C879.943 127.081 867.83 129.66 855.713 132.238C855.243 132.438 854.773 132.638 854.303 132.838C848.247 137.996 842.187 143.152 836.13 148.31C830.073 143.152 824.013 137.996 817.957 132.838C817.487 132.638 817.017 132.438 816.547 132.238C804.43 129.66 792.317 127.081 780.2 124.503C792.107 121.969 804.013 119.435 815.92 116.9C816.581 116.748 817.155 116.548 817.643 116.3C823.923 111.133 830.033 105.932 835.973 100.696ZM292.653 100.829C292.928 100.812 293.137 100.856 293.28 100.963C299.346 106.238 305.613 111.462 312.08 116.634C324.35 119.223 336.57 121.846 348.74 124.503C336.47 127.092 324.25 129.715 312.08 132.372C311.819 132.483 311.558 132.594 311.297 132.705C305.267 137.882 299.157 143.04 292.967 148.176C286.881 143.129 280.875 138.061 274.95 132.972C274.622 132.76 274.257 132.56 273.853 132.372C261.529 129.749 249.204 127.126 236.88 124.503C249.253 121.891 261.578 119.246 273.853 116.567C280.448 111.397 286.715 106.151 292.653 100.829ZM86.1667 127.37C105.8 143.862 125.174 160.4 144.29 176.984C105.512 168.742 66.8149 160.452 28.2 152.111C34.5287 146.656 40.8997 141.21 47.3133 135.773C60.2835 132.968 73.2348 130.167 86.1667 127.37ZM227.793 127.37C240.632 130.103 253.478 132.837 266.333 135.572C272.994 141.065 279.574 146.577 286.073 152.111C247.415 160.449 208.666 168.674 169.827 176.784C189.277 160.337 208.6 143.866 227.793 127.37ZM357.827 127.37C377.46 143.862 396.834 160.4 415.95 176.984C377.172 168.742 338.475 160.452 299.86 152.111C306.189 146.656 312.56 141.21 318.973 135.773C331.942 132.968 344.895 130.167 357.827 127.37ZM441.487 176.851C460.616 160.433 479.832 144.028 499.14 127.637C499.409 127.492 499.723 127.47 500.08 127.57C512.717 130.26 525.357 132.949 537.993 135.639C544.498 141.042 550.921 146.466 557.263 151.911C557.498 152.063 557.445 152.196 557.107 152.311C518.598 160.529 480.058 168.709 441.487 176.851ZM687.453 176.851C648.625 168.675 609.875 160.429 571.207 152.111C577.671 146.674 584.094 141.229 590.477 135.773C603.248 133.021 616.042 130.287 628.86 127.57C629.217 127.47 629.531 127.492 629.8 127.637C649.108 144.028 668.324 160.433 687.453 176.851ZM713.147 176.851C732.276 160.433 751.492 144.028 770.8 127.637C771.069 127.492 771.383 127.47 771.74 127.57C784.377 130.26 797.017 132.949 809.653 135.639C816.158 141.042 822.581 146.466 828.923 151.911C829.158 152.063 829.105 152.196 828.767 152.311C790.258 160.529 751.718 168.709 713.147 176.851ZM959.113 176.851C920.285 168.675 881.535 160.429 842.867 152.111C849.331 146.674 855.754 141.229 862.137 135.773C874.908 133.021 887.702 130.287 900.52 127.57C900.877 127.47 901.191 127.492 901.46 127.637C920.768 144.028 939.984 160.433 959.113 176.851ZM984.807 176.851C1003.94 160.433 1023.15 144.028 1042.46 127.637C1042.73 127.492 1043.04 127.47 1043.4 127.57C1056.04 130.26 1068.68 132.949 1081.31 135.639C1087.82 141.042 1094.24 146.466 1100.58 151.911C1100.82 152.063 1100.77 152.196 1100.43 152.311C1061.92 160.529 1023.38 168.709 984.807 176.851ZM292.34 155.645C292.77 155.624 293.188 155.646 293.593 155.712C335.163 164.558 376.73 173.406 418.3 182.253C376.57 191.201 334.794 200.114 292.967 208.994C251.14 200.114 209.362 191.201 167.633 182.253C209.27 173.414 250.839 164.545 292.34 155.645ZM563.687 155.645C564.116 155.624 564.536 155.646 564.94 155.712C606.51 164.558 648.077 173.406 689.647 182.253C648.174 191.213 606.607 200.103 564.94 208.927C564.627 209.016 564.313 209.016 564 208.927C522.277 200.07 480.603 191.178 438.98 182.253C480.616 173.414 522.186 164.545 563.687 155.645ZM835.347 155.645C835.776 155.624 836.196 155.646 836.6 155.712C878.17 164.558 919.737 173.406 961.307 182.253C919.834 191.213 878.267 200.103 836.6 208.927C836.287 209.016 835.973 209.016 835.66 208.927C793.937 200.07 752.263 191.178 710.64 182.253C752.276 173.414 793.846 164.545 835.347 155.645ZM156.98 186.587C177.919 204.435 198.912 222.284 219.96 240.136C198.979 257.931 178.038 275.736 157.137 293.551C136.196 275.724 115.254 257.897 94.3133 240.069C115.291 222.256 136.18 204.428 156.98 186.587ZM428.64 186.721C449.558 204.506 470.445 222.311 491.307 240.136C470.514 257.905 449.677 275.666 428.797 293.418C407.775 275.656 386.835 257.873 365.973 240.069C386.866 222.283 407.756 204.5 428.64 186.721ZM699.987 186.721C721.159 204.455 742.152 222.26 762.967 240.136C742.199 257.925 721.312 275.686 700.3 293.418C679.244 275.672 658.357 257.889 637.633 240.069C658.42 222.284 679.206 204.502 699.987 186.721ZM971.647 186.721C992.819 204.455 1013.81 222.26 1034.63 240.136C1013.86 257.925 992.972 275.686 971.96 293.418C950.904 275.672 930.017 257.889 909.293 240.069C930.08 222.284 950.866 204.502 971.647 186.721ZM143.82 187.654C144.052 187.637 144.261 187.66 144.447 187.721C125.22 204.244 105.793 220.716 86.1667 237.135C73.32 234.401 60.4733 231.667 47.6267 228.933C41.1109 223.453 34.6356 217.962 28.2 212.461C66.8077 204.223 105.348 195.954 143.82 187.654ZM169.827 187.654C208.608 195.886 247.356 204.155 286.073 212.461C279.65 217.93 273.227 223.398 266.803 228.866C253.865 231.698 240.862 234.432 227.793 237.068C208.343 220.621 189.02 204.15 169.827 187.654ZM415.48 187.654C415.712 187.637 415.922 187.66 416.107 187.721C396.881 204.244 377.454 220.716 357.827 237.135C344.98 234.401 332.133 231.667 319.287 228.933C312.771 223.453 306.296 217.962 299.86 212.461C338.469 204.223 377.009 195.954 415.48 187.654ZM441.173 187.788C441.192 187.716 441.296 187.67 441.487 187.654C479.977 195.913 518.517 204.138 557.107 212.328C557.445 212.443 557.498 212.576 557.263 212.728C550.943 218.107 544.627 223.487 538.307 228.866C525.614 231.635 512.87 234.369 500.08 237.068C499.723 237.169 499.409 237.146 499.14 237.002C479.889 220.568 460.566 204.163 441.173 187.788ZM687.14 187.654C687.309 187.662 687.416 187.706 687.453 187.788C668.321 204.208 649.101 220.613 629.8 237.002C629.531 237.146 629.217 237.169 628.86 237.068C616.223 234.378 603.583 231.69 590.947 228.999C584.326 223.475 577.746 217.94 571.207 212.395C609.919 204.178 648.562 195.931 687.14 187.654ZM712.833 187.788C712.852 187.716 712.956 187.67 713.147 187.654C751.637 195.913 790.177 204.138 828.767 212.328C829.105 212.443 829.158 212.576 828.923 212.728C822.603 218.107 816.287 223.487 809.967 228.866C797.274 231.635 784.53 234.369 771.74 237.068C771.383 237.169 771.069 237.146 770.8 237.002C751.549 220.568 732.226 204.163 712.833 187.788ZM958.8 187.654C958.969 187.662 959.076 187.706 959.113 187.788C939.981 204.208 920.761 220.613 901.46 237.002C901.191 237.146 900.877 237.169 900.52 237.068C887.883 234.378 875.243 231.69 862.607 228.999C855.986 223.475 849.406 217.94 842.867 212.395C881.579 204.178 920.222 195.931 958.8 187.654ZM984.493 187.788C984.512 187.716 984.616 187.67 984.807 187.654C1023.3 195.913 1061.84 204.138 1100.43 212.328C1100.77 212.443 1100.82 212.576 1100.58 212.728C1094.26 218.107 1087.95 223.487 1081.63 228.866C1068.93 231.635 1056.19 234.369 1043.4 237.068C1043.04 237.169 1042.73 237.146 1042.46 237.002C1023.21 220.568 1003.89 204.163 984.493 187.788ZM292.653 216.329C299.055 221.579 305.426 226.847 311.767 232.134C324.09 234.801 336.417 237.469 348.74 240.136C336.623 242.714 324.51 245.294 312.393 247.872C312.028 248.028 311.662 248.182 311.297 248.338C305.267 253.516 299.157 258.673 292.967 263.81C286.776 258.673 280.666 253.516 274.637 248.338C274.376 248.228 274.114 248.116 273.853 248.005C261.682 245.348 249.462 242.725 237.193 240.136C249.156 237.523 261.167 234.945 273.227 232.4C273.697 232.2 274.167 232 274.637 231.8C280.731 226.656 286.736 221.5 292.653 216.329ZM564.313 216.329C570.495 221.457 576.605 226.615 582.643 231.8C583.01 231.956 583.373 232.111 583.74 232.267C596.01 234.856 608.23 237.479 620.4 240.136C608.077 242.759 595.75 245.382 583.427 248.005C576.988 253.286 570.668 258.599 564.47 263.943C558.413 258.785 552.353 253.629 546.297 248.472C545.827 248.272 545.357 248.072 544.887 247.872C532.77 245.294 520.657 242.714 508.54 240.136C520.71 237.479 532.93 234.856 545.2 232.267C551.777 227.003 558.147 221.691 564.313 216.329ZM835.973 216.329C842.155 221.457 848.265 226.615 854.303 231.8C854.67 231.956 855.033 232.111 855.4 232.267C867.67 234.856 879.89 237.479 892.06 240.136C879.737 242.759 867.41 245.382 855.087 248.005C848.648 253.286 842.328 258.599 836.13 263.943C830.073 258.785 824.013 253.629 817.957 248.472C817.487 248.272 817.017 248.072 816.547 247.872C804.43 245.294 792.317 242.714 780.2 240.136C792.37 237.479 804.59 234.856 816.86 232.267C823.437 227.003 829.807 221.691 835.973 216.329ZM86.1667 243.004C105.624 259.456 125.051 275.928 144.447 292.418C105.684 284.313 66.9875 276.11 28.3567 267.811C34.487 262.325 40.806 256.857 47.3133 251.406C60.2835 248.601 73.2348 245.8 86.1667 243.004ZM169.827 292.484C189.032 275.957 208.407 259.463 227.95 243.004C240.72 245.755 253.515 248.489 266.333 251.206C272.994 256.698 279.574 262.21 286.073 267.744C247.405 276.062 208.656 284.309 169.827 292.484ZM357.827 243.004C377.285 259.456 396.711 275.928 416.107 292.418C377.344 284.313 338.648 276.11 300.017 267.811C306.147 262.325 312.466 256.857 318.973 251.406C331.942 248.601 344.895 245.8 357.827 243.004ZM499.14 243.004C512.121 245.7 525.075 248.434 537.993 251.206C544.508 256.686 550.984 262.177 557.42 267.677C518.883 276.012 480.24 284.281 441.487 292.484C441.383 292.462 441.277 292.44 441.173 292.418C460.625 275.97 479.945 259.499 499.14 243.004ZM687.453 292.484C648.625 284.309 609.875 276.062 571.207 267.744C577.671 262.308 584.094 256.862 590.477 251.406C603.38 248.57 616.33 245.77 629.33 243.004C648.873 259.463 668.246 275.957 687.453 292.484ZM770.8 243.004C783.781 245.7 796.735 248.434 809.653 251.206C816.168 256.686 822.644 262.177 829.08 267.677C790.543 276.012 751.9 284.281 713.147 292.484C713.043 292.462 712.937 292.44 712.833 292.418C732.285 275.97 751.605 259.499 770.8 243.004ZM959.113 292.484C920.285 284.309 881.535 276.062 842.867 267.744C849.331 262.308 855.754 256.862 862.137 251.406C875.04 248.57 887.99 245.77 900.99 243.004C920.533 259.463 939.906 275.957 959.113 292.484ZM1042.46 243.004C1055.44 245.7 1068.39 248.434 1081.31 251.206C1087.83 256.686 1094.3 262.177 1100.74 267.677C1062.2 276.012 1023.56 284.281 984.807 292.484C984.703 292.462 984.597 292.44 984.493 292.418C1003.95 275.97 1023.27 259.499 1042.46 243.004ZM564.313 271.145C606.187 280.057 648.07 288.97 689.96 297.886C648.105 306.783 606.275 315.697 564.47 324.627C522.665 315.697 480.835 306.783 438.98 297.886C480.826 289.002 522.602 280.089 564.313 271.145ZM835.973 271.145C877.847 280.057 919.73 288.97 961.62 297.886C919.765 306.783 877.935 315.697 836.13 324.627C794.325 315.697 752.495 306.783 710.64 297.886C752.486 289.002 794.262 280.089 835.973 271.145ZM292.34 271.278C292.77 271.257 293.188 271.28 293.593 271.345C335.163 280.192 376.73 289.039 418.3 297.886C376.73 306.733 335.163 315.581 293.593 324.427C293.176 324.516 292.758 324.516 292.34 324.427C250.771 315.581 209.202 306.733 167.633 297.886C209.27 289.047 250.839 280.178 292.34 271.278ZM156.98 302.221C178.089 320.035 199.082 337.884 219.96 355.769C198.979 373.564 178.038 391.369 157.137 409.185C136.196 391.357 115.254 373.531 94.3133 355.703C115.291 337.89 136.18 320.062 156.98 302.221ZM428.64 302.354C449.727 320.106 470.617 337.911 491.307 355.769C470.514 373.539 449.677 391.3 428.797 409.051C407.775 391.289 386.835 373.507 365.973 355.703C386.866 337.916 407.756 320.134 428.64 302.354ZM699.987 302.354C700.262 302.337 700.469 302.381 700.613 302.487C721.525 320.223 742.309 337.984 762.967 355.769C742.199 373.559 721.312 391.32 700.3 409.051C679.244 391.305 658.357 373.523 637.633 355.703C658.42 337.918 679.206 320.135 699.987 302.354ZM971.647 302.354C971.922 302.337 972.129 302.381 972.273 302.487C993.185 320.223 1013.97 337.984 1034.63 355.769C1013.86 373.559 992.972 391.32 971.96 409.051C950.904 391.305 930.017 373.523 909.293 355.703C930.08 337.918 950.866 320.135 971.647 302.354ZM143.82 303.288C144.052 303.27 144.261 303.293 144.447 303.354C125.06 319.836 105.633 336.308 86.1667 352.769C73.32 350.034 60.4733 347.3 47.6267 344.566C40.9749 339.059 34.5516 333.524 28.3567 327.961C66.8879 319.75 105.376 311.525 143.82 303.288ZM169.827 303.288C208.656 311.463 247.405 319.71 286.073 328.028C279.525 333.492 273.102 338.982 266.803 344.5C253.865 347.331 240.862 350.065 227.793 352.702C208.343 336.254 189.02 319.783 169.827 303.288ZM415.48 303.288C415.712 303.27 415.922 303.293 416.107 303.354C396.721 319.836 377.294 336.308 357.827 352.769C344.98 350.034 332.133 347.3 319.287 344.566C312.635 339.059 306.212 333.524 300.017 327.961C338.547 319.75 377.037 311.525 415.48 303.288ZM441.173 303.421C441.192 303.349 441.296 303.304 441.487 303.288C480.24 311.491 518.883 319.76 557.42 328.095C551.015 333.502 544.699 338.926 538.463 344.366C525.532 347.218 512.529 350.018 499.453 352.769C480.017 336.312 460.591 319.862 441.173 303.421ZM687.453 303.288C668.246 319.815 648.873 336.309 629.33 352.769C616.559 350.017 603.765 347.283 590.947 344.566C584.285 339.074 577.705 333.562 571.207 328.028C609.875 319.71 648.625 311.463 687.453 303.288ZM712.833 303.421C712.852 303.349 712.956 303.304 713.147 303.288C751.9 311.491 790.543 319.76 829.08 328.095C822.675 333.502 816.359 338.926 810.123 344.366C797.192 347.218 784.189 350.018 771.113 352.769C751.677 336.312 732.251 319.862 712.833 303.421ZM959.113 303.288C939.906 319.815 920.533 336.309 900.99 352.769C888.219 350.017 875.425 347.283 862.607 344.566C855.945 339.074 849.365 333.562 842.867 328.028C881.535 319.71 920.285 311.463 959.113 303.288ZM984.493 303.421C984.512 303.349 984.616 303.304 984.807 303.288C1023.56 311.491 1062.2 319.76 1100.74 328.095C1094.34 333.502 1088.02 338.926 1081.78 344.366C1068.85 347.218 1055.85 350.018 1042.77 352.769C1023.34 336.312 1003.91 319.862 984.493 303.421ZM564.313 331.829C570.555 337.06 576.768 342.306 582.957 347.567C583.217 347.678 583.48 347.79 583.74 347.9C595.904 350.467 608.02 353.067 620.087 355.703C608.23 358.293 596.323 360.85 584.367 363.372C583.868 363.512 583.398 363.666 582.957 363.838C576.715 369.019 570.552 374.22 564.47 379.443C558.257 374.241 552.04 369.04 545.827 363.838C545.363 363.708 544.946 363.552 544.573 363.372C532.617 360.85 520.71 358.293 508.853 355.703C520.71 353.113 532.617 350.556 544.573 348.034C545.072 347.894 545.542 347.739 545.983 347.567C552.181 342.335 558.291 337.088 564.313 331.829ZM835.973 331.829C842.215 337.06 848.428 342.306 854.617 347.567C854.877 347.678 855.14 347.79 855.4 347.9C867.564 350.467 879.68 353.067 891.747 355.703C879.89 358.293 867.983 360.85 856.027 363.372C855.528 363.512 855.058 363.666 854.617 363.838C848.375 369.019 842.212 374.22 836.13 379.443C829.917 374.241 823.7 369.04 817.487 363.838C817.023 363.708 816.606 363.552 816.233 363.372C804.277 360.85 792.37 358.293 780.513 355.703C792.37 353.113 804.277 350.556 816.233 348.034C816.732 347.894 817.202 347.739 817.643 347.567C823.841 342.335 829.951 337.088 835.973 331.829ZM292.653 331.963C292.928 331.945 293.137 331.989 293.28 332.096C299.266 337.148 305.167 342.216 310.983 347.3C311.558 347.544 312.132 347.79 312.707 348.034C324.767 350.579 336.777 353.157 348.74 355.769C336.623 358.348 324.51 360.927 312.393 363.505C311.701 363.754 311.127 364.044 310.67 364.372C304.797 369.416 298.844 374.44 292.81 379.443C286.752 374.285 280.694 369.129 274.637 363.972C274.271 363.816 273.906 363.661 273.54 363.505C261.376 360.939 249.26 358.338 237.193 355.703C249.26 353.067 261.376 350.467 273.54 347.9C273.906 347.744 274.271 347.59 274.637 347.434C280.731 342.29 286.736 337.133 292.653 331.963ZM85.8533 358.637C86.1278 358.62 86.3368 358.664 86.48 358.77C105.762 375.207 125.084 391.634 144.447 408.051C105.684 399.946 66.9875 391.744 28.3567 383.444C34.5394 377.913 40.9104 372.401 47.47 366.906C60.3079 364.163 73.1022 361.406 85.8533 358.637ZM169.827 408.118C189.032 391.59 208.407 375.096 227.95 358.637C240.72 361.388 253.515 364.123 266.333 366.839C272.994 372.332 279.574 377.844 286.073 383.377C247.405 391.696 208.656 399.942 169.827 408.118ZM357.513 358.637C357.789 358.62 357.996 358.664 358.14 358.77C377.423 375.207 396.746 391.634 416.107 408.051C377.344 399.946 338.648 391.744 300.017 383.444C306.199 377.913 312.57 372.401 319.13 366.906C331.967 364.163 344.764 361.406 357.513 358.637ZM499.14 358.637C512.121 361.334 525.075 364.068 537.993 366.839C544.508 372.32 550.984 377.81 557.42 383.311C518.883 391.645 480.24 399.914 441.487 408.118C441.383 408.095 441.277 408.074 441.173 408.051C460.625 391.604 479.945 375.132 499.14 358.637ZM629.173 358.637C648.885 375.063 668.262 391.557 687.297 408.118C648.625 399.854 609.928 391.608 571.207 383.377C577.671 377.941 584.094 372.496 590.477 367.039C603.37 364.217 616.27 361.416 629.173 358.637ZM770.8 358.637C783.781 361.334 796.735 364.068 809.653 366.839C816.168 372.32 822.644 377.81 829.08 383.311C790.543 391.645 751.9 399.914 713.147 408.118C713.043 408.095 712.937 408.074 712.833 408.051C732.285 391.604 751.605 375.132 770.8 358.637ZM900.833 358.637C920.545 375.063 939.922 391.557 958.957 408.118C920.285 399.854 881.588 391.608 842.867 383.377C849.331 377.941 855.754 372.496 862.137 367.039C875.03 364.217 887.93 361.416 900.833 358.637ZM1042.46 358.637C1055.44 361.334 1068.39 364.068 1081.31 366.839C1087.83 372.32 1094.3 377.81 1100.74 383.311C1062.2 391.645 1023.56 399.914 984.807 408.118C984.703 408.095 984.597 408.074 984.493 408.051C1003.95 391.604 1023.27 375.132 1042.46 358.637ZM292.653 386.778C334.527 395.69 376.41 404.604 418.3 413.519C376.445 422.417 334.615 431.33 292.81 440.26C251.157 431.295 209.432 422.382 167.633 413.519C209.326 404.602 250.999 395.688 292.653 386.778ZM564.313 386.778C606.131 395.656 647.911 404.57 689.647 413.519C647.848 422.382 606.121 431.295 564.47 440.26C522.819 431.295 481.092 422.382 439.293 413.519C480.985 404.602 522.659 395.688 564.313 386.778ZM835.973 386.778C877.791 395.656 919.571 404.57 961.307 413.519C919.508 422.382 877.781 431.295 836.13 440.26C794.479 431.295 752.752 422.382 710.953 413.519C752.645 404.602 794.319 395.688 835.973 386.778ZM144.133 418.788C144.303 418.796 144.408 418.84 144.447 418.921C125.1 435.435 105.674 451.929 86.1667 468.402C73.32 465.668 60.4733 462.934 47.6267 460.2C40.9749 454.693 34.5516 449.158 28.3567 443.595C66.9437 435.304 105.536 427.035 144.133 418.788ZM415.793 418.788C415.963 418.796 416.069 418.84 416.107 418.921C396.761 435.435 377.335 451.929 357.827 468.402C344.98 465.668 332.133 462.934 319.287 460.2C312.635 454.693 306.212 449.158 300.017 443.595C338.604 435.304 377.197 427.035 415.793 418.788ZM169.827 419.054C169.845 418.982 169.95 418.937 170.14 418.921C208.833 427.134 247.478 435.38 286.073 443.661C279.61 449.098 273.187 454.543 266.803 460C253.901 462.835 240.95 465.636 227.95 468.402C208.481 451.961 189.107 435.512 169.827 419.054ZM441.487 418.921C480.183 427.057 518.777 435.282 557.263 443.595C551.069 449.158 544.645 454.693 537.993 460.2C525.147 462.934 512.3 465.668 499.453 468.402C479.876 451.959 460.556 435.466 441.487 418.921ZM687.453 418.921C668.246 435.448 648.873 451.943 629.33 468.402C616.559 465.651 603.765 462.916 590.947 460.2C584.285 454.707 577.705 449.195 571.207 443.661C609.875 435.343 648.625 427.097 687.453 418.921ZM713.147 418.921C751.843 427.057 790.437 435.282 828.923 443.595C822.729 449.158 816.305 454.693 809.653 460.2C796.807 462.934 783.96 465.668 771.113 468.402C751.536 451.959 732.216 435.466 713.147 418.921ZM959.113 418.921C939.906 435.448 920.533 451.943 900.99 468.402C888.219 465.651 875.425 462.916 862.607 460.2C855.945 454.707 849.365 449.195 842.867 443.661C881.535 435.343 920.285 427.097 959.113 418.921ZM984.807 418.921C1023.5 427.057 1062.1 435.282 1100.58 443.595C1094.39 449.158 1087.97 454.693 1081.31 460.2C1068.47 462.934 1055.62 465.668 1042.77 468.402C1023.2 451.959 1003.88 435.466 984.807 418.921Z" fill="url(#paint0_linear_342_531)"/>
<defs>
<linearGradient id="paint0_linear_342_531" x1="575.026" y1="413" x2="498.774" y2="-72.7035" gradientUnits="userSpaceOnUse">
<stop stop-color="#9EAFB5"/>
<stop offset="1" stop-color="#083A50"/>
</linearGradient>
</defs>
</svg>
