<svg width="32" height="32" viewBox="0 0 32 32" fill="none" xmlns="http://www.w3.org/2000/svg">
<path d="M24.8997 31.9831L7.13135 32C3.2223 32.0036 0.0213251 28.8088 0.016883 24.8997L2.96183e-06 7.13135C-0.00355072 3.2223 3.19121 0.0213251 7.10025 0.016883L24.8686 2.96183e-06C28.7777 -0.00355072 31.9787 3.19121 31.9831 7.10026L32 24.8687C32.0044 28.7786 28.8088 31.9796 24.8997 31.9831Z" fill="url(#paint0_radial_255_2056)"/>
<path d="M24.8997 31.9831L7.13135 32C3.2223 32.0036 0.0213251 28.8088 0.016883 24.8997L2.96183e-06 7.13135C-0.00355072 3.2223 3.19121 0.0213251 7.10025 0.016883L24.8686 2.96183e-06C28.7777 -0.00355072 31.9787 3.19121 31.9831 7.10026L32 24.8687C32.0044 28.7786 28.8088 31.9796 24.8997 31.9831Z" fill="url(#paint1_radial_255_2056)"/>
<path d="M16.0002 22.2191C12.5718 22.2191 9.78125 19.4295 9.78125 16.0002C9.78125 12.5709 12.5718 9.78125 16.0002 9.78125C19.4286 9.78125 22.2191 12.5709 22.2191 16.0002C22.2191 19.4295 19.4286 22.2191 16.0002 22.2191ZM16.0002 11.5581C13.5508 11.5581 11.5581 13.5508 11.5581 16.0002C11.5581 18.4496 13.5508 20.4423 16.0002 20.4423C18.4496 20.4423 20.4423 18.4496 20.4423 16.0002C20.4423 13.5508 18.4496 11.5581 16.0002 11.5581Z" fill="white"/>
<path d="M22.6647 10.6697C23.4007 10.6697 23.9973 10.073 23.9973 9.33702C23.9973 8.60103 23.4007 8.00439 22.6647 8.00439C21.9287 8.00439 21.332 8.60103 21.332 9.33702C21.332 10.073 21.9287 10.6697 22.6647 10.6697Z" fill="white"/>
<path d="M21.3331 27.5496H10.6721C7.24365 27.5496 4.45312 24.76 4.45312 21.3307V10.6696C4.45312 7.24032 7.24365 4.45068 10.6721 4.45068H21.3331C24.7615 4.45068 27.552 7.24032 27.552 10.6696V21.3307C27.552 24.76 24.7615 27.5496 21.3331 27.5496ZM10.6721 6.22752C8.22269 6.22752 6.22996 8.22025 6.22996 10.6696V21.3307C6.22996 23.78 8.22269 25.7728 10.6721 25.7728H21.3331C23.7825 25.7728 25.7752 23.78 25.7752 21.3307V10.6696C25.7752 8.22025 23.7825 6.22752 21.3331 6.22752H10.6721Z" fill="white"/>
<defs>
<radialGradient id="paint0_radial_255_2056" cx="0" cy="0" r="1" gradientUnits="userSpaceOnUse" gradientTransform="translate(11.8959 32.0231) scale(39.8892 39.8892)">
<stop stop-color="#FFDD55"/>
<stop offset="0.328" stop-color="#FF543F"/>
<stop offset="0.348" stop-color="#FC5245"/>
<stop offset="0.504" stop-color="#E64771"/>
<stop offset="0.643" stop-color="#D53E91"/>
<stop offset="0.761" stop-color="#CC39A4"/>
<stop offset="0.841" stop-color="#C837AB"/>
</radialGradient>
<radialGradient id="paint1_radial_255_2056" cx="0" cy="0" r="1" gradientUnits="userSpaceOnUse" gradientTransform="translate(5.14928 -0.399517) scale(26.4865 17.6479)">
<stop stop-color="#4168C9"/>
<stop offset="0.999" stop-color="#4168C9" stop-opacity="0"/>
</radialGradient>
</defs>
</svg>
