<svg width="89" height="50" viewBox="0 0 89 50" fill="none" xmlns="http://www.w3.org/2000/svg">
<path d="M52.3803 33.4935L44.5284 36.4711L36.6765 33.4935L34.3282 32.6031L6.52047 22.0449C4.41858 21.244 2.85787 19.4961 2.33119 17.3571L0.654512 10.5021C0.422579 9.54566 1.44212 8.75415 2.34569 9.1923L42.4362 28.6597L44.5284 29.6773L52.3803 33.4935Z" fill="#0089B5"/>
<path d="M80.5461 47.6044L79.1835 49.3759C79.0917 49.4937 78.9322 49.5408 78.7921 49.4843L47.0898 37.4467L54.6276 34.5869L80.4205 47.1097C80.6089 47.2087 80.6717 47.4442 80.5461 47.6044Z" fill="#0089B5"/>
<path d="M88.3432 10.6918L86.7341 17.283C86.1978 19.4738 84.5984 21.2641 82.4434 22.0839L52.3743 33.4995L44.5224 36.4771L10.2544 49.4899C10.2109 49.5041 10.1722 49.5135 10.1336 49.5135C10.0273 49.5135 9.93062 49.4664 9.86297 49.3816L8.50037 47.6101C8.37474 47.4452 8.43272 47.2096 8.62116 47.1201L36.6657 33.4995L44.5176 29.6833L86.5215 9.28311C86.71 9.18889 86.9032 9.14648 87.0917 9.14648C87.8793 9.14648 88.5509 9.8579 88.3432 10.6918Z" fill="#0089B5"/>
<path d="M42.4361 28.665L34.3281 32.6085L36.6716 33.4942L44.5283 29.6827L42.4361 28.665Z" fill="#0089B5"/>
<path d="M39.3148 0.486328C40.1121 1.08467 40.9721 1.78195 41.8902 2.58289C42.8083 3.38382 43.6635 4.22244 44.4656 5.09405C45.3112 4.22244 46.1954 3.38382 47.1135 2.58289C48.0316 1.78195 48.8868 1.07996 49.6889 0.486328C50.8631 1.31082 52.0759 2.32376 53.3225 3.51574C54.5692 4.70771 55.6612 5.85729 56.6034 6.95504C55.6612 8.0575 54.545 9.21649 53.2501 10.432C51.9551 11.6476 50.7665 12.6464 49.6841 13.4237C48.882 12.783 48.0267 12.0716 47.1087 11.2895C46.1906 10.5074 45.3305 9.68292 44.5333 8.81131C43.6877 9.68292 42.8034 10.5215 41.8854 11.3225C40.9673 12.1234 40.1072 12.8254 39.3099 13.419C38.2276 12.5945 37.0389 11.5957 35.744 10.4273C34.449 9.25889 33.3329 8.0999 32.3906 6.95032C33.3329 5.80546 34.449 4.64646 35.744 3.47333C37.0486 2.30963 38.2324 1.31553 39.3148 0.486328Z" fill="#0089B5"/>
</svg>
