<svg width="1440" height="472" viewBox="0 0 1440 472" fill="none" xmlns="http://www.w3.org/2000/svg">
<path fill-rule="evenodd" clip-rule="evenodd" d="M1430.12 349.206V317.728C1430.42 317.511 1430.59 317.207 1430.59 316.86C1430.59 316.383 1430.25 315.95 1429.81 315.863V313.218V312.698V312.568C1429.81 312.481 1429.81 312.394 1429.81 312.351V311.094H1430.25C1430.55 311.094 1430.76 310.833 1430.76 310.573C1430.76 310.27 1430.55 310.053 1430.25 310.053H1429.6C1429.9 309.186 1430.25 307.538 1429.51 305.847C1429.17 305.067 1428.48 304.329 1427.7 303.679C1426.92 303.029 1426.06 302.508 1425.37 302.118C1425.41 301.988 1425.45 301.901 1425.45 301.728C1425.45 301.555 1425.45 301.338 1425.37 301.121C1425.28 300.904 1425.07 300.687 1424.85 300.514C1424.63 300.34 1424.42 300.21 1424.29 300.124V299.733C1424.33 299.69 1424.38 299.647 1424.38 299.603C1424.42 299.56 1424.42 299.473 1424.42 299.43C1424.42 299.343 1424.42 299.3 1424.38 299.213C1424.33 299.17 1424.29 299.126 1424.25 299.083L1424.2 298.78L1424.29 298.693C1424.29 298.649 1424.33 298.563 1424.33 298.519C1424.33 298.476 1424.33 298.389 1424.29 298.346C1424.25 298.303 1424.2 298.259 1424.2 298.259V297.912L1424.12 295.354C1424.12 295.311 1424.07 295.311 1424.07 295.311C1424.03 295.311 1423.99 295.311 1423.99 295.354L1423.9 297.912V298.259C1423.86 298.259 1423.81 298.303 1423.77 298.346C1423.77 298.389 1423.73 298.433 1423.73 298.519C1423.73 298.563 1423.73 298.649 1423.77 298.693C1423.77 298.736 1423.81 298.78 1423.86 298.78V299.083C1423.81 299.126 1423.77 299.17 1423.73 299.213C1423.68 299.3 1423.64 299.343 1423.64 299.43C1423.64 299.517 1423.64 299.56 1423.68 299.603C1423.68 299.647 1423.77 299.69 1423.77 299.733V300.124C1423.6 300.21 1423.38 300.34 1423.21 300.514C1422.99 300.687 1422.78 300.904 1422.69 301.121C1422.61 301.338 1422.56 301.555 1422.61 301.728C1422.61 301.901 1422.65 302.031 1422.69 302.118C1422 302.508 1421.14 303.072 1420.4 303.679C1419.63 304.329 1418.94 305.067 1418.59 305.847C1417.86 307.538 1418.25 309.186 1418.5 310.053H1418.03C1417.73 310.053 1417.51 310.27 1417.51 310.573C1417.51 310.877 1417.73 311.094 1418.03 311.094H1418.42V312.611V315.906C1417.99 316.036 1417.64 316.427 1417.64 316.904C1417.64 317.251 1417.81 317.554 1418.12 317.771V349.25H1416.91C1417.04 349.076 1417.08 348.816 1417.08 348.599C1417.08 347.862 1416.56 347.255 1415.87 347.038V342.009V339.711H1416.52C1416.95 339.711 1417.34 339.32 1417.34 338.887C1417.34 338.453 1416.95 338.063 1416.52 338.063H1415.79C1416.22 336.762 1416.78 334.204 1415.66 331.646C1415.14 330.432 1414.06 329.305 1412.85 328.307C1411.69 327.353 1410.39 326.53 1409.31 325.879C1409.35 325.706 1409.4 325.489 1409.4 325.272C1409.4 324.969 1409.4 324.665 1409.22 324.361C1409.1 324.015 1408.75 323.711 1408.45 323.451C1408.15 323.234 1407.8 323.017 1407.54 322.887V322.324C1407.63 322.28 1407.67 322.194 1407.71 322.107C1407.76 322.02 1407.8 321.933 1407.8 321.803C1407.8 321.673 1407.8 321.586 1407.71 321.5C1407.67 321.413 1407.63 321.326 1407.54 321.283V320.806C1407.58 320.763 1407.63 320.719 1407.67 320.633C1407.71 320.546 1407.71 320.459 1407.71 320.416C1407.71 320.329 1407.71 320.242 1407.63 320.156C1407.58 320.112 1407.54 320.026 1407.5 319.982V319.462L1407.33 315.56C1407.33 315.516 1407.28 315.473 1407.24 315.473C1407.2 315.473 1407.15 315.516 1407.15 315.56L1406.98 319.462L1406.94 319.982C1406.89 320.026 1406.85 320.069 1406.81 320.156C1406.76 320.242 1406.72 320.329 1406.72 320.416C1406.72 320.503 1406.72 320.589 1406.76 320.633C1406.81 320.719 1406.85 320.763 1406.89 320.806V321.283C1406.81 321.326 1406.76 321.413 1406.68 321.5C1406.64 321.586 1406.59 321.673 1406.59 321.803C1406.59 321.89 1406.64 322.02 1406.68 322.107C1406.72 322.194 1406.76 322.237 1406.85 322.324V322.887C1406.59 323.017 1406.25 323.234 1405.94 323.451C1405.6 323.711 1405.3 324.015 1405.17 324.361C1405.04 324.665 1404.99 325.012 1404.99 325.272C1404.99 325.489 1405.08 325.706 1405.12 325.879C1404.09 326.486 1402.75 327.31 1401.59 328.307C1400.38 329.305 1399.34 330.432 1398.82 331.646C1397.7 334.204 1398.22 336.762 1398.69 338.063H1397.79C1397.35 338.063 1397.01 338.453 1397.01 338.887C1397.01 339.32 1397.35 339.711 1397.79 339.711H1398.48C1398.48 340.795 1398.48 341.922 1398.48 343.006V347.082C1397.79 347.255 1397.27 347.862 1397.27 348.643C1397.27 348.86 1397.31 349.12 1397.4 349.293H1396.06C1396.19 349.12 1396.19 348.86 1396.19 348.643C1396.19 347.906 1395.67 347.299 1395.02 347.082V342.052V339.754H1395.67C1396.1 339.754 1396.49 339.364 1396.49 338.93C1396.49 338.497 1396.1 338.106 1395.67 338.106H1394.89C1395.33 336.806 1395.89 334.247 1394.77 331.689C1394.25 330.475 1393.17 329.348 1391.96 328.351C1390.79 327.397 1389.5 326.573 1388.42 325.922C1388.46 325.749 1388.51 325.532 1388.51 325.315C1388.51 325.012 1388.51 324.708 1388.33 324.405C1388.16 324.058 1387.86 323.755 1387.56 323.494C1387.25 323.278 1386.91 323.061 1386.65 322.931V322.367C1386.74 322.324 1386.78 322.237 1386.82 322.15C1386.87 322.063 1386.91 321.977 1386.91 321.847C1386.91 321.717 1386.87 321.63 1386.82 321.543C1386.78 321.456 1386.74 321.37 1386.65 321.326V320.849C1386.69 320.806 1386.74 320.763 1386.78 320.676C1386.82 320.589 1386.82 320.503 1386.82 320.459C1386.82 320.372 1386.82 320.286 1386.74 320.199C1386.69 320.156 1386.65 320.069 1386.61 320.026L1386.56 319.505L1386.39 315.603C1386.39 315.56 1386.35 315.516 1386.31 315.516C1386.26 315.516 1386.26 315.56 1386.26 315.603L1386.05 319.505V320.026C1386 320.069 1385.96 320.112 1385.92 320.199C1385.87 320.286 1385.83 320.372 1385.83 320.459C1385.83 320.546 1385.83 320.633 1385.87 320.676C1385.92 320.719 1385.96 320.806 1386 320.849V321.326C1385.92 321.37 1385.87 321.456 1385.79 321.543C1385.74 321.63 1385.7 321.717 1385.7 321.847C1385.7 321.933 1385.7 322.063 1385.79 322.15C1385.83 322.237 1385.87 322.28 1385.96 322.367L1385.92 322.931C1385.66 323.061 1385.36 323.278 1385.01 323.494C1384.67 323.755 1384.36 324.058 1384.23 324.405C1384.1 324.708 1384.06 325.055 1384.06 325.315C1384.06 325.532 1384.15 325.749 1384.15 325.922C1383.11 326.529 1381.77 327.353 1380.61 328.351C1379.4 329.348 1378.36 330.475 1377.8 331.689C1376.68 334.247 1377.24 336.806 1377.67 338.106H1376.77C1376.33 338.106 1375.95 338.497 1375.95 338.93C1375.95 339.364 1376.33 339.754 1376.77 339.754H1377.41C1377.41 340.838 1377.41 341.965 1377.41 343.049V347.125C1376.72 347.299 1376.21 347.906 1376.21 348.686C1376.21 348.903 1376.25 349.163 1376.33 349.336H1374.78V307.321C1374.78 304.199 1372.36 301.598 1369.34 301.294C1369.51 300.861 1369.64 300.384 1369.64 299.863C1369.64 298.823 1369.17 297.869 1368.44 297.219V260.407C1369.43 260.407 1370.21 259.583 1370.21 258.585C1370.21 257.588 1369.39 256.764 1368.39 256.764H1366.36C1367.36 253.816 1368.57 248.179 1366.06 242.412C1364.9 239.724 1362.52 237.209 1359.85 234.998C1357.26 232.83 1354.32 230.965 1351.95 229.621C1352.08 229.274 1352.16 228.798 1352.21 228.277C1352.21 227.67 1352.16 226.933 1351.82 226.239C1351.47 225.502 1350.78 224.808 1350.05 224.201C1349.36 223.681 1348.58 223.204 1348.06 222.901L1347.98 221.643C1348.15 221.513 1348.28 221.383 1348.37 221.21C1348.45 220.993 1348.54 220.776 1348.54 220.559C1348.54 220.299 1348.49 220.039 1348.37 219.822C1348.24 219.649 1348.11 219.475 1347.93 219.345L1347.89 218.305C1347.98 218.174 1348.11 218.088 1348.15 217.958C1348.24 217.784 1348.28 217.611 1348.28 217.437C1348.28 217.221 1348.24 217.047 1348.11 216.83C1348.02 216.7 1347.89 216.57 1347.76 216.483L1347.72 215.313L1347.33 206.598C1347.33 206.511 1347.24 206.424 1347.11 206.424C1347.03 206.424 1346.94 206.511 1346.9 206.598L1346.51 215.313L1346.47 216.483C1346.34 216.57 1346.21 216.7 1346.16 216.83C1346.08 217.004 1345.99 217.221 1345.99 217.437C1345.99 217.654 1346.03 217.828 1346.12 217.958C1346.21 218.088 1346.29 218.218 1346.42 218.305L1346.38 219.345C1346.21 219.475 1346.03 219.649 1345.95 219.822C1345.82 220.039 1345.73 220.299 1345.73 220.559C1345.73 220.776 1345.82 221.036 1345.9 221.21C1345.99 221.383 1346.12 221.557 1346.25 221.643L1346.16 222.901C1345.6 223.204 1344.87 223.638 1344.18 224.201C1343.4 224.808 1342.71 225.502 1342.41 226.239C1342.11 226.976 1342.02 227.67 1342.02 228.277C1342.06 228.841 1342.15 229.274 1342.28 229.621C1339.91 230.965 1337.01 232.83 1334.38 234.998C1331.7 237.209 1329.33 239.724 1328.16 242.412C1325.66 248.179 1326.87 253.816 1327.86 256.764H1326.14C1325.14 256.764 1324.32 257.588 1324.32 258.585C1324.32 259.539 1325.1 260.363 1326.09 260.407V297.219C1325.36 297.869 1324.88 298.78 1324.88 299.863C1324.88 300.384 1325.01 300.861 1325.19 301.294C1322.12 301.598 1319.75 304.199 1319.75 307.321V378.604H1316.6C1316.51 378.04 1316.21 377.52 1315.82 377.173V352.372C1316.47 352.372 1316.99 351.808 1316.99 351.158C1316.99 350.464 1316.42 349.943 1315.78 349.943H1314.44C1315.09 347.949 1315.91 344.133 1314.22 340.274C1313.45 338.453 1311.85 336.762 1310.04 335.245C1308.27 333.814 1306.32 332.556 1304.73 331.646C1304.81 331.429 1304.86 331.082 1304.9 330.735C1304.9 330.345 1304.86 329.868 1304.64 329.348C1304.43 328.871 1303.95 328.351 1303.48 328.004C1303 327.613 1302.53 327.31 1302.14 327.137L1301.84 326.139C1301.92 326.052 1302.01 325.966 1302.05 325.836C1302.14 325.706 1302.18 325.576 1302.18 325.402C1302.18 325.229 1302.14 325.055 1302.05 324.925C1301.97 324.795 1301.88 324.665 1301.75 324.622L1301.71 323.885C1301.79 323.798 1301.84 323.754 1301.88 323.668C1301.97 323.581 1301.97 323.451 1301.97 323.321C1301.97 323.191 1301.92 323.017 1301.88 322.931C1301.84 322.801 1301.75 322.714 1301.66 322.67L1301.62 321.89L1301.36 316.036C1301.36 315.95 1301.27 315.906 1301.23 315.906C1301.15 315.906 1301.1 315.95 1301.1 316.036L1300.84 321.89L1300.8 322.67C1300.71 322.714 1300.63 322.801 1300.58 322.931C1300.5 323.017 1300.5 323.191 1300.5 323.321C1300.5 323.451 1300.5 323.581 1300.58 323.668C1300.63 323.754 1300.67 323.841 1300.76 323.885L1300.71 324.622C1300.58 324.708 1300.5 324.795 1300.41 324.925C1300.32 325.055 1300.28 325.229 1300.28 325.402C1300.28 325.576 1300.32 325.706 1300.41 325.836C1300.45 325.966 1300.54 326.052 1300.67 326.139L1300.63 326.963C1300.24 327.18 1299.76 327.483 1299.29 327.83C1298.77 328.221 1298.34 328.697 1298.08 329.174C1297.86 329.651 1297.82 330.128 1297.82 330.562C1297.82 330.952 1297.91 331.256 1297.99 331.472C1296.4 332.383 1294.45 333.64 1292.69 335.071C1290.87 336.546 1289.32 338.28 1288.5 340.101C1286.81 343.96 1287.59 347.776 1288.28 349.77H1287.16C1286.51 349.77 1285.95 350.334 1285.95 350.984C1285.95 351.634 1286.47 352.155 1287.12 352.198V377C1286.73 377.39 1286.43 377.867 1286.34 378.431H1283.36L1283.28 349.12H1283.88C1284.83 349.12 1285.65 348.339 1285.65 347.342C1285.65 346.388 1284.83 345.564 1283.88 345.564H1283.28L1283.15 320.979H1283.92C1284.79 320.979 1285.48 320.286 1285.48 319.419C1285.48 318.681 1284.96 318.074 1284.27 317.901V312.828V310.487H1284.92C1285.39 310.487 1285.74 310.096 1285.74 309.706C1285.74 309.229 1285.39 308.882 1284.92 308.882H1284.14C1284.57 307.538 1285.13 305.023 1284.01 302.465C1283.49 301.251 1282.41 300.124 1281.25 299.126C1280.08 298.172 1278.79 297.349 1277.71 296.698C1277.75 296.568 1277.79 296.351 1277.79 296.091C1277.79 295.788 1277.79 295.484 1277.62 295.181C1277.49 294.834 1277.15 294.53 1276.84 294.27C1276.54 294.01 1276.2 293.837 1275.94 293.663V293.099C1276.02 293.056 1276.07 292.969 1276.11 292.926C1276.15 292.839 1276.2 292.709 1276.2 292.622C1276.2 292.492 1276.2 292.406 1276.11 292.319C1276.07 292.232 1276.02 292.145 1275.94 292.145V291.669C1275.98 291.625 1276.02 291.582 1276.07 291.538C1276.11 291.452 1276.15 291.365 1276.15 291.278C1276.15 291.192 1276.11 291.105 1276.07 291.018C1276.02 290.975 1275.98 290.931 1275.94 290.845V290.324L1275.77 286.422C1275.77 286.379 1275.72 286.335 1275.68 286.335C1275.64 286.335 1275.59 286.379 1275.59 286.422L1275.42 290.324L1275.38 290.845C1275.33 290.888 1275.29 290.975 1275.25 291.018C1275.2 291.105 1275.16 291.192 1275.16 291.278C1275.16 291.365 1275.16 291.452 1275.2 291.538C1275.25 291.582 1275.29 291.669 1275.33 291.669V292.145C1275.25 292.189 1275.2 292.276 1275.16 292.319C1275.12 292.406 1275.07 292.536 1275.07 292.622C1275.07 292.709 1275.12 292.839 1275.16 292.926C1275.2 293.013 1275.25 293.056 1275.33 293.099L1275.29 293.663C1275.03 293.793 1274.69 294.01 1274.38 294.27C1274.04 294.53 1273.74 294.834 1273.61 295.181C1273.48 295.484 1273.43 295.831 1273.43 296.091C1273.43 296.351 1273.52 296.568 1273.56 296.698C1272.53 297.305 1271.19 298.129 1270.02 299.126C1268.82 300.124 1267.78 301.251 1267.26 302.465C1266.14 305.023 1266.66 307.581 1267.13 308.882H1266.23C1265.79 308.882 1265.45 309.229 1265.45 309.706C1265.45 310.14 1265.79 310.487 1266.23 310.487H1266.92C1266.92 311.614 1266.92 312.698 1266.92 313.782V317.858C1266.23 318.031 1265.71 318.638 1265.71 319.375C1265.71 320.242 1266.4 320.936 1267.26 320.936H1268L1267.87 345.521H1267.26C1266.31 345.521 1265.49 346.301 1265.49 347.299C1265.49 348.296 1266.27 349.076 1267.26 349.076H1267.87V351.288H1263.42C1264.97 347.082 1267.43 337.76 1263.29 328.264C1261.48 324.145 1257.81 320.242 1253.71 316.817C1249.69 313.478 1245.21 310.617 1241.58 308.535C1241.75 308.015 1241.93 307.278 1241.97 306.454C1242.01 305.5 1241.88 304.416 1241.41 303.289C1240.89 302.118 1239.85 301.034 1238.69 300.167C1237.61 299.343 1236.44 298.649 1235.62 298.173L1235.54 296.221C1235.75 296.048 1235.97 295.831 1236.1 295.528C1236.27 295.224 1236.36 294.877 1236.36 294.487C1236.36 294.097 1236.27 293.707 1236.06 293.36C1235.88 293.056 1235.67 292.839 1235.36 292.666L1235.28 291.018C1235.45 290.888 1235.58 290.715 1235.71 290.498C1235.84 290.238 1235.88 289.978 1235.88 289.674C1235.88 289.371 1235.8 289.067 1235.62 288.763C1235.49 288.547 1235.32 288.373 1235.11 288.2L1235.02 286.422L1234.42 273.284C1235.62 273.328 1236.92 273.024 1238.04 272.374C1239.25 271.68 1240.16 270.683 1240.72 269.512C1240.24 270.162 1239.64 270.683 1238.9 271.116C1235.97 272.807 1232.21 271.81 1230.49 268.862C1228.8 265.913 1229.8 262.098 1232.73 260.407C1233.47 259.973 1234.24 259.713 1235.02 259.626C1233.72 259.539 1232.43 259.843 1231.18 260.537C1227.94 262.444 1226.82 266.607 1228.67 269.902C1229.8 271.853 1231.65 273.024 1233.72 273.284L1233.12 286.465L1233.03 288.243C1232.82 288.373 1232.65 288.547 1232.52 288.807C1232.34 289.067 1232.26 289.371 1232.26 289.717C1232.26 290.021 1232.34 290.324 1232.47 290.541C1232.56 290.715 1232.73 290.931 1232.9 291.062L1232.82 292.709C1232.52 292.883 1232.3 293.143 1232.17 293.403C1232 293.75 1231.87 294.097 1231.87 294.53C1231.87 294.921 1231.95 295.224 1232.13 295.571C1232.26 295.831 1232.47 296.091 1232.69 296.265L1232.6 298.216C1231.74 298.693 1230.57 299.387 1229.54 300.21C1228.37 301.078 1227.29 302.162 1226.82 303.332C1226.34 304.46 1226.21 305.544 1226.26 306.497C1226.3 307.321 1226.47 308.058 1226.65 308.579C1225.44 309.272 1224.14 310.053 1222.76 310.92V297.435C1222.98 297.305 1223.11 297.089 1223.11 296.828C1223.11 296.482 1222.85 296.178 1222.5 296.091V294.14V293.793V293.706C1222.5 293.663 1222.5 293.576 1222.5 293.533V292.622H1222.8C1223.02 292.622 1223.19 292.449 1223.19 292.232C1223.19 292.015 1223.02 291.842 1222.8 291.842H1222.37C1222.59 291.235 1222.85 290.021 1222.29 288.807C1222.03 288.243 1221.55 287.723 1220.99 287.246C1220.43 286.812 1219.83 286.422 1219.31 286.119C1219.35 286.032 1219.35 285.945 1219.35 285.815C1219.35 285.685 1219.35 285.512 1219.27 285.382C1219.18 285.251 1219.05 285.078 1218.92 284.948C1218.75 284.861 1218.62 284.731 1218.49 284.688V284.428C1218.53 284.384 1218.53 284.384 1218.57 284.341C1218.57 284.298 1218.62 284.254 1218.62 284.211C1218.62 284.167 1218.62 284.081 1218.57 284.037C1218.57 283.994 1218.53 283.951 1218.53 283.951L1218.49 283.69C1218.53 283.69 1218.53 283.647 1218.57 283.604C1218.57 283.56 1218.57 283.517 1218.57 283.474C1218.57 283.43 1218.57 283.387 1218.53 283.344C1218.53 283.344 1218.49 283.3 1218.44 283.257V282.997L1218.36 281.132L1218.32 281.089L1218.19 282.953V283.214C1218.14 283.214 1218.14 283.257 1218.14 283.257C1218.1 283.3 1218.1 283.387 1218.1 283.387C1218.1 283.43 1218.1 283.474 1218.14 283.517C1218.14 283.517 1218.19 283.56 1218.19 283.604V283.821C1218.14 283.821 1218.1 283.864 1218.1 283.907C1218.06 283.951 1218.06 283.994 1218.06 284.081C1218.06 284.167 1218.06 284.167 1218.1 284.211C1218.1 284.254 1218.14 284.254 1218.19 284.297V284.558C1218.06 284.601 1217.88 284.731 1217.75 284.818C1217.58 284.948 1217.45 285.121 1217.37 285.251C1217.28 285.425 1217.28 285.555 1217.28 285.685C1217.32 285.815 1217.32 285.902 1217.32 285.989C1216.85 286.292 1216.2 286.682 1215.68 287.116C1215.12 287.593 1214.6 288.113 1214.34 288.677C1213.83 289.891 1214.09 291.105 1214.26 291.712H1213.91C1213.7 291.712 1213.52 291.885 1213.52 292.102C1213.52 292.319 1213.7 292.492 1213.91 292.492H1214.21V293.576V295.961C1213.91 296.048 1213.65 296.351 1213.65 296.698C1213.65 296.958 1213.78 297.175 1214 297.305V317.164C1210.2 320.372 1206.88 323.971 1205.11 327.787L1204.89 286.986H1205.88C1207.48 286.986 1208.82 285.642 1208.82 284.037C1208.82 282.433 1207.48 281.089 1205.88 281.089H1204.85L1204.63 240.114H1205.88C1207.31 240.114 1208.47 238.944 1208.47 237.513C1208.47 236.299 1207.65 235.258 1206.49 234.955V226.543V222.684H1207.57C1208.3 222.684 1208.91 222.077 1208.91 221.34C1208.91 220.603 1208.3 219.996 1207.57 219.996H1206.32C1207.05 217.784 1207.96 213.578 1206.1 209.286C1205.24 207.291 1203.47 205.384 1201.44 203.779C1199.5 202.175 1197.34 200.787 1195.57 199.79C1195.65 199.53 1195.74 199.183 1195.74 198.793C1195.74 198.316 1195.7 197.796 1195.48 197.275C1195.22 196.712 1194.71 196.191 1194.14 195.758C1193.63 195.324 1193.07 195.021 1192.68 194.804L1192.63 193.85C1192.76 193.763 1192.85 193.633 1192.94 193.503C1193.02 193.373 1193.07 193.2 1193.07 193.026C1193.07 192.853 1193.02 192.636 1192.94 192.506C1192.85 192.376 1192.72 192.246 1192.59 192.159L1192.55 191.378C1192.63 191.292 1192.72 191.205 1192.76 191.118C1192.81 190.988 1192.85 190.858 1192.85 190.728C1192.85 190.555 1192.81 190.425 1192.76 190.294C1192.68 190.208 1192.59 190.121 1192.5 190.034L1192.46 189.167L1192.16 182.663C1192.16 182.576 1192.07 182.533 1191.99 182.533C1191.9 182.533 1191.86 182.576 1191.86 182.663L1191.55 189.167L1191.51 190.034C1191.42 190.121 1191.34 190.208 1191.25 190.294C1191.17 190.425 1191.12 190.598 1191.12 190.728C1191.12 190.858 1191.17 190.988 1191.21 191.118C1191.25 191.205 1191.34 191.292 1191.43 191.378L1191.38 192.159C1191.25 192.246 1191.12 192.376 1191.04 192.506C1190.95 192.679 1190.91 192.853 1190.91 193.026C1190.91 193.2 1190.95 193.373 1191.04 193.503C1191.12 193.633 1191.21 193.763 1191.34 193.85L1191.3 194.804C1190.91 195.021 1190.35 195.367 1189.83 195.758C1189.27 196.191 1188.75 196.712 1188.49 197.275C1188.27 197.796 1188.23 198.316 1188.23 198.793C1188.23 199.183 1188.36 199.53 1188.4 199.79C1186.63 200.787 1184.48 202.175 1182.53 203.779C1180.55 205.427 1178.78 207.335 1177.91 209.286C1176.06 213.578 1176.92 217.784 1177.7 219.996H1176.19C1175.45 219.996 1174.85 220.603 1174.85 221.34C1174.85 222.077 1175.45 222.684 1176.19 222.684H1177.31V225.936C1177.31 226.109 1177.27 226.326 1177.27 226.543L1177.31 226.846V228.191V234.955C1176.15 235.215 1175.28 236.255 1175.28 237.513C1175.28 238.987 1176.45 240.114 1177.87 240.114H1179.12L1178.91 281.089H1177.87C1176.27 281.089 1174.94 282.433 1174.94 284.037C1174.94 285.685 1176.27 286.986 1177.87 286.986H1178.86L1178.69 314.909C1175.97 309.793 1171.31 304.98 1166.17 300.731C1160.52 296.048 1154.26 292.059 1149.17 289.11C1149.38 288.373 1149.6 287.376 1149.69 286.205C1149.73 284.861 1149.56 283.3 1148.91 281.783V281.739C1148.22 280.135 1146.71 278.617 1145.11 277.36C1143.64 276.189 1142 275.192 1140.79 274.542L1140.67 271.81C1141.01 271.55 1141.27 271.246 1141.44 270.856C1141.66 270.422 1141.79 269.946 1141.79 269.425C1141.79 268.862 1141.66 268.341 1141.36 267.864C1141.14 267.474 1140.79 267.127 1140.41 266.867L1140.32 264.569C1140.58 264.396 1140.75 264.092 1140.92 263.832C1141.1 263.485 1141.23 263.095 1141.23 262.661C1141.23 262.184 1141.1 261.794 1140.88 261.404C1140.71 261.1 1140.45 260.84 1140.15 260.623L1140.02 258.152L1139.2 239.767C1140.92 239.811 1142.65 239.421 1144.29 238.51C1145.97 237.513 1147.23 236.125 1148.05 234.478C1147.4 235.345 1146.54 236.125 1145.5 236.732C1141.36 239.117 1136.09 237.686 1133.72 233.567C1131.34 229.405 1132.72 224.115 1136.87 221.73C1137.9 221.123 1138.98 220.776 1140.06 220.646C1138.25 220.559 1136.39 220.949 1134.71 221.947C1130.13 224.592 1128.58 230.445 1131.21 235.041C1132.77 237.73 1135.4 239.421 1138.25 239.767L1137.43 258.238L1137.3 260.71C1137.04 260.883 1136.78 261.187 1136.56 261.49C1136.35 261.837 1136.22 262.271 1136.22 262.748C1136.22 263.181 1136.31 263.572 1136.48 263.919C1136.65 264.179 1136.87 264.439 1137.08 264.656L1137 266.954C1136.61 267.214 1136.26 267.561 1136.05 267.951C1135.79 268.428 1135.62 268.948 1135.62 269.512C1135.62 270.032 1135.74 270.509 1135.96 270.943C1136.13 271.333 1136.44 271.637 1136.74 271.897L1136.61 274.628C1135.4 275.279 1133.8 276.276 1132.29 277.447C1130.69 278.704 1129.18 280.222 1128.49 281.826C1127.85 283.344 1127.63 284.948 1127.72 286.292C1127.76 287.463 1128.02 288.46 1128.23 289.197C1123.14 292.146 1116.84 296.135 1111.23 300.817C1110.45 301.468 1109.63 302.161 1108.9 302.812L1108.81 287.896H1109.54C1110.41 287.896 1111.1 287.159 1111.1 286.335C1111.1 285.598 1110.58 284.991 1109.93 284.774V279.701V277.577H1110.58C1111.01 277.577 1111.4 277.187 1111.4 276.753C1111.4 276.319 1111.06 275.929 1110.58 275.929H1109.8C1110.28 274.628 1110.8 272.07 1109.67 269.512C1109.16 268.298 1108.08 267.171 1106.87 266.173C1105.7 265.219 1104.37 264.352 1103.33 263.745C1103.37 263.572 1103.42 263.355 1103.46 263.138C1103.46 262.835 1103.42 262.531 1103.29 262.184C1103.16 261.881 1102.85 261.534 1102.51 261.274C1102.21 261.013 1101.86 260.84 1101.6 260.667L1101.56 260.103C1101.65 260.06 1101.69 259.973 1101.73 259.886C1101.78 259.799 1101.82 259.713 1101.82 259.583C1101.82 259.453 1101.78 259.366 1101.73 259.236C1101.69 259.149 1101.6 259.106 1101.56 259.019L1101.52 258.542C1101.6 258.499 1101.6 258.412 1101.65 258.369C1101.69 258.282 1101.69 258.195 1101.69 258.108C1101.69 258.022 1101.65 257.935 1101.6 257.848C1101.56 257.762 1101.52 257.718 1101.47 257.675L1101.43 257.155L1101.26 253.252C1101.26 253.209 1101.21 253.166 1101.17 253.166C1101.13 253.166 1101.09 253.209 1101.09 253.252L1100.91 257.155V257.675C1100.87 257.718 1100.78 257.762 1100.74 257.848C1100.7 257.935 1100.65 258.022 1100.65 258.108C1100.65 258.195 1100.7 258.282 1100.74 258.369C1100.78 258.412 1100.83 258.455 1100.87 258.542V259.019C1100.78 259.062 1100.7 259.149 1100.65 259.236C1100.61 259.323 1100.57 259.453 1100.57 259.583C1100.57 259.669 1100.57 259.756 1100.65 259.886C1100.7 259.973 1100.74 260.06 1100.83 260.103V260.667C1100.57 260.797 1100.22 261.013 1099.92 261.274C1099.57 261.534 1099.27 261.881 1099.14 262.184C1099.01 262.488 1098.97 262.835 1098.97 263.095C1098.97 263.312 1099.01 263.528 1099.1 263.702C1098.06 264.309 1096.73 265.133 1095.56 266.13C1094.35 267.127 1093.32 268.255 1092.8 269.469C1091.68 272.027 1092.19 274.585 1092.67 275.886H1091.76C1091.33 275.886 1090.94 276.233 1090.94 276.71C1090.94 277.143 1091.33 277.533 1091.76 277.533H1092.45C1092.45 278.617 1092.45 279.745 1092.45 280.829V284.904C1091.76 285.078 1091.24 285.685 1091.24 286.465C1091.24 287.333 1091.93 288.026 1092.8 288.026H1093.57L1093.45 312.611H1092.84C1091.89 312.611 1091.07 313.392 1091.07 314.389C1091.07 315.386 1091.85 316.167 1092.84 316.167H1093.45L1093.36 349.206H1087.45L1087.36 324.969H1088.14C1089.43 324.969 1090.47 323.885 1090.47 322.627C1090.47 321.37 1089.43 320.286 1088.14 320.286H1087.32L1087.14 287.766H1088.14C1089.3 287.766 1090.21 286.812 1090.21 285.685C1090.21 284.731 1089.56 283.864 1088.61 283.69V277.013V273.935H1089.47C1090.04 273.935 1090.55 273.458 1090.55 272.851C1090.55 272.244 1090.04 271.81 1089.47 271.81H1088.18C1088.74 270.076 1089.47 266.694 1087.96 263.312C1087.27 261.751 1085.85 260.233 1084.29 258.932C1082.74 257.675 1081.01 256.548 1079.63 255.724C1079.68 255.55 1079.76 255.247 1079.76 254.943C1079.76 254.596 1079.72 254.163 1079.55 253.729C1079.37 253.296 1078.94 252.862 1078.51 252.515C1078.12 252.212 1077.65 251.908 1077.35 251.735L1077.3 250.997C1077.39 250.911 1077.47 250.824 1077.52 250.737C1077.56 250.607 1077.6 250.477 1077.6 250.347C1077.6 250.174 1077.56 250.044 1077.52 249.914C1077.43 249.827 1077.35 249.697 1077.26 249.653L1077.22 249.003C1077.3 248.96 1077.35 248.873 1077.39 248.786C1077.43 248.699 1077.47 248.569 1077.47 248.483C1077.47 248.353 1077.43 248.223 1077.39 248.136C1077.35 248.049 1077.26 247.962 1077.22 247.919L1077.17 247.225L1076.96 242.066C1076.96 241.979 1076.87 241.935 1076.83 241.935C1076.74 241.935 1076.74 241.979 1076.7 242.066L1076.48 247.225V247.919C1076.4 247.962 1076.31 248.049 1076.27 248.136C1076.22 248.223 1076.18 248.353 1076.18 248.483C1076.18 248.569 1076.22 248.699 1076.27 248.786C1076.31 248.873 1076.35 248.916 1076.44 249.003L1076.4 249.653C1076.31 249.697 1076.22 249.827 1076.14 249.914C1076.05 250.044 1076.05 250.174 1076.05 250.347C1076.05 250.477 1076.09 250.607 1076.14 250.737C1076.22 250.867 1076.27 250.954 1076.35 250.997L1076.31 251.735C1075.96 251.908 1075.53 252.168 1075.14 252.515C1074.71 252.862 1074.28 253.296 1074.11 253.729C1073.94 254.163 1073.85 254.596 1073.89 254.943C1073.89 255.247 1073.98 255.55 1074.07 255.724C1072.64 256.548 1070.96 257.632 1069.4 258.932C1067.81 260.233 1066.38 261.751 1065.73 263.312C1064.22 266.737 1064.96 270.076 1065.56 271.81H1064.35C1063.75 271.81 1063.27 272.287 1063.27 272.851C1063.27 273.414 1063.75 273.935 1064.35 273.935H1065.26C1065.26 275.409 1065.26 276.84 1065.26 278.314V283.69C1064.31 283.907 1063.62 284.731 1063.62 285.728C1063.62 286.899 1064.57 287.81 1065.69 287.81H1066.68L1066.55 309.056H1060.6V291.408C1060.6 288.113 1058.05 285.338 1054.81 285.035C1055.03 284.558 1055.16 284.037 1055.16 283.517C1055.16 282.39 1054.68 281.392 1053.91 280.699V241.675C1054.94 241.632 1055.76 240.808 1055.76 239.767C1055.76 238.727 1054.9 237.86 1053.86 237.86H1051.71C1052.74 234.738 1054.04 228.754 1051.4 222.641C1050.15 219.822 1047.65 217.09 1044.8 214.749C1042.04 212.451 1038.93 210.5 1036.43 209.069C1036.56 208.679 1036.64 208.202 1036.69 207.638C1036.73 206.988 1036.64 206.207 1036.3 205.47C1035.95 204.69 1035.22 203.953 1034.44 203.346C1033.71 202.782 1032.93 202.305 1032.33 201.958L1032.28 200.614C1032.46 200.484 1032.59 200.31 1032.67 200.137C1032.76 199.92 1032.84 199.703 1032.84 199.443C1032.84 199.183 1032.76 198.923 1032.63 198.706C1032.5 198.533 1032.37 198.359 1032.15 198.229L1032.11 197.102C1032.24 196.972 1032.33 196.885 1032.41 196.712C1032.5 196.538 1032.54 196.365 1032.54 196.148C1032.54 195.931 1032.5 195.714 1032.37 195.541C1032.28 195.411 1032.15 195.237 1032.02 195.151L1031.98 193.937L1031.55 184.701C1031.55 184.614 1031.46 184.528 1031.33 184.528C1031.2 184.528 1031.12 184.614 1031.12 184.701L1030.69 193.937L1030.64 195.151C1030.51 195.237 1030.38 195.368 1030.3 195.541C1030.21 195.714 1030.13 195.931 1030.13 196.148C1030.13 196.365 1030.17 196.538 1030.25 196.712C1030.34 196.842 1030.43 196.972 1030.56 197.102L1030.51 198.229C1030.3 198.359 1030.17 198.533 1030.04 198.706C1029.91 198.923 1029.82 199.183 1029.82 199.443C1029.82 199.703 1029.87 199.92 1030 200.137C1030.08 200.31 1030.21 200.484 1030.38 200.614L1030.34 201.958C1029.74 202.305 1028.96 202.739 1028.23 203.346C1027.41 203.953 1026.72 204.69 1026.37 205.47C1026.02 206.251 1025.94 206.988 1025.98 207.682C1026.02 208.245 1026.11 208.766 1026.24 209.112C1023.74 210.543 1020.63 212.538 1017.87 214.792C1015.02 217.134 1012.51 219.822 1011.26 222.684C1008.59 228.798 1009.88 234.781 1010.92 237.903H1009.1C1008.07 237.903 1007.21 238.77 1007.21 239.811C1007.21 240.851 1008.03 241.719 1009.06 241.719V280.742C1008.28 281.436 1007.81 282.433 1007.81 283.56C1007.81 284.124 1007.94 284.601 1008.16 285.078C1004.92 285.382 1002.37 288.156 1002.37 291.452V309.099H998.919V263.181H998.616C998.962 263.008 999.307 262.878 999.307 262.444C999.307 261.967 999.005 261.577 998.573 261.49V258.976V258.499V258.369C998.573 258.282 998.573 258.239 998.573 258.152V256.764H998.962C999.264 256.764 999.48 256.547 999.48 256.287C999.48 255.984 999.264 255.81 998.962 255.81H998.401C998.66 254.987 999.005 253.382 998.314 251.778C997.969 251.041 997.321 250.347 996.545 249.697C995.811 249.09 995.034 248.569 994.343 248.179C994.386 248.092 994.43 247.962 994.43 247.789C994.43 247.616 994.43 247.442 994.3 247.225C994.214 247.008 993.998 246.835 993.825 246.662C993.653 246.531 993.437 246.401 993.264 246.315V245.968C993.307 245.924 993.351 245.881 993.351 245.838C993.351 245.794 993.394 245.708 993.394 245.664C993.394 245.578 993.394 245.534 993.351 245.447C993.307 245.404 993.264 245.361 993.221 245.317V245.014C993.264 245.014 993.307 244.971 993.307 244.927C993.307 244.884 993.351 244.841 993.351 244.754C993.351 244.667 993.351 244.624 993.307 244.58C993.307 244.537 993.264 244.494 993.221 244.494V244.19L993.135 241.762C993.135 241.719 993.135 241.719 993.091 241.719C993.048 241.719 993.048 241.719 993.048 241.762L992.789 244.19V244.494C992.746 244.537 992.703 244.58 992.703 244.58C992.66 244.624 992.66 244.71 992.66 244.754C992.66 244.797 992.66 244.84 992.703 244.927C992.703 244.971 992.746 245.014 992.746 245.014V245.317C992.703 245.361 992.66 245.404 992.617 245.447C992.574 245.534 992.574 245.578 992.574 245.664C992.574 245.751 992.574 245.794 992.617 245.838C992.66 245.881 992.703 245.924 992.746 245.968V246.315C992.574 246.401 992.401 246.531 992.185 246.662C991.969 246.835 991.797 247.052 991.71 247.225C991.624 247.442 991.581 247.616 991.581 247.789C991.581 247.919 991.624 248.092 991.667 248.179C990.977 248.569 990.2 249.09 989.466 249.697C988.689 250.304 988.041 251.041 987.739 251.778C987.049 253.382 987.394 254.943 987.653 255.81H987.178C986.919 255.81 986.703 256.027 986.703 256.287C986.703 256.591 986.919 256.764 987.178 256.764H987.567V258.238V261.404C987.135 261.534 986.833 261.881 986.833 262.358C986.833 262.748 987.221 262.921 987.567 263.095H987.178V309.012H983.553L983.164 242.976H984.459C986.574 242.976 988.344 241.242 988.344 239.074C988.344 236.949 986.574 235.171 984.459 235.171H983.121L982.819 181.016H984.459C986.358 181.016 987.912 179.455 987.912 177.547C987.912 175.899 986.79 174.555 985.279 174.165V163.021V157.905H986.703C987.653 157.905 988.473 157.125 988.473 156.127C988.473 155.13 987.696 154.35 986.703 154.35H985.02C986.013 151.444 987.178 145.894 984.718 140.214C983.552 137.569 981.222 135.098 978.589 132.887C975.999 130.762 973.15 128.941 970.82 127.597C970.949 127.25 971.035 126.816 971.078 126.253C971.122 125.646 971.035 124.909 970.733 124.215C970.431 123.478 969.74 122.784 969.007 122.22C968.316 121.7 967.582 121.266 967.064 120.963L966.978 119.705C967.151 119.575 967.28 119.445 967.367 119.272C967.453 119.098 967.539 118.838 967.539 118.578C967.539 118.318 967.453 118.101 967.323 117.884C967.237 117.711 967.064 117.537 966.892 117.451L966.849 116.367C966.978 116.28 967.064 116.15 967.151 116.02C967.237 115.846 967.28 115.673 967.28 115.5C967.28 115.283 967.237 115.109 967.107 114.936C967.021 114.806 966.892 114.676 966.805 114.589L966.762 113.462L966.374 104.877C966.374 104.746 966.244 104.66 966.158 104.703C966.072 104.703 965.985 104.79 965.985 104.877L965.597 113.462L965.554 114.589C965.424 114.676 965.295 114.806 965.208 114.936C965.079 115.109 965.036 115.283 965.036 115.5C965.036 115.716 965.079 115.89 965.165 116.02C965.251 116.15 965.338 116.28 965.424 116.367L965.381 117.451C965.208 117.537 965.036 117.754 964.949 117.884C964.82 118.101 964.777 118.361 964.777 118.578C964.777 118.838 964.863 119.055 964.949 119.272C965.036 119.445 965.165 119.575 965.295 119.705L965.251 120.963C964.69 121.266 963.957 121.7 963.266 122.22C962.532 122.784 961.842 123.478 961.539 124.215C961.237 124.909 961.151 125.646 961.151 126.253C961.194 126.773 961.281 127.25 961.41 127.597C959.079 128.941 956.187 130.762 953.641 132.887C951.008 135.055 948.677 137.569 947.512 140.214C945.051 145.894 946.26 151.444 947.209 154.35H945.224C944.231 154.35 943.454 155.13 943.454 156.127C943.454 157.081 944.231 157.905 945.224 157.905H946.648V162.241C946.648 162.501 946.648 162.761 946.605 163.021L946.648 163.412V165.189V174.121C945.138 174.468 943.972 175.856 943.972 177.503C943.972 179.411 945.526 180.972 947.425 180.972H949.065L948.763 235.128H947.425C945.31 235.128 943.541 236.906 943.541 239.03C943.541 241.155 945.267 242.933 947.425 242.933H948.72L948.504 280.178C944.922 273.328 938.879 266.824 931.93 261.1C924.463 254.943 916.175 249.653 909.442 245.794C909.744 244.797 910.046 243.453 910.133 241.892C910.219 240.114 910.003 238.076 909.097 236.039C908.147 233.914 906.205 231.919 904.09 230.228C902.104 228.667 899.989 227.41 898.392 226.499L898.219 222.944C898.651 222.597 898.996 222.164 899.255 221.687C899.558 221.123 899.73 220.473 899.73 219.779C899.73 219.042 899.514 218.305 899.169 217.741C898.867 217.221 898.435 216.787 897.917 216.44L897.788 213.362C898.133 213.101 898.392 212.755 898.565 212.408C898.824 211.931 898.953 211.41 898.953 210.89C898.953 210.283 898.781 209.719 898.479 209.242C898.263 208.852 897.917 208.462 897.529 208.202L897.399 204.95L896.277 180.062C896.277 179.758 896.018 179.541 895.716 179.541C895.414 179.541 895.112 179.758 895.112 180.062L893.99 204.95L893.86 208.202C893.472 208.462 893.169 208.809 892.911 209.242C892.608 209.719 892.436 210.283 892.436 210.89C892.436 211.454 892.565 211.974 892.824 212.408C893.04 212.798 893.299 213.101 893.601 213.362L893.472 216.44C892.954 216.787 892.522 217.221 892.22 217.741C891.875 218.348 891.659 219.042 891.659 219.779C891.659 220.473 891.831 221.123 892.134 221.687C892.393 222.164 892.781 222.597 893.213 222.944L893.04 226.499C891.443 227.367 889.328 228.667 887.343 230.228C885.184 231.876 883.242 233.871 882.336 235.995C881.429 238.033 881.213 240.071 881.3 241.892C881.386 243.453 881.688 244.797 881.99 245.794C875.257 249.697 866.97 254.943 859.502 261.1C858.423 261.967 857.431 262.921 856.395 263.875L856.308 244.06H857.301C858.466 244.06 859.373 243.149 859.373 241.979C859.373 241.025 858.682 240.158 857.776 239.941V233.264V230.185H858.639C859.2 230.185 859.718 229.708 859.718 229.101C859.718 228.537 859.2 228.06 858.639 228.06H857.646C858.251 226.326 858.941 222.944 857.474 219.562C856.783 218.001 855.359 216.483 853.805 215.183C852.251 213.925 850.525 212.798 849.143 212.017C849.187 211.801 849.273 211.541 849.273 211.237C849.273 210.847 849.23 210.457 849.057 210.023C848.884 209.589 848.453 209.156 848.021 208.809C847.633 208.505 847.158 208.202 846.856 208.028L846.812 207.291C846.942 207.205 846.985 207.118 847.028 207.031C847.072 206.901 847.115 206.771 847.115 206.641C847.115 206.468 847.072 206.337 847.028 206.207C846.942 206.121 846.856 205.991 846.769 205.904L846.726 205.253C846.813 205.21 846.856 205.123 846.899 205.037C846.942 204.95 846.985 204.82 846.985 204.733C846.985 204.603 846.942 204.473 846.899 204.386C846.856 204.3 846.769 204.213 846.726 204.169L846.683 203.476L846.467 198.316C846.467 198.229 846.424 198.186 846.338 198.186C846.251 198.186 846.251 198.229 846.251 198.316L845.992 203.476V204.169C845.906 204.213 845.82 204.3 845.777 204.386C845.733 204.473 845.69 204.603 845.69 204.733C845.69 204.82 845.733 204.95 845.777 205.037C845.82 205.123 845.863 205.167 845.949 205.253L845.906 205.904C845.82 205.991 845.733 206.077 845.647 206.207C845.561 206.337 845.518 206.468 845.518 206.641C845.518 206.771 845.561 206.901 845.604 207.031C845.647 207.161 845.734 207.248 845.82 207.291L845.777 208.028C845.431 208.202 845 208.462 844.611 208.809C844.18 209.156 843.748 209.546 843.575 210.023C843.36 210.457 843.316 210.89 843.359 211.237C843.359 211.541 843.446 211.801 843.489 212.017C842.065 212.841 840.381 213.925 838.827 215.183C837.23 216.483 835.849 218.001 835.159 219.562C833.648 222.987 834.382 226.326 834.986 228.06H833.777C833.216 228.06 832.741 228.537 832.741 229.101C832.741 229.708 833.216 230.185 833.777 230.185H834.684C834.684 231.659 834.684 233.09 834.684 234.564V239.941C833.734 240.158 833.087 240.981 833.087 241.979C833.087 243.149 833.993 244.06 835.159 244.06H836.151L835.979 276.623H835.159C833.864 276.623 832.828 277.664 832.828 278.964C832.828 280.265 833.864 281.306 835.159 281.306H835.936L835.806 324.969H831.49V267.604H806.067C810.599 255.42 817.85 228.191 805.678 200.354C800.412 188.3 789.751 176.853 777.709 166.88C765.925 157.168 752.89 148.843 742.229 142.729C742.704 141.168 743.222 139.044 743.308 136.616C743.438 133.841 743.092 130.589 741.711 127.38L741.668 127.337C740.2 123.998 737.093 120.876 733.726 118.275C730.618 115.803 727.251 113.809 724.748 112.421L724.489 106.828C725.136 106.307 725.698 105.614 726.129 104.833C726.604 103.923 726.863 102.925 726.863 101.841C726.863 100.671 726.518 99.5434 725.956 98.5895C725.439 97.7656 724.791 97.0285 723.971 96.5082L723.755 91.652C724.273 91.2184 724.705 90.7414 725.007 90.1344C725.395 89.3973 725.611 88.5734 725.611 87.7063C725.611 86.7524 725.352 85.8418 724.877 85.1047C724.532 84.4543 723.971 83.8906 723.367 83.5004L723.151 78.3407L721.424 39.6208C725.007 39.7508 728.676 39.2305 732.042 37.3227C735.539 35.2848 738.215 32.3364 739.898 28.9544C738.517 30.7755 736.747 32.4231 734.589 33.6372C726 38.6235 714.993 35.6317 710.029 27.0032C705.066 18.3747 708.001 7.31807 716.633 2.33174C718.748 1.11768 721.036 0.337195 723.324 0.0336799C719.568 -0.183117 715.684 0.640746 712.188 2.67863C702.692 8.18527 699.411 20.4126 704.893 29.995C708.13 35.6317 713.698 38.7536 719.655 39.4907L717.885 78.3407L717.669 83.5004C717.065 83.934 716.547 84.4977 716.158 85.1047C715.727 85.8418 715.425 86.7524 715.425 87.7063C715.425 88.5734 715.641 89.3973 716.029 90.1344C716.331 90.7414 716.763 91.2184 717.281 91.652L717.065 96.5082C716.245 97.0285 715.597 97.7223 715.079 98.5895C714.518 99.5434 714.216 100.671 714.216 101.841C714.216 102.882 714.475 103.923 714.95 104.833C715.382 105.57 715.943 106.264 716.633 106.828L716.374 112.421C713.871 113.809 710.504 115.847 707.396 118.275C703.987 120.92 700.922 124.041 699.454 127.337C698.03 130.589 697.685 133.841 697.814 136.659C697.944 139.087 698.419 141.212 698.893 142.773C688.275 148.886 675.197 157.211 663.413 166.924C651.371 176.853 640.71 188.3 635.444 200.397C623.229 228.277 630.523 255.464 635.055 267.648H607.345V325.012H603.029L602.899 281.349H603.46C604.755 281.349 605.791 280.308 605.791 279.008C605.791 277.75 604.755 276.666 603.46 276.666H602.64L602.467 244.103H603.46C604.626 244.103 605.532 243.193 605.532 242.022C605.532 241.025 604.885 240.201 603.935 239.984V234.608C603.935 233.133 603.935 231.703 603.935 230.228H604.798C605.359 230.228 605.834 229.751 605.834 229.144C605.834 228.581 605.359 228.104 604.798 228.104H603.59C604.194 226.369 604.928 222.987 603.417 219.605C602.726 218.044 601.302 216.527 599.748 215.226C598.194 213.969 596.468 212.841 595.087 212.061C595.173 211.844 595.216 211.584 595.216 211.28C595.259 210.89 595.216 210.5 595 210.066C594.828 209.633 594.396 209.199 593.964 208.852C593.576 208.549 593.101 208.245 592.799 208.072L592.756 207.335C592.842 207.248 592.928 207.161 592.972 207.074C593.058 206.944 593.101 206.814 593.101 206.684C593.101 206.511 593.058 206.381 592.972 206.251C592.928 206.164 592.842 206.034 592.713 205.947L592.669 205.297C592.756 205.253 592.799 205.167 592.842 205.08C592.885 204.993 592.928 204.863 592.928 204.776C592.928 204.646 592.885 204.516 592.842 204.43C592.799 204.343 592.713 204.256 592.626 204.213V203.519L592.367 198.359C592.367 198.273 592.324 198.229 592.281 198.229C592.238 198.229 592.152 198.273 592.152 198.359L591.936 203.519L591.893 204.213C591.806 204.256 591.763 204.343 591.72 204.43C591.677 204.516 591.634 204.646 591.634 204.776C591.634 204.863 591.634 204.993 591.72 205.08C591.763 205.167 591.849 205.21 591.893 205.297L591.849 205.947C591.763 206.034 591.677 206.121 591.59 206.251C591.504 206.381 591.504 206.511 591.504 206.684C591.504 206.814 591.547 206.944 591.59 207.074C591.634 207.205 591.72 207.291 591.806 207.335L591.763 208.072C591.418 208.245 590.986 208.505 590.598 208.852C590.123 209.199 589.734 209.589 589.562 210.066C589.389 210.5 589.346 210.933 589.346 211.28C589.346 211.584 589.432 211.844 589.475 212.061C588.094 212.885 586.368 213.969 584.814 215.226C583.217 216.527 581.836 218.044 581.145 219.605C579.634 223.031 580.368 226.369 580.929 228.104H579.936C579.375 228.104 578.857 228.581 578.857 229.144C578.857 229.751 579.375 230.228 579.936 230.228H580.8V233.307V239.984C579.893 240.201 579.203 241.025 579.203 242.022C579.203 243.193 580.152 244.103 581.274 244.103H582.267L582.181 263.919C581.145 263.008 580.152 262.054 579.073 261.144C571.606 254.987 563.319 249.697 556.585 245.838C556.888 244.84 557.19 243.496 557.276 241.935C557.362 240.158 557.146 238.12 556.24 236.039C555.334 233.914 553.348 231.963 551.233 230.272C549.248 228.711 547.133 227.453 545.536 226.543L545.363 222.987C545.795 222.641 546.14 222.207 546.442 221.73C546.744 221.166 546.917 220.516 546.917 219.822C546.917 219.085 546.701 218.348 546.356 217.784C546.054 217.264 545.622 216.83 545.104 216.483L544.974 213.405C545.277 213.145 545.579 212.798 545.751 212.451C546.01 211.974 546.14 211.454 546.14 210.933C546.14 210.326 545.967 209.763 545.665 209.286C545.406 208.896 545.104 208.505 544.716 208.245L544.586 204.993L543.464 180.105C543.464 179.801 543.205 179.541 542.859 179.585C542.557 179.585 542.342 179.845 542.298 180.105L541.176 204.993L541.047 208.245C540.658 208.505 540.313 208.852 540.097 209.286C539.795 209.763 539.622 210.326 539.622 210.933C539.622 211.497 539.752 212.017 540.011 212.451C540.227 212.841 540.486 213.145 540.788 213.405L540.658 216.483C540.14 216.83 539.709 217.264 539.406 217.784C539.061 218.391 538.845 219.085 538.845 219.822C538.845 220.516 539.018 221.166 539.32 221.73C539.579 222.207 539.924 222.641 540.356 222.987L540.183 226.543C538.586 227.41 536.471 228.711 534.486 230.272C532.371 231.919 530.385 233.914 529.479 236.039C528.573 238.076 528.357 240.158 528.443 241.935C528.529 243.496 528.832 244.84 529.134 245.838C522.4 249.74 514.113 254.987 506.646 261.144C499.74 266.867 493.654 273.371 490.071 280.222L489.856 242.976H491.15C493.309 242.976 495.035 241.242 495.035 239.074C495.035 236.949 493.309 235.171 491.15 235.171H489.812L489.51 181.016H491.15C493.05 181.016 494.603 179.455 494.603 177.547C494.603 175.899 493.481 174.512 491.927 174.165V165.233V163.455L491.97 163.065C491.927 162.805 491.927 162.544 491.927 162.284V157.948H493.352C494.344 157.948 495.121 157.168 495.121 156.171C495.121 155.173 494.344 154.393 493.352 154.393H491.366C492.359 151.488 493.524 145.938 491.064 140.258C489.899 137.613 487.568 135.141 484.935 132.93C482.345 130.805 479.496 128.984 477.166 127.64C477.252 127.293 477.381 126.86 477.425 126.296C477.425 125.689 477.381 124.952 477.036 124.258C476.734 123.521 476.043 122.827 475.31 122.264C474.619 121.743 473.885 121.31 473.324 121.006L473.281 119.749C473.41 119.619 473.54 119.489 473.669 119.315C473.756 119.142 473.842 118.882 473.842 118.621C473.842 118.361 473.756 118.145 473.669 117.928C473.583 117.754 473.41 117.581 473.238 117.494L473.195 116.41C473.281 116.323 473.367 116.193 473.454 116.063C473.54 115.89 473.583 115.716 473.583 115.543C473.583 115.326 473.54 115.153 473.41 114.979C473.324 114.849 473.238 114.719 473.065 114.632L473.022 113.505L472.634 104.92C472.634 104.79 472.547 104.747 472.461 104.747C472.375 104.747 472.245 104.833 472.245 104.92L471.857 113.505L471.813 114.632C471.684 114.719 471.598 114.849 471.511 114.979C471.425 115.153 471.339 115.326 471.339 115.543C471.339 115.76 471.382 115.933 471.468 116.063C471.554 116.193 471.641 116.323 471.77 116.41L471.727 117.494C471.554 117.581 471.425 117.798 471.295 117.928C471.166 118.145 471.08 118.405 471.08 118.621C471.08 118.882 471.123 119.098 471.252 119.315C471.339 119.489 471.468 119.619 471.641 119.749L471.554 121.006C470.993 121.31 470.303 121.743 469.612 122.264C468.878 122.827 468.188 123.521 467.886 124.258C467.583 124.952 467.497 125.689 467.54 126.296C467.54 126.816 467.67 127.293 467.799 127.64C465.468 128.984 462.62 130.805 460.03 132.93C457.397 135.098 455.066 137.613 453.901 140.258C451.441 145.938 452.606 151.488 453.599 154.393H451.915C450.923 154.393 450.146 155.173 450.146 156.171C450.146 157.125 450.923 157.948 451.915 157.948H453.34V163.065V174.208C451.829 174.555 450.707 175.943 450.707 177.59C450.707 179.498 452.261 181.059 454.16 181.059H455.8L455.498 235.215H454.16C452.045 235.215 450.275 236.992 450.275 239.117C450.275 241.242 452.045 243.019 454.16 243.019H455.455L455.066 309.056H451.441V263.138H451.138C451.484 262.965 451.829 262.835 451.829 262.401C451.829 261.924 451.527 261.534 451.095 261.447V258.282V256.764H451.484C451.743 256.764 451.958 256.547 451.958 256.287C451.958 255.984 451.743 255.81 451.484 255.81H451.009C451.268 254.987 451.613 253.382 450.923 251.778C450.577 251.041 449.93 250.347 449.196 249.697C448.462 249.09 447.642 248.569 446.995 248.179C447.038 248.092 447.081 247.962 447.081 247.789C447.081 247.616 447.081 247.442 446.995 247.225C446.908 247.008 446.693 246.835 446.52 246.662C446.304 246.531 446.132 246.401 445.959 246.315V245.968C446.002 245.924 446.045 245.881 446.088 245.838C446.088 245.794 446.132 245.708 446.132 245.664C446.132 245.578 446.132 245.534 446.088 245.447C446.045 245.404 446.002 245.361 445.959 245.317V245.014C446.002 245.014 446.045 244.971 446.045 244.927C446.045 244.884 446.088 244.841 446.088 244.754C446.088 244.667 446.088 244.624 446.045 244.58C446.045 244.537 446.002 244.494 445.959 244.494V244.19L445.873 241.762C445.786 241.762 445.786 241.719 445.786 241.762L445.7 244.19V244.494C445.657 244.537 445.614 244.58 445.614 244.58C445.57 244.624 445.57 244.71 445.57 244.754C445.57 244.797 445.57 244.84 445.614 244.927C445.614 244.971 445.657 245.014 445.7 245.014V245.317C445.657 245.361 445.614 245.404 445.57 245.447C445.527 245.534 445.527 245.578 445.527 245.664C445.527 245.751 445.527 245.794 445.57 245.838C445.614 245.881 445.657 245.924 445.657 245.968V246.315C445.527 246.401 445.311 246.531 445.096 246.662C444.88 246.835 444.707 247.052 444.621 247.225C444.534 247.442 444.534 247.616 444.534 247.789C444.534 247.919 444.578 248.092 444.621 248.179C443.93 248.569 443.153 249.09 442.42 249.697C441.686 250.304 440.995 251.041 440.693 251.778C440.002 253.382 440.348 254.943 440.607 255.81H440.046C439.743 255.81 439.528 256.027 439.528 256.287C439.528 256.591 439.743 256.764 440.046 256.764H440.434V258.022C440.434 258.108 440.434 258.152 440.434 258.238V258.369V258.846V261.36C440.002 261.49 439.657 261.837 439.657 262.314C439.657 262.704 440.046 262.878 440.391 263.051H440.089V308.969H436.636V291.322C436.636 287.983 434.089 285.251 430.852 284.948C431.068 284.471 431.197 283.951 431.197 283.43C431.197 282.303 430.722 281.306 429.945 280.612V241.589C430.981 241.545 431.801 240.721 431.801 239.681C431.801 238.64 430.938 237.773 429.902 237.773H428.089C429.125 234.651 430.42 228.667 427.787 222.554C426.536 219.735 424.032 217.004 421.183 214.662C418.421 212.364 415.313 210.413 412.81 208.982C412.939 208.592 413.026 208.115 413.069 207.551C413.112 206.901 413.026 206.121 412.68 205.34C412.335 204.56 411.601 203.823 410.781 203.216C410.047 202.652 409.27 202.175 408.666 201.828L408.623 200.484C408.796 200.354 408.925 200.18 409.011 200.007C409.141 199.79 409.184 199.573 409.184 199.313C409.184 199.053 409.098 198.793 408.968 198.576C408.839 198.403 408.709 198.229 408.493 198.099L408.45 196.972C408.58 196.842 408.666 196.755 408.752 196.582C408.839 196.408 408.882 196.235 408.882 196.018C408.882 195.801 408.796 195.584 408.709 195.411C408.623 195.281 408.493 195.107 408.364 195.021L408.321 193.807L407.932 184.571C407.932 184.441 407.803 184.354 407.717 184.398C407.63 184.398 407.544 184.484 407.501 184.571L407.112 193.807L407.069 195.021C406.94 195.107 406.81 195.237 406.724 195.411C406.637 195.584 406.551 195.801 406.551 196.018C406.551 196.235 406.594 196.408 406.681 196.582C406.767 196.712 406.853 196.842 406.983 196.972L406.94 198.099C406.767 198.229 406.594 198.403 406.465 198.576C406.335 198.793 406.249 199.053 406.249 199.313C406.249 199.573 406.335 199.79 406.422 200.007C406.508 200.18 406.638 200.354 406.81 200.484L406.767 201.828C406.163 202.175 405.386 202.609 404.652 203.216C403.875 203.823 403.141 204.56 402.796 205.34C402.451 206.121 402.364 206.858 402.408 207.508C402.451 208.072 402.537 208.592 402.666 208.939C400.163 210.37 397.055 212.364 394.293 214.619C391.444 216.96 388.941 219.649 387.689 222.51C385.013 228.624 386.308 234.608 387.344 237.73H385.186C384.15 237.73 383.286 238.597 383.286 239.637C383.286 240.678 384.106 241.545 385.142 241.545V280.569C384.365 281.262 383.891 282.26 383.891 283.387C383.891 283.951 384.02 284.428 384.236 284.904C380.999 285.208 378.452 287.983 378.452 291.278V308.926H372.496L372.366 287.68H373.359C374.524 287.68 375.431 286.726 375.431 285.598C375.431 284.601 374.74 283.777 373.834 283.56V278.184C373.834 276.71 373.834 275.279 373.834 273.805H374.697C375.301 273.805 375.776 273.328 375.776 272.721C375.776 272.113 375.301 271.68 374.697 271.68H372.97C373.575 269.946 374.309 266.564 372.798 263.181C372.107 261.621 370.683 260.103 369.129 258.802C367.575 257.545 365.892 256.417 364.467 255.594C364.554 255.42 364.597 255.117 364.64 254.813C364.64 254.466 364.597 254.033 364.424 253.599C364.252 253.165 363.82 252.732 363.388 252.385C363 252.081 362.525 251.778 362.223 251.605L362.18 250.867C362.266 250.781 362.352 250.694 362.396 250.607C362.439 250.477 362.482 250.347 362.482 250.217C362.482 250.044 362.439 249.914 362.396 249.783C362.309 249.697 362.223 249.567 362.137 249.523L362.093 248.873C362.18 248.83 362.223 248.743 362.266 248.656C362.309 248.569 362.352 248.439 362.352 248.353C362.352 248.223 362.309 248.092 362.266 248.006C362.223 247.919 362.137 247.832 362.05 247.789V247.095L361.748 242.022C361.748 241.935 361.705 241.892 361.619 241.892C361.575 241.892 361.532 241.935 361.489 242.022L361.273 247.182L361.23 247.876C361.144 247.919 361.101 248.006 361.057 248.092C361.014 248.179 360.971 248.309 360.971 248.439C360.971 248.526 360.971 248.656 361.057 248.743C361.101 248.83 361.187 248.873 361.23 248.96L361.187 249.61C361.101 249.653 361.014 249.783 360.928 249.87C360.842 250 360.842 250.13 360.842 250.304C360.842 250.434 360.885 250.564 360.928 250.694C360.971 250.824 361.057 250.911 361.144 250.954L361.101 251.691C360.755 251.865 360.324 252.125 359.935 252.472C359.46 252.819 359.072 253.252 358.899 253.686C358.727 254.119 358.684 254.553 358.684 254.9C358.684 255.203 358.77 255.507 358.813 255.68C357.432 256.504 355.705 257.588 354.151 258.889C352.554 260.19 351.173 261.707 350.483 263.268C348.972 266.694 349.706 270.032 350.267 271.767H349.231C348.67 271.767 348.152 272.244 348.152 272.807C348.152 273.371 348.627 273.891 349.231 273.891H350.094V276.97V283.647C349.188 283.864 348.497 284.688 348.497 285.642C348.497 286.812 349.447 287.723 350.569 287.723H351.562L351.389 320.242H350.569C349.274 320.242 348.238 321.283 348.238 322.584C348.238 323.885 349.274 324.925 350.569 324.925H351.346L351.259 349.163H345.821V317.684C346.123 317.467 346.296 317.164 346.296 316.817C346.296 316.34 345.951 315.906 345.519 315.82V313.175V312.698V312.568C345.519 312.481 345.519 312.394 345.519 312.351V311.094H345.95C346.253 311.094 346.468 310.833 346.468 310.573C346.468 310.27 346.253 310.053 345.95 310.053H345.346C345.648 309.186 345.994 307.538 345.26 305.847C344.915 305.067 344.224 304.329 343.447 303.679C342.67 303.029 341.807 302.508 341.116 302.118C341.159 301.988 341.203 301.901 341.203 301.728C341.203 301.555 341.203 301.338 341.116 301.121C341.03 300.904 340.814 300.687 340.598 300.514C340.382 300.34 340.167 300.21 339.994 300.124V299.733C340.037 299.69 340.08 299.647 340.08 299.603C340.123 299.56 340.124 299.473 340.124 299.43C340.124 299.343 340.123 299.3 340.08 299.213C340.037 299.17 339.994 299.126 339.951 299.083V298.78C339.994 298.736 340.037 298.693 340.037 298.693C340.037 298.649 340.08 298.563 340.08 298.519C340.08 298.476 340.08 298.389 340.037 298.346C339.994 298.303 339.951 298.259 339.908 298.259V297.912L339.821 295.354C339.821 295.311 339.778 295.311 339.778 295.311C339.735 295.311 339.692 295.311 339.692 295.354L339.606 297.912V298.259C339.562 298.259 339.519 298.303 339.476 298.346C339.476 298.389 339.433 298.433 339.433 298.519C339.433 298.563 339.433 298.649 339.476 298.693C339.476 298.736 339.519 298.78 339.562 298.78V299.083C339.519 299.126 339.476 299.17 339.433 299.213C339.39 299.3 339.347 299.343 339.347 299.43C339.347 299.517 339.347 299.56 339.39 299.603C339.39 299.647 339.476 299.69 339.476 299.733V300.124C339.303 300.21 339.088 300.34 338.872 300.514C338.656 300.687 338.44 300.904 338.354 301.121C338.267 301.338 338.224 301.555 338.267 301.728C338.267 301.901 338.311 302.031 338.354 302.118C337.663 302.508 336.8 303.072 336.023 303.679C335.246 304.329 334.555 305.067 334.21 305.847C333.476 307.538 333.822 309.186 334.124 310.053H333.649C333.347 310.053 333.131 310.27 333.131 310.573C333.131 310.877 333.347 311.094 333.649 311.094H334.038V312.611V315.906C333.606 316.036 333.261 316.427 333.261 316.904C333.261 317.251 333.433 317.554 333.735 317.771V349.25H332.527C332.656 349.076 332.699 348.816 332.699 348.599C332.699 347.862 332.181 347.255 331.491 347.038V342.009V339.711H332.138C332.57 339.711 332.958 339.32 332.958 338.887C332.958 338.453 332.57 338.063 332.138 338.063H331.405C331.836 336.762 332.397 334.204 331.275 331.646C330.757 330.432 329.678 329.305 328.47 328.307C327.304 327.353 326.009 326.53 324.93 325.879C324.973 325.706 325.016 325.489 325.016 325.272C325.016 324.969 325.016 324.665 324.844 324.361C324.714 324.015 324.369 323.711 324.067 323.451C323.765 323.234 323.419 323.017 323.16 322.887V322.324C323.247 322.28 323.29 322.194 323.333 322.107C323.376 322.02 323.419 321.933 323.419 321.803C323.419 321.673 323.419 321.586 323.333 321.5C323.29 321.413 323.247 321.326 323.16 321.283V320.806C323.204 320.763 323.247 320.719 323.29 320.633C323.333 320.546 323.333 320.459 323.333 320.416C323.333 320.329 323.333 320.242 323.247 320.156C323.204 320.112 323.16 320.026 323.117 319.982V319.462L322.945 315.56C322.945 315.516 322.901 315.473 322.858 315.473C322.815 315.473 322.772 315.516 322.772 315.56L322.599 319.462L322.556 319.982C322.513 320.026 322.47 320.069 322.427 320.156C322.384 320.242 322.34 320.329 322.34 320.416C322.34 320.503 322.34 320.589 322.384 320.633C322.427 320.719 322.47 320.763 322.513 320.806V321.283C322.427 321.326 322.384 321.413 322.34 321.5C322.297 321.586 322.254 321.673 322.254 321.803C322.254 321.89 322.297 322.02 322.34 322.107C322.384 322.194 322.47 322.237 322.513 322.324V322.887C322.254 323.017 321.952 323.234 321.607 323.451C321.261 323.711 320.959 324.015 320.83 324.361C320.7 324.665 320.614 325.012 320.657 325.272C320.657 325.489 320.743 325.706 320.787 325.879C319.707 326.486 318.413 327.31 317.247 328.307C316.039 329.305 315.003 330.432 314.442 331.646C313.319 334.204 313.88 336.762 314.312 338.063H313.406C312.974 338.063 312.629 338.453 312.629 338.887C312.629 339.32 312.974 339.711 313.406 339.711H314.096C314.096 340.795 314.096 341.922 314.096 343.006V347.082C313.406 347.255 312.888 347.862 312.888 348.643C312.888 348.86 312.931 349.12 313.017 349.293H311.679C311.809 349.12 311.809 348.86 311.809 348.643C311.809 347.906 311.334 347.299 310.643 347.082V342.052V339.754H311.291C311.722 339.754 312.111 339.364 312.111 338.93C312.111 338.497 311.722 338.106 311.291 338.106H310.557C310.989 336.806 311.55 334.247 310.427 331.689C309.909 330.475 308.83 329.348 307.622 328.351C306.456 327.397 305.162 326.573 304.082 325.922C304.126 325.749 304.169 325.532 304.169 325.315C304.169 325.012 304.169 324.708 303.996 324.405C303.824 324.058 303.521 323.755 303.219 323.494C302.917 323.278 302.572 323.061 302.313 322.931V322.367C302.399 322.324 302.442 322.237 302.485 322.15C302.529 322.063 302.572 321.977 302.572 321.847C302.572 321.717 302.529 321.63 302.485 321.543C302.442 321.456 302.399 321.37 302.313 321.326V320.849C302.356 320.806 302.399 320.763 302.442 320.676C302.485 320.589 302.485 320.503 302.485 320.459C302.485 320.372 302.485 320.286 302.399 320.199C302.356 320.156 302.313 320.069 302.27 320.026L302.226 319.505L302.054 315.603C302.054 315.56 302.011 315.516 301.967 315.516C301.967 315.516 301.881 315.56 301.881 315.603L301.665 319.505V320.026C301.622 320.069 301.579 320.112 301.536 320.199C301.493 320.286 301.45 320.372 301.45 320.459C301.45 320.546 301.45 320.633 301.493 320.676C301.536 320.719 301.579 320.806 301.622 320.849V321.326C301.536 321.37 301.493 321.456 301.45 321.543C301.406 321.63 301.363 321.717 301.363 321.847C301.363 321.933 301.363 322.063 301.45 322.15C301.493 322.237 301.579 322.28 301.622 322.367V322.931C301.363 323.061 301.018 323.278 300.716 323.494C300.37 323.755 300.068 324.058 299.939 324.405C299.809 324.708 299.766 325.055 299.766 325.315C299.766 325.532 299.853 325.749 299.853 325.922C298.817 326.529 297.479 327.353 296.313 328.351C295.105 329.348 294.069 330.475 293.551 331.689C292.428 334.247 292.946 336.806 293.421 338.106H292.515C292.083 338.106 291.695 338.497 291.695 338.93C291.695 339.364 292.083 339.754 292.515 339.754H293.205C293.205 340.838 293.205 341.965 293.205 343.049V347.125C292.515 347.299 291.997 347.906 291.997 348.686C291.997 348.903 292.04 349.163 292.126 349.336H290.572V307.321C290.572 304.199 288.155 301.598 285.134 301.294C285.35 300.861 285.436 300.384 285.436 299.863C285.436 298.823 284.961 297.869 284.228 297.219V260.407C285.22 260.407 285.997 259.583 285.997 258.585C285.997 257.588 285.177 256.764 284.184 256.764H281.767C282.76 253.816 283.969 248.179 281.465 242.412C280.3 239.724 277.926 237.209 275.25 234.998C272.66 232.83 269.725 230.965 267.351 229.621C267.48 229.274 267.567 228.798 267.61 228.277C267.61 227.67 267.567 226.933 267.221 226.239C266.876 225.502 266.185 224.808 265.452 224.201C264.761 223.681 264.027 223.204 263.466 222.901L263.38 221.643C263.553 221.513 263.639 221.383 263.768 221.21C263.898 220.993 263.941 220.776 263.941 220.559C263.941 220.299 263.898 220.039 263.725 219.822C263.639 219.649 263.466 219.475 263.294 219.345V218.174C263.423 218.044 263.509 217.958 263.553 217.828C263.639 217.654 263.682 217.481 263.682 217.307C263.682 217.09 263.639 216.917 263.509 216.7C263.423 216.57 263.337 216.44 263.164 216.353L263.121 215.183L262.776 206.467C262.776 206.381 262.689 206.294 262.56 206.294C262.473 206.294 262.387 206.381 262.344 206.467L261.955 215.183L261.912 216.353C261.783 216.44 261.653 216.57 261.61 216.7C261.524 216.874 261.438 217.09 261.438 217.307C261.438 217.524 261.481 217.698 261.567 217.828C261.653 217.958 261.74 218.088 261.869 218.174L261.826 219.215C261.653 219.345 261.481 219.519 261.394 219.692C261.265 219.909 261.222 220.169 261.222 220.429C261.222 220.646 261.308 220.906 261.394 221.08C261.481 221.253 261.61 221.426 261.783 221.513L261.61 222.771C261.049 223.074 260.315 223.508 259.625 224.071C258.848 224.678 258.157 225.372 257.855 226.109C257.553 226.846 257.467 227.54 257.467 228.147C257.51 228.711 257.596 229.144 257.726 229.491C255.352 230.835 252.46 232.7 249.827 234.868C247.151 237.079 244.777 239.594 243.611 242.282C241.108 248.049 242.316 253.686 243.309 256.634H241.583C240.59 256.634 239.77 257.458 239.77 258.455C239.77 259.409 240.547 260.233 241.539 260.276V297.088C240.806 297.739 240.331 298.649 240.331 299.733C240.331 300.254 240.46 300.731 240.633 301.164C237.568 301.468 235.195 304.069 235.195 307.191V378.474H232.087C232 377.91 231.698 377.39 231.31 377.043V352.242C231.957 352.242 232.475 351.678 232.475 351.028C232.475 350.334 231.914 349.813 231.267 349.813H229.886C230.576 347.819 231.353 344.003 229.67 340.144C228.893 338.323 227.296 336.632 225.483 335.115C223.713 333.684 221.771 332.426 220.174 331.516C220.26 331.299 220.303 330.952 220.346 330.605C220.346 330.215 220.303 329.738 220.088 329.218C219.872 328.741 219.397 328.221 218.922 327.874C218.447 327.483 217.929 327.18 217.584 327.006L217.541 326.139C217.627 326.052 217.714 325.966 217.757 325.836C217.843 325.706 217.886 325.576 217.886 325.402C217.886 325.229 217.843 325.055 217.757 324.925C217.67 324.795 217.584 324.665 217.455 324.622L217.411 323.885C217.498 323.798 217.541 323.754 217.584 323.668C217.67 323.581 217.67 323.451 217.67 323.321C217.67 323.191 217.627 323.017 217.584 322.931C217.541 322.801 217.455 322.714 217.368 322.67L217.325 321.89L217.066 316.036C217.066 315.95 216.98 315.906 216.937 315.906C216.85 315.906 216.807 315.95 216.807 316.036L216.548 321.89V322.67C216.462 322.714 216.376 322.801 216.332 322.931C216.246 323.017 216.246 323.191 216.246 323.321C216.246 323.451 216.246 323.581 216.332 323.668C216.376 323.754 216.419 323.841 216.505 323.885L216.462 324.622C216.332 324.708 216.246 324.795 216.16 324.925C216.073 325.055 216.03 325.229 216.03 325.402C216.03 325.576 216.073 325.706 216.16 325.836C216.203 325.966 216.289 326.052 216.419 326.139L216.332 327.006C215.944 327.223 215.469 327.527 214.994 327.874C214.476 328.264 214.002 328.741 213.786 329.218C213.57 329.695 213.527 330.172 213.527 330.605C213.527 330.995 213.613 331.299 213.699 331.516C212.102 332.426 210.16 333.684 208.39 335.115C206.578 336.589 204.981 338.323 204.204 340.144C202.52 344.003 203.34 347.819 203.988 349.813H202.866C202.175 349.813 201.657 350.377 201.657 351.028C201.657 351.678 202.175 352.198 202.822 352.242V377.043C202.434 377.39 202.132 377.91 202.045 378.474H199.067L198.938 349.163H199.542C200.492 349.163 201.312 348.383 201.312 347.385C201.312 346.431 200.535 345.608 199.542 345.608H198.938L198.808 321.023H199.585C200.448 321.023 201.139 320.329 201.139 319.462C201.139 318.725 200.621 318.118 199.93 317.944V312.871V310.53H200.578C201.053 310.53 201.398 310.14 201.398 309.749C201.398 309.272 201.053 308.926 200.578 308.926H199.801C200.233 307.581 200.794 305.067 199.671 302.508C199.154 301.294 198.074 300.167 196.909 299.17C195.744 298.216 194.449 297.392 193.37 296.742C193.413 296.612 193.456 296.395 193.456 296.135C193.456 295.831 193.456 295.528 193.283 295.224C193.154 294.877 192.809 294.574 192.506 294.314C192.204 294.053 191.859 293.88 191.6 293.706V293.143C191.686 293.099 191.73 293.013 191.773 292.969C191.816 292.883 191.859 292.753 191.859 292.666C191.859 292.536 191.816 292.449 191.773 292.362C191.73 292.276 191.686 292.189 191.6 292.189V291.712C191.643 291.669 191.686 291.625 191.73 291.582C191.773 291.495 191.816 291.408 191.816 291.322C191.816 291.235 191.773 291.148 191.73 291.062C191.686 291.018 191.643 290.975 191.6 290.888V290.368L191.427 286.465C191.427 286.422 191.384 286.379 191.384 286.379C191.298 286.379 191.255 286.422 191.255 286.465L191.082 290.368L191.039 290.888C190.866 290.931 190.823 290.975 190.78 291.018C190.737 291.105 190.694 291.192 190.694 291.278C190.694 291.365 190.694 291.452 190.737 291.538C190.78 291.582 190.823 291.669 190.866 291.669V292.145C190.78 292.189 190.737 292.276 190.694 292.319C190.65 292.406 190.607 292.536 190.607 292.622C190.607 292.709 190.65 292.839 190.694 292.926C190.737 293.013 190.78 293.056 190.866 293.099L190.823 293.663C190.564 293.793 190.262 294.01 189.917 294.27C189.571 294.574 189.269 294.921 189.097 295.224C188.967 295.528 188.924 295.874 188.924 296.135C188.924 296.395 189.01 296.612 189.053 296.742C188.018 297.349 186.679 298.172 185.514 299.17C184.306 300.167 183.27 301.294 182.708 302.508C181.586 305.067 182.147 307.625 182.579 308.926H181.673C181.241 308.926 180.896 309.272 180.896 309.749C180.896 310.183 181.241 310.53 181.673 310.53H182.32C182.32 311.657 182.32 312.741 182.32 313.825V317.901C181.629 318.074 181.111 318.681 181.111 319.419C181.111 320.286 181.802 320.979 182.665 320.979H183.399L183.313 345.651H182.708C181.716 345.651 180.939 346.431 180.939 347.429C180.939 348.426 181.716 349.206 182.708 349.206H183.313V351.418H178.867C180.421 347.212 182.881 337.89 178.737 328.394C176.925 324.275 173.256 320.372 169.155 316.947C165.141 313.608 160.652 310.747 157.027 308.665C157.199 308.145 157.372 307.408 157.415 306.584C157.458 305.63 157.329 304.546 156.854 303.419C156.336 302.248 155.3 301.164 154.135 300.297C153.056 299.473 151.89 298.779 151.027 298.303L150.941 296.351C151.156 296.178 151.372 295.961 151.502 295.658C151.674 295.354 151.761 295.007 151.761 294.617C151.761 294.227 151.674 293.837 151.459 293.49C151.286 293.186 151.07 292.969 150.768 292.796L150.682 291.148C150.854 291.018 150.984 290.801 151.113 290.628C151.243 290.368 151.286 290.108 151.286 289.804C151.286 289.501 151.2 289.197 151.027 288.894C150.897 288.677 150.725 288.503 150.509 288.33L150.423 286.552L149.818 273.414C151.07 273.458 152.322 273.154 153.444 272.504C154.653 271.81 155.559 270.813 156.12 269.642C155.645 270.292 155.041 270.813 154.307 271.246C151.372 272.937 147.617 271.94 145.891 268.992C144.207 266.043 145.2 262.228 148.135 260.537C148.869 260.103 149.646 259.843 150.423 259.756C149.128 259.669 147.79 259.973 146.581 260.667C143.344 262.574 142.222 266.737 144.078 270.032C145.2 271.983 147.056 273.154 149.128 273.414L148.567 286.596L148.48 288.373C148.264 288.503 148.092 288.677 147.962 288.937C147.79 289.197 147.703 289.501 147.703 289.847C147.703 290.151 147.79 290.455 147.919 290.671C148.006 290.845 148.178 291.062 148.351 291.192L148.264 292.839C147.962 293.013 147.747 293.273 147.574 293.533C147.401 293.88 147.272 294.227 147.272 294.66C147.272 295.051 147.358 295.354 147.531 295.701C147.66 295.961 147.876 296.221 148.092 296.395L148.006 298.346C147.142 298.823 145.977 299.517 144.941 300.34C143.776 301.208 142.74 302.292 142.222 303.462C141.747 304.59 141.617 305.674 141.661 306.628C141.704 307.451 141.876 308.189 142.049 308.709C140.84 309.403 139.546 310.183 138.164 311.05V297.565C138.38 297.435 138.51 297.219 138.51 296.958C138.51 296.612 138.251 296.308 137.949 296.221V294.27V293.923V293.837C137.949 293.793 137.949 293.707 137.949 293.663V292.753H138.251C138.467 292.753 138.639 292.579 138.639 292.362C138.639 292.146 138.467 291.972 138.251 291.972H137.819C138.035 291.365 138.294 290.151 137.733 288.937C137.474 288.373 136.999 287.853 136.438 287.376C135.877 286.942 135.272 286.552 134.755 286.249C134.798 286.162 134.798 286.075 134.798 285.945C134.798 285.815 134.798 285.642 134.711 285.512C134.625 285.381 134.496 285.208 134.323 285.078C134.15 284.991 134.021 284.861 133.891 284.818V284.558C133.934 284.514 133.934 284.514 133.978 284.471C133.978 284.428 134.021 284.384 134.021 284.341C134.021 284.298 134.021 284.211 133.978 284.167C133.978 284.124 133.934 284.081 133.891 284.081V283.864C133.934 283.864 133.934 283.821 133.934 283.821C133.978 283.777 133.978 283.734 133.978 283.69C133.978 283.647 133.978 283.604 133.934 283.56C133.934 283.56 133.891 283.517 133.848 283.474V283.214L133.762 281.349C133.762 281.349 133.762 281.306 133.719 281.306H133.848L133.762 283.17V283.43C133.719 283.43 133.719 283.474 133.719 283.474C133.675 283.517 133.675 283.604 133.675 283.604C133.675 283.647 133.675 283.69 133.719 283.734C133.719 283.734 133.762 283.777 133.762 283.821V284.037C133.719 284.037 133.675 284.081 133.675 284.124C133.632 284.167 133.632 284.211 133.632 284.297C133.632 284.384 133.632 284.384 133.675 284.428C133.675 284.471 133.719 284.471 133.762 284.514V284.774C133.632 284.818 133.503 284.948 133.33 285.035C133.157 285.165 133.028 285.338 132.942 285.468C132.855 285.642 132.855 285.772 132.855 285.902C132.855 286.032 132.898 286.119 132.898 286.205C132.424 286.509 131.776 286.899 131.258 287.333C130.697 287.81 130.179 288.33 129.92 288.894C129.402 290.108 129.661 291.322 129.834 291.929H129.445C129.23 291.929 129.057 292.102 129.057 292.319C129.057 292.536 129.23 292.709 129.445 292.709H129.748V293.793V296.178C129.445 296.265 129.186 296.568 129.186 296.915C129.186 297.175 129.316 297.392 129.532 297.522V317.381C125.733 320.589 122.41 324.188 120.64 328.004L120.424 287.203H121.417C123.014 287.203 124.352 285.858 124.352 284.254C124.352 282.65 123.014 281.306 121.417 281.306H120.338L120.122 240.331H121.374C122.842 240.331 124.007 239.16 124.007 237.73C124.007 236.516 123.187 235.475 122.021 235.171V226.76V222.901H123.057C123.791 222.901 124.395 222.294 124.395 221.557C124.395 220.819 123.791 220.212 123.057 220.212H121.762C122.496 218.001 123.403 213.795 121.547 209.503C120.683 207.508 118.914 205.6 116.885 203.996C114.943 202.392 112.785 201.004 111.015 200.007C111.101 199.747 111.188 199.4 111.188 199.01C111.188 198.533 111.144 198.012 110.929 197.492C110.67 196.928 110.152 196.408 109.591 195.975C109.073 195.541 108.511 195.237 108.123 195.021L108.08 194.067C108.209 193.98 108.296 193.85 108.382 193.72C108.468 193.59 108.511 193.416 108.511 193.243C108.511 193.069 108.468 192.853 108.382 192.723C108.296 192.592 108.209 192.462 108.037 192.376L107.994 191.595C108.08 191.509 108.166 191.422 108.209 191.335C108.253 191.205 108.296 191.075 108.296 190.945C108.296 190.771 108.252 190.641 108.166 190.511C108.08 190.424 107.994 190.338 107.907 190.251L107.864 189.384L107.562 182.88C107.562 182.793 107.476 182.75 107.389 182.75C107.303 182.75 107.26 182.793 107.26 182.88L106.958 189.384L106.914 190.251C106.828 190.338 106.742 190.424 106.655 190.511C106.569 190.641 106.526 190.815 106.526 190.945C106.526 191.075 106.569 191.205 106.612 191.335C106.655 191.422 106.742 191.509 106.828 191.595L106.785 192.376C106.655 192.462 106.526 192.592 106.44 192.723C106.353 192.896 106.31 193.069 106.31 193.243C106.31 193.416 106.353 193.59 106.44 193.72C106.526 193.85 106.612 193.98 106.742 194.067L106.699 195.021C106.31 195.237 105.749 195.584 105.231 195.975C104.67 196.408 104.152 196.928 103.893 197.492C103.677 198.012 103.591 198.533 103.634 199.01C103.634 199.4 103.764 199.747 103.807 200.007C102.037 201.004 99.8789 202.392 97.9366 203.996C95.9511 205.644 94.1814 207.551 93.275 209.503C91.419 213.795 92.3254 218.001 93.0592 220.212H91.6348C90.901 220.212 90.2967 220.819 90.2967 221.557C90.2967 222.294 90.901 222.901 91.6348 222.901H92.757V226.153C92.757 226.326 92.7139 226.543 92.7139 226.76L92.757 227.063V228.407V235.171C91.5916 235.432 90.7284 236.472 90.7284 237.73C90.7284 239.204 91.8938 240.331 93.3613 240.331H94.5699L94.3541 281.306H93.3181C91.7211 281.306 90.3831 282.65 90.3831 284.254C90.3831 285.902 91.7211 287.203 93.3181 287.203H94.3109L94.1382 315.126C91.419 310.01 86.7574 305.197 81.621 300.947C75.9667 296.265 69.7081 292.276 64.6148 289.327C64.8306 288.59 65.0896 287.593 65.1328 286.422C65.1759 285.078 65.0465 283.517 64.3559 281.999C63.6652 280.395 62.1546 278.834 60.5575 277.577C59.09 276.406 57.4498 275.409 56.2412 274.758L56.1117 272.027C56.457 271.767 56.716 271.463 56.8887 271.073C57.1045 270.639 57.234 270.162 57.234 269.642C57.234 269.078 57.1045 268.558 56.8024 268.081C56.5865 267.691 56.2412 267.344 55.8528 267.084L55.7664 264.786C56.0254 264.612 56.1981 264.309 56.3707 264.049C56.5434 263.702 56.6729 263.312 56.6729 262.878C56.6729 262.401 56.5434 262.011 56.3276 261.621C56.1549 261.317 55.8959 261.057 55.5938 260.84L55.4643 258.369L54.6442 239.984C56.3707 240.028 58.1404 239.637 59.7374 238.727C61.4208 237.73 62.6725 236.342 63.4926 234.694C62.802 235.562 61.9819 236.342 60.946 236.949C56.8023 239.334 51.5365 237.903 49.1625 233.784C46.7886 229.621 48.2129 224.332 52.3134 221.947C53.3493 221.34 54.4284 220.993 55.5075 220.863C53.6946 220.776 51.8386 221.166 50.1553 222.164C45.58 224.809 44.0261 230.662 46.6591 235.258C48.2129 237.946 50.8459 239.637 53.6946 239.984L52.8745 258.455L52.7882 260.927C52.4861 261.1 52.2703 261.404 52.0544 261.707C51.8386 262.054 51.7091 262.488 51.7091 262.965C51.7091 263.398 51.8386 263.788 52.0113 264.135C52.1839 264.396 52.3997 264.656 52.6156 264.872L52.5292 267.171C52.1408 267.431 51.7955 267.778 51.5796 268.168C51.3207 268.645 51.148 269.165 51.148 269.729C51.148 270.249 51.2775 270.726 51.4933 271.16C51.666 271.55 51.9681 271.853 52.2703 272.113L52.1408 274.845C50.9322 275.496 49.3352 276.493 47.8245 277.663C46.1843 278.921 44.7168 280.438 44.0261 282.043C43.3355 283.56 43.1629 285.165 43.2492 286.509C43.2924 287.68 43.5514 288.677 43.7672 289.414C38.6739 292.362 32.4153 296.351 26.761 301.034C25.984 301.685 25.164 302.378 24.4302 303.029L24.3439 288.113H25.0776C25.9409 288.113 26.6315 287.376 26.6315 286.552C26.6315 285.815 26.1135 285.208 25.4661 284.991V279.918V277.577H26.1135C26.5452 277.577 26.9336 277.187 26.9336 276.753C26.9336 276.319 26.5452 275.929 26.1135 275.929H25.4229C25.8977 274.628 26.4157 272.07 25.2934 269.512C24.7755 268.298 23.6964 267.171 22.4879 266.173C21.3225 265.219 19.9844 264.352 18.9485 263.745C18.9917 263.572 19.0348 263.355 19.078 263.138C19.078 262.835 19.0348 262.531 18.9053 262.184C18.7759 261.881 18.4737 261.534 18.1284 261.274C17.8263 261.013 17.481 260.84 17.222 260.667L17.1788 260.103C17.2652 260.06 17.3083 259.973 17.3515 259.886C17.3946 259.799 17.4378 259.713 17.4378 259.583C17.4378 259.453 17.3946 259.366 17.3515 259.236C17.3083 259.149 17.222 259.106 17.1357 259.019L17.0925 258.542C17.1788 258.499 17.1788 258.412 17.222 258.369C17.2651 258.282 17.2652 258.195 17.2652 258.108C17.2652 258.022 17.2652 257.935 17.1788 257.848C17.1357 257.762 17.0925 257.718 17.0493 257.675L17.0062 257.155L16.8335 253.252C16.8335 253.209 16.7904 253.166 16.7472 253.166C16.704 253.166 16.6609 253.209 16.6609 253.252L16.4882 257.155V257.675C16.4451 257.718 16.3587 257.762 16.3156 257.848C16.2724 257.935 16.2292 258.022 16.2292 258.108C16.2292 258.195 16.2724 258.282 16.3156 258.369C16.3587 258.412 16.4019 258.455 16.4451 258.542V259.019C16.3587 259.062 16.2724 259.149 16.2292 259.236C16.1861 259.323 16.1429 259.453 16.1429 259.583C16.1429 259.669 16.1429 259.756 16.2292 259.886C16.2724 259.973 16.3156 260.06 16.4019 260.103V260.667C16.1429 260.797 15.8408 261.013 15.4955 261.274C15.1502 261.534 14.848 261.881 14.7185 262.184C14.5891 262.488 14.5459 262.835 14.5459 263.095C14.5459 263.312 14.589 263.528 14.6754 263.702C13.5963 264.309 12.3014 265.133 11.136 266.13C9.92746 267.127 8.89156 268.255 8.33044 269.469C7.2082 272.027 7.76932 274.585 8.20095 275.886H7.29452C6.86289 275.886 6.47444 276.233 6.47444 276.71C6.47444 277.143 6.86289 277.533 7.29452 277.533H7.98513C7.98513 278.617 7.98513 279.745 7.98513 280.829V284.904C7.29452 285.078 6.77658 285.685 6.77658 286.465C6.77658 287.333 7.46718 288.026 8.33044 288.026H9.10737L8.97788 312.611H8.28727C7.33769 312.611 6.5176 313.392 6.5176 314.389C6.5176 315.386 7.29452 316.167 8.28727 316.167H8.89156L8.80523 349.206H0V472H93.6634H107.432H107.907H121.029H235.238H241.151H243.007H290.184H337.836H354.928H355.705H454.376H471.727H472.418H490.632H497.021H607.172H614.51H823.936H831.274H941.382H947.771H965.985H966.676H984.027H1083.47H1084.25H1100.57H1177.91H1191.68H1192.16H1205.28H1319.49H1325.4H1327.26H1374.44H1440V349.206H1430.12ZM12.3446 284.904H10.5317V278.878C10.5317 278.401 10.9634 277.967 11.4382 277.967C11.913 277.967 12.3446 278.401 12.3446 278.878V284.904ZM19.6391 284.861H13.8553V281.956C13.8553 281.956 13.8121 281.739 14.0279 281.436C14.2438 281.176 14.1574 280.959 14.0711 280.655C13.4237 278.878 16.4019 278.964 16.7472 277.577C17.0925 278.964 20.0707 278.878 19.4665 280.699C19.3801 281.002 19.2938 281.219 19.4665 281.479C19.6823 281.783 19.6391 281.999 19.6391 281.999V284.861ZM22.9195 284.904H21.1067V278.878C21.1067 278.401 21.4951 277.967 22.0131 277.967C22.4879 277.967 22.9195 278.401 22.9195 278.878V284.904ZM97.5481 235.085H93.3181V230.272C93.3181 230.272 93.2318 229.882 93.6203 229.405C94.0088 228.928 93.8361 228.581 93.7066 228.104C93.1023 226.413 92.8002 225.025 93.7066 224.115C95.2605 225.285 98.0661 225.719 97.246 228.104C97.0733 228.581 96.9438 228.971 97.2891 229.405C97.6776 229.882 97.5913 230.272 97.5913 230.272L97.5481 235.085ZM112.18 235.085H102.512V230.272C102.512 230.272 102.426 229.882 102.814 229.405C103.202 228.928 103.03 228.581 102.857 228.104C101.778 225.069 106.742 225.155 107.346 222.857C107.907 225.155 112.871 225.025 111.792 228.104C111.619 228.581 111.49 228.971 111.835 229.405C112.223 229.882 112.137 230.272 112.137 230.272V235.085H112.18ZM117.144 230.272C117.144 230.272 117.058 229.882 117.446 229.405C117.835 228.928 117.662 228.581 117.489 228.104C116.669 225.762 119.432 225.285 121.029 224.115C121.892 225.025 121.59 226.413 120.986 228.104C120.813 228.581 120.683 228.971 121.029 229.405C121.417 229.882 121.331 230.272 121.331 230.272V235.085H117.144V230.272ZM131.129 296.135H129.92V294.747C129.92 294.747 129.92 294.617 130.007 294.53C130.136 294.4 130.093 294.27 130.007 294.14C129.834 293.663 129.748 293.273 130.007 293.013C130.481 293.36 131.258 293.49 130.999 294.14C130.956 294.27 130.913 294.357 130.999 294.53C131.129 294.66 131.086 294.747 131.086 294.747L131.129 296.135ZM135.272 296.135H132.553V294.747C132.553 294.747 132.51 294.617 132.64 294.53C132.726 294.4 132.726 294.27 132.64 294.14C132.337 293.273 133.762 293.316 133.891 292.666C134.064 293.316 135.445 293.273 135.143 294.14C135.1 294.27 135.057 294.357 135.143 294.53C135.272 294.66 135.229 294.747 135.229 294.747L135.272 296.135ZM137.862 296.135H136.697V294.747C136.697 294.747 136.697 294.617 136.783 294.53C136.869 294.4 136.826 294.27 136.783 294.14C136.524 293.49 137.344 293.36 137.776 293.013C138.035 293.273 137.949 293.663 137.776 294.14C137.733 294.27 137.69 294.357 137.776 294.53C137.905 294.66 137.862 294.747 137.862 294.747V296.135ZM186.766 317.901H184.953V311.874C184.953 311.397 185.341 310.963 185.859 310.963C186.377 310.963 186.766 311.354 186.766 311.874V317.901ZM194.06 317.901H188.233V314.996C188.233 314.996 188.19 314.779 188.406 314.476C188.622 314.172 188.535 313.955 188.449 313.695C187.802 311.874 190.78 311.961 191.125 310.53C191.471 311.917 194.449 311.831 193.801 313.695C193.715 313.955 193.629 314.215 193.844 314.476C194.06 314.779 194.017 314.996 194.017 314.996V317.901H194.06ZM197.341 317.901H195.528V311.874C195.528 311.397 195.916 310.963 196.434 310.963C196.952 310.963 197.341 311.354 197.341 311.874V317.901ZM208.175 376.436H204.419V358.962C204.419 358.962 204.333 358.615 204.678 358.182C205.024 357.748 204.894 357.445 204.722 357.011C204.204 355.493 203.901 354.236 204.678 353.412C206.103 354.453 208.606 354.843 207.872 357.011C207.7 357.445 207.613 357.748 207.916 358.182C208.261 358.615 208.218 358.962 208.218 358.962L208.175 376.436ZM221.382 376.436H212.707V358.962C212.707 358.962 212.62 358.615 212.966 358.182C213.268 357.748 213.138 357.445 213.009 357.011C212.059 354.236 216.548 354.366 217.066 352.285H217.109C217.627 354.366 222.116 354.236 221.167 357.011C220.994 357.445 220.864 357.748 221.21 358.182C221.555 358.615 221.469 358.962 221.469 358.962V376.436H221.382ZM229.454 358.182C229.756 358.615 229.713 358.962 229.713 358.962V376.436H225.915V358.962C225.915 358.962 225.871 358.615 226.173 358.182C226.519 357.748 226.389 357.445 226.217 357.011C225.483 354.886 228.029 354.453 229.411 353.412C230.188 354.193 229.929 355.493 229.411 357.011C229.238 357.401 229.109 357.748 229.454 358.182ZM249.525 296.221H243.913V270.206C243.913 270.206 243.827 269.685 244.302 269.078C244.82 268.471 244.604 267.951 244.388 267.301C243.611 265.046 243.18 263.181 244.345 261.967C246.46 263.528 250.172 264.135 249.05 267.301C248.834 267.951 248.618 268.471 249.136 269.078C249.611 269.685 249.525 270.206 249.525 270.206V296.221ZM269.164 296.221H256.215V270.206C256.215 270.206 256.129 269.685 256.603 269.078C257.078 268.471 256.905 267.951 256.69 267.301C255.265 263.225 261.912 263.398 262.689 260.276H262.732C263.466 263.355 270.156 263.181 268.732 267.301C268.516 267.951 268.3 268.471 268.818 269.078C269.293 269.685 269.207 270.206 269.207 270.206L269.164 296.221ZM281.12 269.078C281.595 269.685 281.508 270.206 281.508 270.206V296.178H275.854V270.206C275.854 270.206 275.768 269.685 276.242 269.078C276.717 268.471 276.545 267.951 276.329 267.301C275.207 264.135 278.962 263.528 281.077 261.967C282.285 263.138 281.854 265.046 281.077 267.301C280.818 267.951 280.602 268.471 281.12 269.078ZM297.22 346.995H295.407V340.968C295.407 340.491 295.795 340.058 296.313 340.058C296.831 340.058 297.22 340.448 297.22 340.968V346.995ZM304.514 346.995H298.73V344.09C298.73 344.09 298.687 343.873 298.903 343.57C299.119 343.266 299.032 343.049 298.946 342.789C298.299 340.968 301.277 341.011 301.622 339.667C301.967 341.055 304.946 340.968 304.298 342.789C304.212 343.093 304.082 343.31 304.341 343.57C304.557 343.873 304.514 344.09 304.514 344.09V346.995ZM307.794 346.995H305.982V340.968C305.982 340.491 306.37 340.058 306.888 340.058C307.406 340.058 307.794 340.448 307.794 340.968V346.995ZM318.24 346.995H316.427V340.968C316.427 340.491 316.816 340.058 317.333 340.058C317.851 340.058 318.24 340.448 318.24 340.968V346.995ZM325.534 346.995H319.751V344.09C319.751 344.09 319.707 343.873 319.923 343.57C320.139 343.266 320.053 343.049 319.966 342.789C319.319 340.968 322.297 341.011 322.643 339.667C322.988 341.055 325.966 340.968 325.319 342.789C325.232 343.093 325.103 343.31 325.362 343.57C325.578 343.873 325.534 344.09 325.534 344.09V346.995ZM328.858 346.995H327.045V340.968C327.045 340.491 327.434 340.058 327.952 340.058C328.47 340.058 328.858 340.448 328.858 340.968V346.995ZM335.937 315.82H334.297V313.912C334.297 313.912 334.253 313.782 334.383 313.565C334.512 313.392 334.469 313.262 334.383 313.045C334.167 312.394 334.038 311.831 334.383 311.527C334.987 311.961 336.066 312.134 335.764 313.045C335.678 313.218 335.635 313.392 335.764 313.565C335.893 313.738 335.894 313.912 335.894 313.912V315.82H335.937ZM343.62 313.955C343.62 313.955 343.577 313.825 343.749 313.608C343.879 313.435 343.835 313.305 343.749 313.088C343.447 312.178 344.526 312.004 345.13 311.527C345.476 311.874 345.346 312.438 345.13 313.088C345.044 313.262 345.001 313.435 345.13 313.608C345.26 313.782 345.217 313.955 345.217 313.955V315.863H343.62V313.955ZM337.879 313.955C337.879 313.955 337.879 313.825 338.008 313.608C338.138 313.435 338.095 313.305 338.008 313.088C337.577 311.917 339.562 311.961 339.778 311.05C339.994 311.961 341.936 311.917 341.505 313.088C341.418 313.262 341.375 313.435 341.548 313.608C341.677 313.782 341.677 313.955 341.677 313.955V315.863H337.879V313.955ZM355.878 283.56H353.461V275.582C353.461 274.932 354.022 274.368 354.669 274.368C355.317 274.368 355.878 274.932 355.878 275.582V283.56ZM365.546 283.56H357.863V279.745C357.863 279.745 357.777 279.441 358.079 279.094C358.338 278.704 358.252 278.401 358.122 278.054C357.259 275.626 361.23 275.712 361.662 273.891C362.137 275.712 366.064 275.626 365.201 278.054C365.072 278.444 364.942 278.747 365.244 279.094C365.503 279.441 365.46 279.745 365.46 279.745V283.56H365.546ZM369.906 283.56H367.489V275.582C367.489 274.932 368.05 274.368 368.697 274.368C369.388 274.368 369.906 274.932 369.906 275.582V283.56ZM393.128 279.701H387.128V252.168C387.128 252.168 387.042 251.605 387.56 250.954C388.077 250.304 387.862 249.74 387.646 249.09C386.783 246.662 386.351 244.667 387.603 243.41C389.847 245.057 393.818 245.708 392.653 249.09C392.437 249.74 392.221 250.304 392.739 250.954C393.257 251.605 393.171 252.168 393.171 252.168V279.701H393.128ZM413.932 279.701H400.206V252.168C400.206 252.168 400.12 251.605 400.638 250.954C401.156 250.304 400.94 249.74 400.724 249.09C399.213 244.754 406.249 244.927 407.069 241.632H407.112C407.932 244.927 415.011 244.754 413.457 249.09C413.241 249.74 413.026 250.304 413.544 250.954C414.061 251.605 413.975 252.168 413.975 252.168L413.932 279.701ZM426.536 250.911C427.054 251.561 426.967 252.125 426.967 252.125V279.658H421.011V252.125C421.011 252.125 420.924 251.561 421.442 250.911C421.96 250.26 421.744 249.697 421.529 249.046C420.363 245.708 424.291 245.057 426.536 243.41C427.744 244.667 427.312 246.662 426.492 249.046C426.233 249.74 426.018 250.26 426.536 250.911ZM441.772 261.36H440.175V259.539C440.175 259.539 440.132 259.409 440.261 259.236C440.391 259.062 440.348 258.932 440.261 258.759C440.046 258.108 439.916 257.632 440.261 257.285C440.866 257.718 441.902 257.892 441.599 258.759C441.556 258.932 441.513 259.062 441.599 259.236C441.729 259.409 441.729 259.539 441.729 259.539L441.772 261.36ZM447.254 261.36H443.628V259.539C443.628 259.539 443.628 259.409 443.758 259.236C443.887 259.062 443.844 258.932 443.758 258.759C443.369 257.632 445.225 257.675 445.441 256.808C445.657 257.675 447.513 257.632 447.124 258.759C447.081 258.932 447.038 259.062 447.124 259.236C447.254 259.409 447.254 259.539 447.254 259.539V261.36ZM450.664 261.36H449.11V259.539C449.11 259.539 449.067 259.409 449.196 259.236C449.326 259.062 449.282 258.932 449.196 258.759C448.894 257.892 449.93 257.718 450.534 257.285C450.836 257.632 450.75 258.152 450.534 258.759C450.448 258.932 450.405 259.062 450.534 259.236C450.664 259.409 450.664 259.539 450.664 259.539V261.36ZM459.512 174.078H453.987V167.704C453.987 167.704 453.901 167.184 454.376 166.577C454.894 165.97 454.678 165.45 454.462 164.843C453.685 162.631 453.253 160.767 454.419 159.596C456.491 161.114 460.159 161.721 459.08 164.843C458.865 165.45 458.649 165.97 459.167 166.577C459.641 167.184 459.555 167.704 459.555 167.704L459.512 174.078ZM478.849 174.078H466.073V167.704C466.073 167.704 465.986 167.184 466.461 166.577C466.936 165.97 466.763 165.45 466.548 164.843C465.123 160.81 471.684 160.984 472.461 157.948C473.238 161.027 479.799 160.81 478.374 164.843C478.158 165.45 477.986 165.97 478.461 166.577C478.935 167.184 478.849 167.704 478.849 167.704V174.078ZM485.453 167.704C485.453 167.704 485.367 167.184 485.841 166.577C486.316 165.97 486.143 165.45 485.928 164.843C484.805 161.721 488.561 161.114 490.589 159.596C491.755 160.767 491.366 162.631 490.589 164.843C490.373 165.45 490.201 165.97 490.676 166.577C491.194 167.184 491.064 167.704 491.064 167.704V174.078H485.496V167.704H485.453ZM586.54 239.941H584.123V232.006C584.123 231.356 584.684 230.792 585.332 230.792C585.979 230.792 586.54 231.312 586.54 232.006V239.941ZM596.166 239.941H588.483V236.125C588.483 236.125 588.396 235.822 588.699 235.475C588.958 235.085 588.871 234.781 588.742 234.434C587.878 232.006 591.849 232.093 592.324 230.272C592.799 232.093 596.727 232.006 595.907 234.434C595.777 234.824 595.648 235.128 595.95 235.475C596.252 235.865 596.209 236.125 596.209 236.125L596.166 239.941ZM600.525 239.941H598.108V232.006C598.108 231.356 598.669 230.792 599.317 230.792C600.007 230.792 600.525 231.312 600.525 232.006V239.941ZM840.295 239.941H837.878V232.006C837.878 231.312 838.396 230.792 839.086 230.792C839.734 230.792 840.295 231.356 840.295 232.006V239.941ZM849.92 239.941H842.237V236.125C842.237 236.125 842.194 235.822 842.496 235.475C842.798 235.085 842.669 234.781 842.539 234.434C841.676 232.006 845.647 232.093 846.122 230.272C846.597 232.093 850.525 232.006 849.661 234.434C849.532 234.824 849.402 235.128 849.704 235.475C850.007 235.865 849.92 236.125 849.92 236.125V239.941ZM854.323 239.941H851.906V232.006C851.906 231.312 852.467 230.792 853.114 230.792C853.762 230.792 854.323 231.356 854.323 232.006V239.941ZM952.95 174.078H947.382V167.704C947.382 167.704 947.253 167.184 947.771 166.577C948.245 165.97 948.073 165.45 947.857 164.843C947.08 162.631 946.648 160.767 947.857 159.596C949.929 161.157 953.641 161.721 952.518 164.843C952.303 165.45 952.13 165.97 952.605 166.577C953.08 167.184 952.993 167.704 952.993 167.704V174.078H952.95ZM972.33 174.078H959.554V167.704C959.554 167.704 959.468 167.184 959.942 166.577C960.417 165.97 960.245 165.45 960.029 164.843C958.604 160.81 965.165 160.984 965.942 157.948C966.719 161.027 973.28 160.81 971.855 164.843C971.64 165.45 971.424 165.97 971.942 166.577C972.417 167.184 972.33 167.704 972.33 167.704V174.078ZM978.891 167.704C978.891 167.704 978.805 167.184 979.279 166.577C979.754 165.97 979.582 165.45 979.366 164.843C978.287 161.721 981.956 161.114 984.027 159.596C985.15 160.767 984.761 162.631 983.984 164.843C983.768 165.45 983.596 165.97 984.07 166.577C984.545 167.184 984.459 167.704 984.459 167.704V174.078H978.934V167.704H978.891ZM989.293 261.36H987.739V259.539C987.739 259.539 987.696 259.409 987.869 259.236C987.998 259.062 987.955 258.932 987.869 258.759C987.653 258.152 987.523 257.632 987.869 257.285C988.473 257.718 989.509 257.892 989.207 258.759C989.164 258.932 989.077 259.062 989.25 259.236C989.38 259.409 989.336 259.539 989.336 259.539L989.293 261.36ZM994.775 261.36H991.149V259.539C991.149 259.539 991.149 259.409 991.279 259.236C991.408 259.062 991.365 258.932 991.279 258.759C990.89 257.632 992.746 257.675 992.962 256.808C993.178 257.675 995.034 257.632 994.645 258.759C994.602 258.932 994.559 259.062 994.645 259.236C994.775 259.409 994.775 259.539 994.775 259.539V261.36ZM998.228 261.36H996.631V259.539C996.631 259.539 996.631 259.409 996.76 259.236C996.89 259.062 996.847 258.932 996.76 258.759C996.458 257.892 997.494 257.718 998.098 257.285C998.444 257.632 998.314 258.152 998.098 258.759C998.012 258.932 997.969 259.062 998.098 259.236C998.228 259.409 998.228 259.539 998.228 259.539V261.36ZM1017.39 279.701H1011.44V252.168C1011.44 252.168 1011.31 251.605 1011.87 250.954C1012.39 250.304 1012.17 249.74 1011.95 249.09C1011.09 246.705 1010.66 244.71 1011.91 243.453C1014.16 245.101 1018.08 245.751 1016.92 249.09C1016.7 249.74 1016.49 250.304 1017 250.954C1017.52 251.605 1017.44 252.168 1017.44 252.168V279.701H1017.39ZM1038.2 279.701H1024.47V252.168C1024.47 252.168 1024.34 251.605 1024.9 250.954C1025.42 250.304 1025.2 249.74 1024.99 249.09C1023.48 244.754 1030.56 244.927 1031.33 241.632H1031.38C1032.2 244.927 1039.28 244.754 1037.72 249.09C1037.51 249.74 1037.29 250.304 1037.81 250.954C1038.33 251.605 1038.24 252.168 1038.24 252.168L1038.2 279.701ZM1050.89 250.911C1051.4 251.561 1051.32 252.125 1051.32 252.125V279.658H1045.32V252.125C1045.32 252.125 1045.23 251.561 1045.75 250.911C1046.27 250.26 1046.05 249.697 1045.84 249.046C1044.63 245.664 1048.64 245.057 1050.89 243.366C1052.14 244.624 1051.71 246.618 1050.84 249.046C1050.58 249.74 1050.37 250.26 1050.89 250.911ZM1094.78 278.878C1094.78 278.401 1095.21 277.967 1095.69 277.967C1096.16 277.967 1096.6 278.401 1096.6 278.878V284.904H1094.78V278.878ZM1070.91 283.56H1068.5V275.582C1068.5 274.932 1069.02 274.368 1069.71 274.368C1070.35 274.368 1070.91 274.932 1070.91 275.582V283.56ZM1080.54 283.56H1072.86V279.745C1072.86 279.745 1072.81 279.441 1073.07 279.094C1073.37 278.704 1073.24 278.401 1073.12 278.054C1072.25 275.626 1076.22 275.712 1076.65 273.891C1077.13 275.712 1081.06 275.626 1080.24 278.054C1080.11 278.444 1079.98 278.747 1080.28 279.094C1080.58 279.441 1080.5 279.745 1080.5 279.745V283.56H1080.54ZM1082.53 283.56V275.582C1082.53 274.932 1083.09 274.368 1083.73 274.368C1084.38 274.368 1084.94 274.932 1084.94 275.582V283.56H1082.53ZM1103.93 284.861H1098.11V281.956C1098.11 281.956 1098.06 281.739 1098.28 281.436C1098.5 281.176 1098.41 280.959 1098.32 280.655C1097.68 278.834 1100.65 278.878 1101.04 277.533C1101.39 278.921 1104.37 278.834 1103.76 280.655C1103.67 280.959 1103.59 281.176 1103.76 281.436C1103.98 281.739 1103.93 281.956 1103.93 281.956V284.861ZM1107.21 284.904H1105.4V278.878C1105.4 278.401 1105.79 277.967 1106.31 277.967C1106.78 277.967 1107.21 278.401 1107.21 278.878V284.904ZM1181.84 235.085H1177.61V230.272C1177.61 230.272 1177.53 229.882 1177.91 229.405C1178.3 228.928 1178.13 228.581 1178 228.104C1177.4 226.413 1177.09 225.025 1178 224.115C1179.56 225.285 1182.36 225.719 1181.54 228.104C1181.37 228.581 1181.24 228.971 1181.58 229.405C1181.97 229.882 1181.89 230.272 1181.89 230.272L1181.84 235.085ZM1196.47 235.085H1186.81V230.272C1186.81 230.272 1186.72 229.882 1187.11 229.405C1187.5 228.928 1187.32 228.581 1187.15 228.104C1186.07 225.069 1191.04 225.155 1191.64 222.857C1192.2 225.155 1197.17 225.025 1196.09 228.104C1195.91 228.581 1195.78 228.971 1196.13 229.405C1196.52 229.882 1196.43 230.272 1196.43 230.272L1196.47 235.085ZM1201.44 230.272C1201.44 230.272 1201.35 229.882 1201.74 229.405C1202.13 228.928 1201.96 228.581 1201.78 228.104C1200.96 225.762 1203.73 225.285 1205.32 224.115C1206.19 225.025 1205.88 226.413 1205.28 228.104C1205.11 228.581 1204.98 228.971 1205.32 229.405C1205.71 229.882 1205.63 230.272 1205.63 230.272V235.085H1201.44V230.272ZM1215.38 296.135H1214.21V294.747C1214.21 294.747 1214.21 294.617 1214.3 294.53C1214.39 294.4 1214.39 294.27 1214.3 294.14C1214.13 293.663 1214.04 293.273 1214.3 293.013C1214.78 293.36 1215.55 293.49 1215.29 294.14C1215.25 294.27 1215.21 294.357 1215.29 294.53C1215.38 294.66 1215.38 294.747 1215.38 294.747V296.135ZM1219.52 296.135H1216.8V294.747C1216.8 294.747 1216.76 294.617 1216.89 294.53C1216.98 294.4 1216.98 294.27 1216.89 294.14C1216.59 293.273 1218.01 293.316 1218.14 292.666C1218.32 293.316 1219.7 293.273 1219.39 294.14C1219.35 294.27 1219.31 294.357 1219.39 294.53C1219.48 294.66 1219.48 294.747 1219.48 294.747L1219.52 296.135ZM1222.16 296.135H1220.95V294.747C1220.95 294.747 1220.95 294.617 1221.03 294.53C1221.12 294.4 1221.08 294.27 1221.03 294.14C1220.78 293.49 1221.6 293.36 1222.03 293.013C1222.29 293.273 1222.2 293.663 1222.03 294.14C1221.98 294.27 1221.94 294.357 1222.03 294.53C1222.11 294.66 1222.11 294.747 1222.11 294.747V296.135H1222.16ZM1271.02 317.901H1269.2V311.874C1269.2 311.397 1269.59 310.963 1270.11 310.963C1270.63 310.963 1271.02 311.354 1271.02 311.874V317.901ZM1278.31 317.901H1272.53V314.996C1272.53 314.996 1272.48 314.779 1272.7 314.476C1272.92 314.172 1272.83 313.955 1272.74 313.695C1272.1 311.874 1275.07 311.961 1275.42 310.53C1275.77 311.917 1278.74 311.831 1278.1 313.695C1278.01 313.955 1277.88 314.215 1278.14 314.476C1278.35 314.779 1278.31 314.996 1278.31 314.996V317.901ZM1281.64 317.901H1279.82V311.874C1279.82 311.397 1280.21 310.963 1280.73 310.963C1281.25 310.963 1281.64 311.354 1281.64 311.874V317.901ZM1292.47 376.436H1288.67V358.962C1288.67 358.962 1288.58 358.615 1288.93 358.182C1289.28 357.748 1289.15 357.445 1288.97 357.011C1288.46 355.493 1288.15 354.236 1288.93 353.412C1290.35 354.453 1292.86 354.843 1292.12 357.011C1291.95 357.445 1291.82 357.748 1292.17 358.182C1292.51 358.615 1292.43 358.962 1292.43 358.962L1292.47 376.436ZM1305.68 376.436H1296.96V358.962C1296.96 358.962 1296.87 358.615 1297.22 358.182C1297.52 357.748 1297.43 357.445 1297.26 357.011C1296.31 354.236 1300.8 354.366 1301.27 352.285C1301.79 354.366 1306.32 354.236 1305.38 357.011C1305.2 357.445 1305.07 357.748 1305.42 358.182C1305.76 358.615 1305.68 358.962 1305.68 358.962V376.436ZM1313.75 358.182C1314.05 358.615 1314.01 358.962 1314.01 358.962V376.436H1310.17V358.962C1310.17 358.962 1310.12 358.615 1310.43 358.182C1310.77 357.748 1310.64 357.445 1310.47 357.011C1309.73 354.886 1312.28 354.453 1313.66 353.412C1314.44 354.193 1314.18 355.493 1313.66 357.011C1313.53 357.401 1313.4 357.748 1313.75 358.182ZM1333.82 296.221H1328.21V270.206C1328.21 270.206 1328.12 269.685 1328.6 269.078C1329.07 268.471 1328.9 267.951 1328.68 267.301C1327.86 265.046 1327.47 263.181 1328.64 261.967C1330.75 263.528 1334.47 264.135 1333.34 267.301C1333.13 267.951 1332.91 268.471 1333.43 269.078C1333.91 269.685 1333.82 270.206 1333.82 270.206V296.221ZM1353.42 296.221H1340.47V270.206C1340.47 270.206 1340.34 269.685 1340.85 269.078C1341.33 268.471 1341.16 267.951 1340.94 267.301C1339.52 263.225 1346.16 263.398 1346.94 260.276C1347.72 263.355 1354.41 263.181 1352.98 267.301C1352.77 267.951 1352.55 268.471 1353.07 269.078C1353.54 269.685 1353.46 270.206 1353.46 270.206L1353.42 296.221ZM1365.37 269.078C1365.85 269.685 1365.76 270.206 1365.76 270.206V296.178H1360.11V270.206C1360.11 270.206 1360.02 269.685 1360.49 269.078C1361.01 268.471 1360.8 267.951 1360.58 267.301C1359.46 264.135 1363.21 263.528 1365.33 261.967C1366.54 263.138 1366.11 265.046 1365.33 267.301C1365.11 267.951 1364.9 268.471 1365.37 269.078ZM1381.47 346.995H1379.66V340.968C1379.66 340.491 1380.05 340.058 1380.56 340.058C1381.08 340.058 1381.47 340.448 1381.47 340.968V346.995ZM1388.81 346.995H1382.98V344.09C1382.98 344.09 1382.94 343.873 1383.15 343.57C1383.37 343.266 1383.28 343.049 1383.2 342.789C1382.55 340.968 1385.53 341.011 1385.87 339.667C1386.22 341.055 1389.2 340.968 1388.55 342.789C1388.46 343.093 1388.38 343.31 1388.59 343.57C1388.81 343.873 1388.77 344.09 1388.77 344.09L1388.81 346.995ZM1392.09 346.995H1390.28V340.968C1390.28 340.491 1390.66 340.058 1391.18 340.058C1391.7 340.058 1392.09 340.448 1392.09 340.968V346.995ZM1402.53 346.995H1400.72V340.968C1400.72 340.491 1401.15 340.058 1401.63 340.058C1402.15 340.058 1402.53 340.448 1402.53 340.968V346.995ZM1409.83 346.995H1404.05V344.09C1404.05 344.09 1404 343.873 1404.22 343.57C1404.43 343.266 1404.35 343.049 1404.26 342.789C1403.61 340.968 1406.59 341.011 1406.94 339.667C1407.28 341.055 1410.26 340.968 1409.61 342.789C1409.53 343.093 1409.44 343.31 1409.66 343.57C1409.87 343.873 1409.83 344.09 1409.83 344.09V346.995ZM1413.11 346.995H1411.3V340.968C1411.3 340.491 1411.69 340.058 1412.2 340.058C1412.72 340.058 1413.11 340.448 1413.11 340.968V346.995ZM1420.19 315.82H1418.55V313.912C1418.55 313.912 1418.5 313.782 1418.63 313.565C1418.76 313.392 1418.72 313.262 1418.63 313.045C1418.42 312.394 1418.29 311.831 1418.63 311.527C1419.24 311.961 1420.32 312.134 1420.02 313.045C1419.93 313.218 1419.89 313.392 1420.02 313.565C1420.15 313.738 1420.15 313.912 1420.15 313.912L1420.19 315.82ZM1425.93 315.82H1422.13V313.912C1422.13 313.912 1422.13 313.782 1422.26 313.565C1422.39 313.392 1422.35 313.262 1422.26 313.045C1421.83 311.874 1423.81 311.917 1423.99 311.007C1424.2 311.917 1426.14 311.874 1425.76 313.045C1425.67 313.218 1425.63 313.392 1425.76 313.565C1425.89 313.738 1425.89 313.912 1425.89 313.912L1425.93 315.82ZM1429.51 315.82H1427.87V313.912C1427.87 313.912 1427.83 313.782 1427.96 313.565C1428.09 313.392 1428.04 313.262 1427.96 313.045C1427.66 312.134 1428.73 311.961 1429.34 311.484C1429.68 311.831 1429.55 312.394 1429.34 313.045C1429.25 313.218 1429.21 313.392 1429.34 313.565C1429.47 313.738 1429.43 313.912 1429.43 313.912V315.82H1429.51Z" fill="#005D85"/>
</svg>
