<svg width="424" height="549" viewBox="0 0 424 549" fill="none" xmlns="http://www.w3.org/2000/svg">
<path opacity="0.981" fill-rule="evenodd" clip-rule="evenodd" d="M15.0321 -0.0761719C17.5011 -0.0761719 19.9701 -0.0761719 22.4392 -0.0761719C25.8912 2.22624 29.3596 4.51374 32.8443 6.78633C33.7276 4.49477 34.6094 2.20727 35.4897 -0.0761719C36.9006 -0.0761719 38.3114 -0.0761719 39.7223 -0.0761719C38.4623 3.34509 37.169 6.75092 35.8424 10.1413C43.6702 30.4982 51.5279 50.8317 59.4157 71.1413C67.2584 50.7707 75.1162 30.4119 82.989 10.0651C81.6473 6.71192 80.354 3.3315 79.1091 -0.0761719C80.5199 -0.0761719 81.9308 -0.0761719 83.3417 -0.0761719C84.2219 2.20727 85.1037 4.49477 85.9871 6.78633C89.4718 4.51374 92.9402 2.22624 96.3922 -0.0761719C98.8221 -0.0761719 101.252 -0.0761719 103.682 -0.0761719C103.608 0.353105 103.451 0.734355 103.211 1.06758C98.5869 4.06675 93.9623 7.06591 89.3379 10.0651C93.9807 13.0507 98.6052 16.0753 103.211 19.1388C103.327 19.3647 103.464 19.5681 103.623 19.7488C105.846 25.5675 108.1 31.3625 110.383 37.1338C112.667 31.3625 114.92 25.5675 117.144 19.7488C117.267 19.5064 117.404 19.2776 117.555 19.0626C122.159 16.1024 126.745 13.1032 131.311 10.0651C126.843 7.16758 122.376 4.27008 117.908 1.37258C117.444 1.05063 117.13 0.567712 116.967 -0.0761719C119.436 -0.0761719 121.905 -0.0761719 124.374 -0.0761719C127.826 2.22624 131.295 4.51374 134.78 6.78633C135.663 4.49477 136.544 2.20727 137.425 -0.0761719C138.836 -0.0761719 140.247 -0.0761719 141.658 -0.0761719C140.397 3.34509 139.104 6.75092 137.778 10.1413C145.586 30.4475 153.424 50.73 161.292 70.9888C169.141 50.7808 176.96 30.5492 184.748 10.2938C184.827 10.1413 184.827 9.98883 184.748 9.83633C183.472 6.52812 182.199 3.22394 180.927 -0.0761719C182.376 -0.0761719 183.827 -0.0761719 185.277 -0.0761719C186.067 2.22807 186.949 4.46474 187.922 6.63383C191.384 4.45222 194.813 2.21557 198.21 -0.0761719C200.679 -0.0761719 203.148 -0.0761719 205.617 -0.0761719C205.502 0.455934 205.267 0.888017 204.912 1.22008C200.365 4.16841 195.82 7.11675 191.273 10.0651C195.877 13.0253 200.463 16.0245 205.029 19.0626C205.248 19.3002 205.424 19.5797 205.558 19.9013C207.792 25.6963 210.026 31.4913 212.26 37.2863C214.533 31.3896 216.806 25.493 219.079 19.5963C219.255 19.3676 219.432 19.1388 219.608 18.9101C224.155 15.9618 228.7 13.0134 233.247 10.0651C228.7 7.11675 224.155 4.16841 219.608 1.22008C219.253 0.888017 219.018 0.455934 218.903 -0.0761719C221.333 -0.0761719 223.762 -0.0761719 226.192 -0.0761719C229.644 2.22624 233.112 4.51374 236.597 6.78633C237.543 4.53799 238.424 2.25049 239.243 -0.0761719C240.654 -0.0761719 242.064 -0.0761719 243.475 -0.0761719C242.307 3.26028 241.072 6.56444 239.772 9.83633C239.693 10.0397 239.693 10.243 239.772 10.4463C247.57 30.678 255.37 50.9096 263.169 71.1413C271.037 50.8825 278.875 30.6 286.683 10.2938C286.762 10.1413 286.762 9.98883 286.683 9.83633C285.408 6.52812 284.134 3.22394 282.862 -0.0761719C284.312 -0.0761719 285.763 -0.0761719 287.212 -0.0761719C288.002 2.22807 288.884 4.46474 289.858 6.63383C293.319 4.45222 296.749 2.21557 300.145 -0.0761719C302.614 -0.0761719 305.083 -0.0761719 307.552 -0.0761719C307.437 0.455934 307.202 0.888017 306.847 1.22008C302.3 4.16841 297.755 7.11675 293.208 10.0651C297.813 13.0253 302.398 16.0245 306.964 19.0626C307.183 19.3002 307.359 19.5797 307.493 19.9013C309.727 25.6963 311.961 31.4913 314.195 37.2863C316.468 31.3896 318.742 25.493 321.014 19.5963C321.191 19.3676 321.367 19.1388 321.543 18.9101C326.09 15.9618 330.635 13.0134 335.182 10.0651C330.635 7.11675 326.09 4.16841 321.543 1.22008C321.188 0.888017 320.953 0.455934 320.838 -0.0761719C323.268 -0.0761719 325.697 -0.0761719 328.127 -0.0761719C331.579 2.22624 335.048 4.51374 338.533 6.78633C339.478 4.53799 340.36 2.25049 341.178 -0.0761719C342.589 -0.0761719 344 -0.0761719 345.411 -0.0761719C344.242 3.26028 343.007 6.56444 341.707 9.83633C341.628 10.0397 341.628 10.243 341.707 10.4463C349.506 30.678 357.305 50.9096 365.104 71.1413C372.972 50.8825 380.81 30.6 388.618 10.2938C388.697 10.1413 388.697 9.98883 388.618 9.83633C387.343 6.52812 386.069 3.22394 384.797 -0.0761719C386.247 -0.0761719 387.698 -0.0761719 389.148 -0.0761719C389.938 2.22807 390.819 4.46474 391.793 6.63383C395.254 4.45222 398.684 2.21557 402.081 -0.0761719C404.55 -0.0761719 407.019 -0.0761719 409.488 -0.0761719C409.372 0.455934 409.137 0.888017 408.782 1.22008C404.236 4.16841 399.69 7.11675 395.144 10.0651C399.748 13.0253 404.333 16.0245 408.9 19.0626C409.118 19.3002 409.295 19.5797 409.429 19.9013C411.663 25.6963 413.897 31.4913 416.13 37.2863C418.403 31.3896 420.677 25.493 422.95 19.5963C423.159 19.2471 423.413 18.9929 423.714 18.8338C423.714 22.1888 423.714 25.5438 423.714 28.8988C422.025 33.101 420.379 37.3455 418.776 41.6326C420.37 42.8442 422.016 43.9372 423.714 44.9113C423.714 46.7921 423.714 48.673 423.714 50.5538C421.248 48.9546 418.779 47.3533 416.307 45.7501C416.189 45.6484 416.072 45.6484 415.954 45.7501C400.338 55.8523 384.74 65.9935 369.16 76.1738C384.779 86.3794 400.416 96.5462 416.072 106.674C418.608 105.004 421.154 103.377 423.714 101.794C423.714 103.624 423.714 105.454 423.714 107.284C422.031 108.375 420.347 109.468 418.658 110.563C420.332 114.879 422.017 119.175 423.714 123.449C423.714 126.804 423.714 130.159 423.714 133.514C423.413 133.355 423.159 133.101 422.95 132.751C420.677 126.855 418.403 120.958 416.13 115.061C413.848 121.032 411.536 126.98 409.194 132.904C409.01 133.187 408.795 133.416 408.547 133.59C404.079 136.488 399.611 139.385 395.144 142.283C399.69 145.231 404.236 148.179 408.782 151.128C408.958 151.356 409.135 151.585 409.311 151.814C411.584 157.711 413.858 163.607 416.13 169.504C418.403 163.607 420.677 157.711 422.95 151.814C423.159 151.465 423.413 151.21 423.714 151.051C423.714 154.356 423.714 157.659 423.714 160.964C422.017 165.238 420.332 169.533 418.658 173.85C420.314 175.024 421.998 176.118 423.714 177.129C423.714 179.009 423.714 180.891 423.714 182.771C421.248 181.172 418.779 179.57 416.307 177.968C416.15 177.865 415.993 177.865 415.836 177.968C400.238 188.083 384.641 198.2 369.043 208.315C384.661 218.52 400.298 228.688 415.954 238.815C416.072 238.917 416.189 238.917 416.307 238.815C418.779 237.212 421.248 235.611 423.714 234.011C423.714 235.841 423.714 237.671 423.714 239.501C422.031 240.592 420.347 241.685 418.658 242.78C420.332 247.097 422.017 251.392 423.714 255.666C423.714 259.021 423.714 262.376 423.714 265.731C423.41 265.568 423.157 265.315 422.95 264.969C420.677 259.072 418.403 253.176 416.13 247.279C413.788 253.202 411.476 259.149 409.194 265.121C409.096 265.248 408.997 265.376 408.9 265.503C404.296 268.463 399.71 271.462 395.144 274.5C399.69 277.448 404.236 280.397 408.782 283.345C408.958 283.574 409.135 283.803 409.311 284.031C411.584 289.928 413.858 295.824 416.13 301.721C418.456 295.611 420.827 289.537 423.244 283.498C423.389 283.377 423.547 283.301 423.714 283.269C423.714 286.574 423.714 289.877 423.714 293.181C422.017 297.456 420.332 301.75 418.658 306.068C420.314 307.242 421.998 308.335 423.714 309.346C423.714 311.176 423.714 313.006 423.714 314.836C421.165 313.272 418.637 311.646 416.13 309.956C400.444 320.168 384.748 330.359 369.043 340.533C384.748 350.706 400.444 360.897 416.13 371.109C418.637 369.419 421.165 367.793 423.714 366.229C423.714 368.059 423.714 369.889 423.714 371.719C421.998 372.73 420.314 373.823 418.658 374.998C420.332 379.315 422.017 383.609 423.714 387.884C423.714 391.239 423.714 394.594 423.714 397.949C423.328 397.728 423.034 397.372 422.832 396.881C420.63 391.016 418.396 385.171 416.13 379.344C413.818 385.342 411.506 391.341 409.194 397.339C409.028 397.536 408.852 397.712 408.665 397.873C404.178 400.756 399.71 403.68 395.261 406.641C399.71 409.603 404.178 412.526 408.665 415.41C408.804 415.616 408.961 415.794 409.135 415.944C411.466 421.891 413.799 427.839 416.13 433.786C418.364 427.991 420.598 422.196 422.832 416.401C423.034 415.91 423.328 415.555 423.714 415.334C423.714 418.689 423.714 422.044 423.714 425.399C422.017 429.673 420.332 433.968 418.658 438.285C420.347 439.38 422.031 440.473 423.714 441.564C423.714 443.394 423.714 445.224 423.714 447.054C421.165 445.489 418.637 443.864 416.13 442.174C400.465 452.347 384.808 462.539 369.16 472.75C384.844 482.884 400.502 493.075 416.13 503.326C418.67 501.666 421.198 499.988 423.714 498.294C423.714 500.174 423.714 502.056 423.714 503.936C422.031 505.027 420.347 506.12 418.658 507.215C420.332 511.532 422.017 515.827 423.714 520.101C423.714 523.456 423.714 526.811 423.714 530.166C423.492 529.983 423.275 529.781 423.067 529.556C420.755 523.559 418.443 517.559 416.13 511.561C413.858 517.458 411.584 523.354 409.311 529.251C409.096 529.53 408.88 529.811 408.665 530.09C404.178 532.974 399.71 535.897 395.261 538.859C399.71 541.82 404.178 544.744 408.665 547.628C409.09 547.899 409.364 548.332 409.488 548.924C406.98 548.924 404.471 548.924 401.963 548.924C398.579 546.653 395.17 544.416 391.734 542.214C390.809 544.411 389.947 546.649 389.148 548.924C387.698 548.924 386.247 548.924 384.797 548.924C386.069 545.624 387.343 542.319 388.618 539.011C388.697 538.859 388.697 538.706 388.618 538.554C380.83 518.299 373.012 498.067 365.163 477.859C357.314 498.067 349.495 518.299 341.707 538.554C341.628 538.757 341.628 538.961 341.707 539.164C342.975 542.401 344.209 545.656 345.411 548.924C344 548.924 342.589 548.924 341.178 548.924C340.336 546.638 339.434 544.401 338.474 542.214C335.038 544.416 331.629 546.653 328.245 548.924C325.776 548.924 323.307 548.924 320.838 548.924C320.959 548.486 321.154 548.105 321.426 547.78C325.99 544.846 330.537 541.872 335.064 538.859C330.615 535.897 326.148 532.974 321.661 530.09C321.474 529.93 321.298 529.753 321.132 529.556C318.819 523.559 316.508 517.559 314.195 511.561C311.922 517.458 309.649 523.354 307.376 529.251C307.161 529.53 306.944 529.811 306.729 530.09C302.243 532.974 297.775 535.897 293.326 538.859C297.775 541.82 302.243 544.744 306.729 547.628C307.155 547.899 307.429 548.332 307.552 548.924C305.044 548.924 302.535 548.924 300.028 548.924C296.644 546.653 293.234 544.416 289.799 542.214C288.874 544.411 288.012 546.649 287.212 548.924C285.763 548.924 284.312 548.924 282.862 548.924C284.134 545.624 285.408 542.319 286.683 539.011C286.762 538.859 286.762 538.706 286.683 538.554C278.895 518.299 271.077 498.067 263.227 477.859C255.378 498.067 247.56 518.299 239.772 538.554C239.693 538.757 239.693 538.961 239.772 539.164C241.039 542.401 242.274 545.656 243.475 548.924C242.064 548.924 240.654 548.924 239.243 548.924C238.401 546.638 237.499 544.401 236.539 542.214C233.103 544.416 229.693 546.653 226.31 548.924C223.841 548.924 221.372 548.924 218.903 548.924C219.024 548.486 219.219 548.105 219.491 547.78C224.055 544.846 228.601 541.872 233.129 538.859C228.68 535.897 224.212 532.974 219.726 530.09C219.539 529.93 219.362 529.753 219.197 529.556C216.884 523.559 214.572 517.559 212.26 511.561C209.987 517.458 207.713 523.354 205.441 529.251C205.225 529.53 205.009 529.811 204.794 530.09C200.307 532.974 195.84 535.897 191.391 538.859C195.84 541.82 200.307 544.744 204.794 547.628C205.22 547.899 205.494 548.332 205.617 548.924C203.109 548.924 200.6 548.924 198.092 548.924C194.709 546.653 191.299 544.416 187.864 542.214C186.938 544.411 186.076 546.649 185.277 548.924C183.827 548.924 182.376 548.924 180.927 548.924C182.199 545.624 183.472 542.319 184.748 539.011C184.827 538.859 184.827 538.706 184.748 538.554C176.949 518.322 169.15 498.091 161.351 477.859C153.463 498.169 145.606 518.502 137.778 538.859C139.072 542.218 140.365 545.573 141.658 548.924C140.208 548.924 138.757 548.924 137.307 548.924C136.508 546.649 135.646 544.411 134.721 542.214C131.285 544.416 127.876 546.653 124.492 548.924C121.984 548.924 119.475 548.924 116.967 548.924C117.172 548.428 117.447 547.997 117.79 547.628C122.316 544.718 126.822 541.77 131.311 538.783C126.765 535.835 122.219 532.885 117.673 529.938C117.536 529.759 117.399 529.582 117.261 529.404C114.999 523.484 112.706 517.587 110.383 511.714C108.061 517.587 105.768 523.484 103.505 529.404C103.368 529.582 103.231 529.759 103.094 529.938C98.5294 532.872 93.9833 535.845 89.4554 538.859C93.9833 541.872 98.5294 544.846 103.094 547.78C103.411 548.064 103.607 548.445 103.682 548.924C101.213 548.924 98.7437 548.924 96.2747 548.924C92.8906 546.653 89.481 544.416 86.0458 542.214C85.0849 544.401 84.1835 546.638 83.3417 548.924C81.9308 548.924 80.5199 548.924 79.1091 548.924C80.354 545.515 81.6473 542.136 82.989 538.783C75.1162 518.436 67.2584 498.077 59.4157 477.706C51.558 498.091 43.7001 518.474 35.8424 538.859C37.1372 542.218 38.4305 545.573 39.7223 548.924C38.2723 548.924 36.8222 548.924 35.3721 548.924C34.5732 546.649 33.7111 544.411 32.7855 542.214C29.3504 544.416 25.9408 546.653 22.5567 548.924C20.0486 548.924 17.5403 548.924 15.0321 548.924C15.237 548.428 15.5114 547.997 15.8551 547.628C20.3804 544.718 24.8873 541.77 29.3759 538.783C24.8298 535.835 20.2837 532.885 15.7375 529.938C15.6003 529.759 15.4632 529.582 15.326 529.404C13.0635 523.484 10.7708 517.587 8.44805 511.714C6.12532 517.587 3.83266 523.484 1.57006 529.404C1.28039 529.884 0.908075 530.189 0.453125 530.319C0.453125 527.219 0.453125 524.117 0.453125 521.016C2.2674 516.437 4.07018 511.837 5.86146 507.215C4.07391 505.98 2.27114 504.784 0.453125 503.631C0.453125 501.801 0.453125 499.971 0.453125 498.141C3.10138 499.846 5.74676 501.574 8.38926 503.326C24.076 493.115 39.7719 482.923 55.477 472.75C39.7719 462.577 24.076 452.385 8.38926 442.174C5.74989 443.923 3.10451 445.652 0.453125 447.359C0.453125 445.529 0.453125 443.699 0.453125 441.869C2.27114 440.716 4.07391 439.52 5.86146 438.285C4.07018 433.663 2.2674 429.063 0.453125 424.484C0.453125 421.384 0.453125 418.282 0.453125 415.181C0.908075 415.311 1.28039 415.616 1.57006 416.096C3.84313 421.993 6.1162 427.889 8.38926 433.786C10.6532 428.066 12.8871 422.321 15.0909 416.554C15.2623 416.179 15.4778 415.848 15.7375 415.563C20.2837 412.615 24.8298 409.665 29.3759 406.718C24.8873 403.73 20.3804 400.782 15.8551 397.873C15.6396 397.594 15.424 397.313 15.2085 397.034C13.017 391.146 10.7635 385.299 8.44805 379.496C6.12532 385.369 3.83266 391.266 1.57006 397.186C1.28039 397.667 0.908075 397.972 0.453125 398.101C0.453125 395.051 0.453125 392.001 0.453125 388.951C2.23549 384.302 4.03827 379.65 5.86146 374.998C4.07391 373.762 2.27114 372.567 0.453125 371.414C0.453125 369.584 0.453125 367.754 0.453125 365.924C3.0516 367.533 5.6382 369.184 8.2129 370.88C8.36966 370.982 8.52643 370.982 8.68319 370.88C24.2812 360.765 39.879 350.648 55.477 340.533C39.879 330.417 24.2812 320.3 8.68319 310.185C8.52643 310.083 8.36966 310.083 8.2129 310.185C5.6382 311.881 3.0516 313.532 0.453125 315.141C0.453125 313.311 0.453125 311.481 0.453125 309.651C2.27114 308.498 4.07391 307.303 5.86146 306.068C4.07018 301.445 2.2674 296.846 0.453125 292.266C0.453125 289.166 0.453125 286.064 0.453125 282.964C0.868403 283.17 1.24072 283.475 1.57006 283.879C3.83266 289.799 6.12532 295.696 8.44805 301.569C10.7708 295.696 13.0635 289.799 15.326 283.879C15.4632 283.7 15.6003 283.523 15.7375 283.345C20.2837 280.397 24.8298 277.448 29.3759 274.5C24.7515 271.45 20.1269 268.4 15.5024 265.35C13.1164 259.339 10.7453 253.315 8.38926 247.279C6.1162 253.176 3.84313 259.072 1.57006 264.969C1.27819 265.475 0.905875 265.832 0.453125 266.036C0.453125 262.936 0.453125 259.834 0.453125 256.734C2.28242 252.141 4.0852 247.515 5.86146 242.856C4.08888 241.606 2.2861 240.436 0.453125 239.349C0.453125 237.469 0.453125 235.587 0.453125 233.706C3.11498 235.433 5.77996 237.16 8.44805 238.891C24.1426 228.738 39.819 218.546 55.477 208.315C39.879 198.2 24.2812 188.083 8.68319 177.968C8.52643 177.865 8.36966 177.865 8.2129 177.968C5.6382 179.663 3.0516 181.315 0.453125 182.924C0.453125 181.094 0.453125 179.264 0.453125 177.434C2.27114 176.281 4.07391 175.085 5.86146 173.85C4.07018 169.228 2.2674 164.628 0.453125 160.049C0.453125 156.949 0.453125 153.847 0.453125 150.746C0.986517 150.952 1.39802 151.358 1.68764 151.966C3.91105 157.786 6.16451 163.581 8.44805 169.351C10.7708 163.479 13.0635 157.581 15.326 151.661C15.424 151.534 15.522 151.407 15.62 151.28C20.1871 148.242 24.7724 145.243 29.3759 142.283C24.8088 139.244 20.2235 136.245 15.62 133.285C15.522 133.158 15.424 133.031 15.326 132.904C13.0635 126.983 10.7708 121.087 8.44805 115.214C6.16451 120.985 3.91105 126.78 1.68764 132.599C1.36031 133.151 0.948806 133.557 0.453125 133.819C0.453125 130.718 0.453125 127.617 0.453125 124.516C2.28242 119.923 4.0852 115.298 5.86146 110.639C4.08888 109.388 2.2861 108.218 0.453125 107.131C0.453125 105.251 0.453125 103.37 0.453125 101.489C3.11498 103.215 5.77996 104.943 8.44805 106.674C24.1034 96.5462 39.7405 86.3794 55.3594 76.1738C39.7797 65.9935 24.1818 55.8523 8.56562 45.7501C8.44805 45.6484 8.33048 45.6484 8.2129 45.7501C5.6382 47.4453 3.0516 49.0975 0.453125 50.7063C0.453125 48.8763 0.453125 47.0463 0.453125 45.2163C2.2861 44.1293 4.08888 42.9601 5.86146 41.7088C4.0852 37.05 2.28242 32.4242 0.453125 27.8313C0.453125 24.7305 0.453125 21.6296 0.453125 18.5288C0.948806 18.7904 1.36031 19.1969 1.68764 19.7488C3.91105 25.5675 6.16451 31.3625 8.44805 37.1338C10.7316 31.3625 12.9851 25.5675 15.2085 19.7488C15.3314 19.5064 15.4687 19.2776 15.62 19.0626C20.2235 16.1024 24.8088 13.1032 29.3759 10.0651C24.9082 7.16758 20.4404 4.27008 15.9727 1.37258C15.5087 1.05063 15.1952 0.567712 15.0321 -0.0761719ZM32.7855 13.3438C40.1525 32.2006 47.4224 51.1106 54.5952 70.0738C40.0659 60.6383 25.5457 51.1833 11.0346 41.7088C13.4449 35.4563 15.8551 29.2038 18.2653 22.9513C23.1035 19.7247 27.9434 16.5222 32.7855 13.3438ZM134.721 13.3438C142.088 32.2006 149.357 51.1106 156.531 70.0738C142.001 60.6383 127.481 51.1833 112.97 41.7088C115.38 35.4563 117.79 29.2038 120.201 22.9513C125.039 19.7247 129.879 16.5222 134.721 13.3438ZM85.9283 13.4963C90.7999 16.5794 95.6595 19.7057 100.507 22.8751C102.952 29.1412 105.382 35.4191 107.797 41.7088C93.2857 51.1833 78.7655 60.6383 64.2362 70.0738C71.3979 51.1904 78.6286 32.3311 85.9283 13.4963ZM166.113 69.9213C173.29 51.1483 180.501 32.3908 187.746 13.6488C187.847 13.4837 187.965 13.4583 188.099 13.5726C192.84 16.648 197.583 19.7234 202.325 22.7988C204.766 28.9768 207.176 35.1785 209.556 41.4038C209.644 41.5769 209.624 41.7294 209.497 41.8613C195.047 51.2578 180.586 60.6111 166.113 69.9213ZM258.407 69.9213C243.934 60.6111 229.472 51.2578 215.023 41.8613C214.896 41.7294 214.876 41.5769 214.964 41.4038C217.335 35.253 219.706 29.1021 222.077 22.9513C226.84 19.786 231.622 16.6598 236.421 13.5726C236.555 13.4583 236.673 13.4837 236.774 13.6488C244.018 32.3908 251.229 51.1483 258.407 69.9213ZM268.048 69.9213C275.226 51.1483 282.436 32.3908 289.681 13.6488C289.782 13.4837 289.9 13.4583 290.034 13.5726C294.776 16.648 299.519 19.7234 304.26 22.7988C306.701 28.9768 309.111 35.1785 311.491 41.4038C311.579 41.5769 311.559 41.7294 311.432 41.8613C296.983 51.2578 282.521 60.6111 268.048 69.9213ZM360.342 69.9213C345.869 60.6111 331.408 51.2578 316.958 41.8613C316.831 41.7294 316.811 41.5769 316.899 41.4038C319.271 35.253 321.641 29.1021 324.012 22.9513C328.775 19.786 333.557 16.6598 338.356 13.5726C338.49 13.4583 338.608 13.4837 338.709 13.6488C345.954 32.3908 353.164 51.1483 360.342 69.9213ZM369.983 69.9213C377.161 51.1483 384.372 32.3908 391.617 13.6488C391.718 13.4837 391.835 13.4583 391.969 13.5726C396.711 16.648 401.454 19.7234 406.196 22.7988C408.636 28.9768 411.047 35.1785 413.426 41.4038C413.514 41.5769 413.494 41.7294 413.367 41.8613C398.918 51.2578 384.456 60.6111 369.983 69.9213ZM110.148 45.6738C125.908 55.7161 141.622 65.8828 157.295 76.1738C141.676 86.3794 126.039 96.5462 110.383 106.674C94.6888 96.5207 79.0124 86.3287 63.3544 76.0976C78.9777 65.9906 94.5756 55.8494 110.148 45.6738ZM212.083 45.6738C227.824 55.7297 243.54 65.8709 259.23 76.0976C243.572 86.3287 227.896 96.5207 212.201 106.674C196.545 96.5462 180.908 86.3794 165.29 76.1738C180.895 66.0025 196.492 55.8358 212.083 45.6738ZM314.019 45.6738C329.759 55.7297 345.475 65.8709 361.165 76.0976C345.507 86.3287 329.831 96.5207 314.136 106.674C298.48 96.5462 282.843 86.3794 267.225 76.1738C282.83 66.0025 298.427 55.8358 314.019 45.6738ZM59.3569 81.2063C67.2458 101.544 75.1231 121.903 82.989 142.283C75.1162 162.629 67.2584 182.988 59.4157 203.359C51.558 182.974 43.7001 162.591 35.8424 142.206C43.6822 121.869 51.5204 101.536 59.3569 81.2063ZM263.11 81.2063C271.06 101.499 278.938 121.858 286.742 142.283C278.949 162.623 271.112 182.931 263.227 203.206C255.327 182.915 247.489 162.582 239.713 142.206C247.513 121.87 255.312 101.537 263.11 81.2063ZM365.045 81.2063C372.995 101.499 380.873 121.858 388.677 142.283C380.885 162.623 373.047 182.931 365.163 203.206C357.262 182.915 349.425 162.582 341.648 142.206C349.448 121.87 357.248 101.537 365.045 81.2063ZM161.175 81.3588C161.278 81.3389 161.356 81.3896 161.41 81.5113C169.225 101.759 177.023 122.016 184.807 142.283C177.005 162.6 169.186 182.909 161.351 203.206C153.463 182.896 145.606 162.564 137.778 142.206C145.61 121.939 153.409 101.657 161.175 81.3588ZM54.4189 82.2738C54.5058 82.2539 54.5842 82.2793 54.654 82.3501C47.3371 101.204 40.0673 120.088 32.8443 139.004C28.0525 135.858 23.2517 132.732 18.4417 129.625C15.8765 123.301 13.4271 116.922 11.0934 110.486C25.5515 101.097 39.9933 91.6928 54.4189 82.2738ZM64.1774 82.2738C78.7323 91.6878 93.2721 101.143 107.797 110.639C105.387 116.891 102.976 123.144 100.566 129.396C95.7114 132.634 90.8321 135.76 85.9283 138.775C78.6297 119.969 71.3794 101.135 64.1774 82.2738ZM156.354 82.2738C156.441 82.2539 156.52 82.2793 156.589 82.3501C149.273 101.204 142.002 120.088 134.78 139.004C129.987 135.858 125.187 132.732 120.377 129.625C117.812 123.301 115.362 116.922 113.029 110.486C127.487 101.097 141.929 91.6928 156.354 82.2738ZM165.995 82.4263C166.002 82.3435 166.041 82.2927 166.113 82.2738C180.653 91.7034 195.192 101.133 209.732 110.563C207.288 116.829 204.857 123.107 202.443 129.396C197.68 132.562 192.898 135.688 188.099 138.775C187.965 138.889 187.847 138.864 187.746 138.699C180.522 119.908 173.272 101.151 165.995 82.4263ZM258.289 82.2738C258.353 82.283 258.393 82.3338 258.407 82.4263C251.165 101.165 243.953 119.922 236.774 138.699C236.673 138.864 236.555 138.889 236.421 138.775C231.679 135.7 226.936 132.624 222.195 129.549C219.71 123.232 217.241 116.903 214.788 110.563C229.314 101.167 243.814 91.7378 258.289 82.2738ZM267.93 82.4263C267.937 82.3435 267.976 82.2927 268.048 82.2738C282.588 91.7034 297.127 101.133 311.667 110.563C309.223 116.829 306.793 123.107 304.378 129.396C299.615 132.562 294.833 135.688 290.034 138.775C289.9 138.889 289.782 138.864 289.681 138.699C282.458 119.908 275.207 101.151 267.93 82.4263ZM360.225 82.2738C360.288 82.283 360.328 82.3338 360.342 82.4263C353.1 101.165 345.888 119.922 338.709 138.699C338.608 138.864 338.49 138.889 338.356 138.775C333.615 135.7 328.872 132.624 324.13 129.549C321.646 123.232 319.177 116.903 316.723 110.563C331.249 101.167 345.749 91.7378 360.225 82.2738ZM369.866 82.4263C369.873 82.3435 369.912 82.2927 369.983 82.2738C384.523 91.7034 399.062 101.133 413.603 110.563C411.158 116.829 408.728 123.107 406.313 129.396C401.55 132.562 396.769 135.688 391.969 138.775C391.835 138.889 391.718 138.864 391.617 138.699C384.393 119.908 377.142 101.151 369.866 82.4263ZM212.201 115.061C214.521 120.925 216.813 126.822 219.079 132.751C219.255 132.98 219.432 133.209 219.608 133.438C224.155 136.386 228.7 139.334 233.247 142.283C228.7 145.231 224.155 148.179 219.608 151.128C219.432 151.356 219.255 151.585 219.079 151.814C216.806 157.711 214.533 163.607 212.26 169.504C209.987 163.607 207.713 157.711 205.441 151.814C205.264 151.585 205.088 151.356 204.912 151.128C200.365 148.179 195.82 145.231 191.273 142.283C195.741 139.385 200.209 136.488 204.676 133.59C204.924 133.416 205.14 133.187 205.323 132.904C207.679 126.996 209.972 121.048 212.201 115.061ZM314.136 115.061C316.456 120.925 318.749 126.822 321.014 132.751C321.191 132.98 321.367 133.209 321.543 133.438C326.09 136.386 330.635 139.334 335.182 142.283C330.635 145.231 326.09 148.179 321.543 151.128C321.367 151.356 321.191 151.585 321.014 151.814C318.742 157.711 316.468 163.607 314.195 169.504C311.922 163.607 309.649 157.711 307.376 151.814C307.2 151.585 307.023 151.356 306.847 151.128C302.3 148.179 297.755 145.231 293.208 142.283C297.676 139.385 302.144 136.488 306.612 133.59C306.86 133.416 307.075 133.187 307.258 132.904C309.615 126.996 311.907 121.048 314.136 115.061ZM110.266 115.214C110.369 115.194 110.447 115.245 110.501 115.366C112.777 121.399 115.129 127.372 117.555 133.285C122.159 136.245 126.745 139.244 131.311 142.283C126.707 145.243 122.122 148.242 117.555 151.28C117.457 151.407 117.359 151.534 117.261 151.661C114.999 157.581 112.706 163.479 110.383 169.351C108.1 163.581 105.846 157.786 103.623 151.966C103.5 151.724 103.363 151.495 103.211 151.28C98.5869 148.281 93.9623 145.282 89.3379 142.283C93.9807 139.297 98.6052 136.272 103.211 133.209C105.686 127.297 108.038 121.299 110.266 115.214ZM32.7855 145.561C40.1525 164.418 47.4224 183.328 54.5952 202.291C40.0443 192.867 25.5242 183.387 11.0346 173.85C13.4094 167.613 15.8 161.386 18.2066 155.169C23.0734 151.962 27.9331 148.759 32.7855 145.561ZM85.9283 145.561C90.7456 148.686 95.566 151.812 100.39 154.94C102.889 161.22 105.358 167.523 107.797 173.85C93.2908 183.384 78.7511 192.789 64.1774 202.063C71.4759 183.256 78.7263 164.423 85.9283 145.561ZM134.721 145.561C142.088 164.418 149.357 183.328 156.531 202.291C141.98 192.867 127.46 183.387 112.97 173.85C115.345 167.613 117.735 161.386 120.142 155.169C125.008 151.962 129.869 148.759 134.721 145.561ZM166.113 202.139C173.29 183.366 180.501 164.609 187.746 145.866C187.847 145.701 187.965 145.676 188.099 145.79C192.84 148.866 197.583 151.941 202.325 155.016C204.766 161.194 207.176 167.396 209.556 173.621C209.644 173.795 209.624 173.948 209.497 174.079C195.047 183.476 180.586 192.829 166.113 202.139ZM258.407 202.139C243.837 192.791 229.297 183.362 214.788 173.85C217.213 167.634 219.623 161.408 222.018 155.169C226.811 152.023 231.611 148.897 236.421 145.79C236.555 145.676 236.673 145.701 236.774 145.866C244.018 164.609 251.229 183.366 258.407 202.139ZM268.048 202.139C275.226 183.366 282.436 164.609 289.681 145.866C289.782 145.701 289.9 145.676 290.034 145.79C294.776 148.866 299.519 151.941 304.26 155.016C306.701 161.194 309.111 167.396 311.491 173.621C311.579 173.795 311.559 173.948 311.432 174.079C296.983 183.476 282.521 192.829 268.048 202.139ZM360.342 202.139C345.773 192.791 331.233 183.362 316.723 173.85C319.148 167.634 321.559 161.408 323.954 155.169C328.746 152.023 333.546 148.897 338.356 145.79C338.49 145.676 338.608 145.701 338.709 145.866C345.954 164.609 353.164 183.366 360.342 202.139ZM369.983 202.139C377.161 183.366 384.372 164.609 391.617 145.866C391.718 145.701 391.835 145.676 391.969 145.79C396.711 148.866 401.454 151.941 406.196 155.016C408.636 161.194 411.047 167.396 413.426 173.621C413.514 173.795 413.494 173.948 413.367 174.079C398.918 183.476 384.456 192.829 369.983 202.139ZM110.148 177.891C110.31 177.867 110.466 177.893 110.618 177.968C126.217 188.083 141.814 198.2 157.412 208.315C141.754 218.546 126.078 228.738 110.383 238.891C94.6888 228.738 79.0124 218.546 63.3544 208.315C78.9777 198.209 94.5756 188.068 110.148 177.891ZM211.966 177.891C212.127 177.867 212.285 177.893 212.436 177.968C228.035 188.083 243.632 198.2 259.23 208.315C243.668 218.56 228.071 228.726 212.436 238.815C212.319 238.917 212.201 238.917 212.083 238.815C196.428 228.688 180.79 218.52 165.172 208.315C180.795 198.209 196.393 188.068 211.966 177.891ZM313.901 177.891C314.062 177.867 314.22 177.893 314.371 177.968C329.97 188.083 345.567 198.2 361.165 208.315C345.603 218.56 330.006 228.726 314.371 238.815C314.254 238.917 314.136 238.917 314.019 238.815C298.363 228.688 282.726 218.52 267.107 208.315C282.73 198.209 298.329 188.068 313.901 177.891ZM59.3569 213.271C67.2138 233.679 75.0912 254.088 82.989 274.5C75.1162 294.847 67.2584 315.205 59.4157 335.576C51.558 315.192 43.7001 294.809 35.8424 274.424C43.7138 254.056 51.552 233.671 59.3569 213.271ZM161.292 213.424C169.141 233.76 176.979 254.118 184.807 274.5C177.005 294.818 169.186 315.126 161.351 335.424C153.463 315.114 145.606 294.781 137.778 274.424C145.617 254.086 153.456 233.754 161.292 213.424ZM263.11 213.424C271.054 233.702 278.932 254.061 286.742 274.5C278.949 294.841 271.112 315.149 263.227 335.424C255.327 315.132 247.489 294.799 239.713 274.424C247.513 254.088 255.312 233.755 263.11 213.424ZM365.045 213.424C372.99 233.702 380.867 254.061 388.677 274.5C380.885 294.841 373.047 315.149 365.163 335.424C357.262 315.132 349.425 294.799 341.648 274.424C349.448 254.088 357.248 233.755 365.045 213.424ZM54.4189 214.491C54.5058 214.472 54.5842 214.497 54.654 214.568C47.4395 233.461 40.15 252.295 32.7855 271.069C27.9651 267.943 23.1446 264.816 18.3241 261.69C15.8792 255.424 13.4495 249.145 11.0346 242.856C25.5214 233.436 39.9829 223.981 54.4189 214.491ZM64.1774 214.491C78.7292 223.904 93.2689 233.359 107.797 242.856C105.387 249.109 102.976 255.361 100.566 261.614C95.7114 264.851 90.8321 267.978 85.9283 270.993C78.6297 252.186 71.3794 233.353 64.1774 214.491ZM156.354 214.491C156.441 214.472 156.52 214.497 156.589 214.568C149.375 233.461 142.086 252.295 134.721 271.069C129.9 267.943 125.08 264.816 120.259 261.69C117.814 255.424 115.385 249.145 112.97 242.856C127.457 233.436 141.919 223.981 156.354 214.491ZM165.995 214.644C166.002 214.561 166.041 214.51 166.113 214.491C180.555 223.934 195.017 233.339 209.497 242.704C209.624 242.835 209.644 242.987 209.556 243.161C207.184 249.312 204.814 255.464 202.443 261.614C197.68 264.78 192.898 267.906 188.099 270.993C187.965 271.107 187.847 271.081 187.746 270.916C180.522 252.125 173.272 233.368 165.995 214.644ZM258.289 214.491C258.353 214.5 258.393 214.551 258.407 214.644C251.228 233.42 244.016 252.177 236.774 270.916C236.673 271.081 236.555 271.107 236.421 270.993C231.679 267.917 226.936 264.842 222.195 261.766C219.71 255.45 217.241 249.121 214.788 242.78C229.314 233.385 243.814 223.955 258.289 214.491ZM267.93 214.644C267.937 214.561 267.976 214.51 268.048 214.491C282.491 223.934 296.952 233.339 311.432 242.704C311.559 242.835 311.579 242.987 311.491 243.161C309.12 249.312 306.749 255.464 304.378 261.614C299.615 264.78 294.833 267.906 290.034 270.993C289.9 271.107 289.782 271.081 289.681 270.916C282.458 252.125 275.207 233.368 267.93 214.644ZM360.225 214.491C360.288 214.5 360.328 214.551 360.342 214.644C353.163 233.42 345.951 252.177 338.709 270.916C338.608 271.081 338.49 271.107 338.356 270.993C333.615 267.917 328.872 264.842 324.13 261.766C321.646 255.45 319.177 249.121 316.723 242.78C331.249 233.385 345.749 223.955 360.225 214.491ZM369.866 214.644C369.873 214.561 369.912 214.51 369.983 214.491C384.426 223.934 398.887 233.339 413.367 242.704C413.494 242.835 413.514 242.987 413.426 243.161C411.055 249.312 408.685 255.464 406.313 261.614C401.55 264.78 396.769 267.906 391.969 270.993C391.835 271.107 391.718 271.081 391.617 270.916C384.393 252.125 377.142 233.368 369.866 214.644ZM110.266 247.279C112.668 253.281 115.059 259.305 117.438 265.35C122.062 268.4 126.687 271.45 131.311 274.5C126.765 277.448 122.219 280.397 117.673 283.345C117.536 283.523 117.399 283.7 117.261 283.879C114.999 289.799 112.706 295.696 110.383 301.569C108.061 295.696 105.768 289.799 103.505 283.879C103.407 283.752 103.309 283.624 103.211 283.498C98.6443 280.46 94.059 277.46 89.4554 274.5C93.9441 271.513 98.451 268.565 102.976 265.655C103.153 265.426 103.329 265.198 103.505 264.969C105.792 259.087 108.046 253.191 110.266 247.279ZM212.201 247.279C214.521 253.142 216.813 259.04 219.079 264.969C219.217 265.147 219.353 265.324 219.491 265.503C224.095 268.463 228.68 271.462 233.247 274.5C228.622 277.5 223.997 280.498 219.373 283.498C216.957 289.537 214.585 295.611 212.26 301.721C209.987 295.824 207.713 289.928 205.441 284.031C205.264 283.803 205.088 283.574 204.912 283.345C200.365 280.397 195.82 277.448 191.273 274.5C195.84 271.462 200.425 268.463 205.029 265.503C207.497 259.483 209.887 253.409 212.201 247.279ZM314.136 247.279C316.456 253.142 318.749 259.04 321.014 264.969C321.152 265.147 321.288 265.324 321.426 265.503C326.03 268.463 330.615 271.462 335.182 274.5C330.558 277.5 325.932 280.498 321.308 283.498C318.892 289.537 316.521 295.611 314.195 301.721C311.922 295.824 309.649 289.928 307.376 284.031C307.2 283.803 307.023 283.574 306.847 283.345C302.3 280.397 297.755 277.448 293.208 274.5C297.775 271.462 302.36 268.463 306.964 265.503C309.432 259.483 311.823 253.409 314.136 247.279ZM32.7855 277.779C40.0866 296.591 47.376 315.425 54.654 334.28C40.1091 325.013 25.5889 315.634 11.0934 306.144C13.3937 299.872 15.7648 293.619 18.2066 287.386C23.0734 284.179 27.9331 280.977 32.7855 277.779ZM64.1774 334.356C71.384 315.459 78.6538 296.599 85.9871 277.779C90.7788 280.925 95.5797 284.051 100.39 287.158C102.889 293.438 105.358 299.74 107.797 306.068C93.2871 315.579 78.7473 325.008 64.1774 334.356ZM134.721 277.779C142.022 296.591 149.312 315.425 156.589 334.28C142.044 325.013 127.524 315.634 113.029 306.144C115.329 299.872 117.7 293.619 120.142 287.386C125.008 284.179 129.869 280.977 134.721 277.779ZM187.746 277.779C192.617 280.862 197.477 283.989 202.325 287.158C204.769 293.424 207.2 299.702 209.614 305.991C195.154 315.521 180.654 324.976 166.113 334.356C166.074 334.33 166.034 334.306 165.995 334.28C173.294 315.474 180.544 296.64 187.746 277.779ZM258.407 334.356C243.837 325.008 229.297 315.579 214.788 306.068C217.213 299.852 219.623 293.625 222.018 287.386C226.86 284.144 231.719 280.942 236.597 277.779C243.93 296.599 251.2 315.459 258.407 334.356ZM289.681 277.779C294.552 280.862 299.413 283.989 304.26 287.158C306.705 293.424 309.135 299.702 311.55 305.991C297.09 315.521 282.589 324.976 268.048 334.356C268.009 334.33 267.969 334.306 267.93 334.28C275.229 315.474 282.479 296.64 289.681 277.779ZM360.342 334.356C345.773 325.008 331.233 315.579 316.723 306.068C319.148 299.852 321.559 293.625 323.954 287.386C328.795 284.144 333.655 280.942 338.533 277.779C345.866 296.599 353.135 315.459 360.342 334.356ZM391.617 277.779C396.488 280.862 401.348 283.989 406.196 287.158C408.64 293.424 411.07 299.702 413.485 305.991C399.025 315.521 384.525 324.976 369.983 334.356C369.944 334.33 369.904 334.306 369.866 334.28C377.165 315.474 384.414 296.64 391.617 277.779ZM212.201 309.956C227.913 320.146 243.629 330.338 259.348 340.533C243.642 350.706 227.946 360.897 212.26 371.109C196.573 360.897 180.877 350.706 165.172 340.533C180.874 330.375 196.55 320.183 212.201 309.956ZM314.136 309.956C329.849 320.146 345.565 330.338 361.283 340.533C345.578 350.706 329.882 360.897 314.195 371.109C298.509 360.897 282.813 350.706 267.107 340.533C282.809 330.375 298.485 320.183 314.136 309.956ZM110.148 310.109C110.31 310.084 110.466 310.11 110.618 310.185C126.217 320.3 141.814 330.417 157.412 340.533C141.814 350.648 126.217 360.765 110.618 370.88C110.462 370.982 110.305 370.982 110.148 370.88C94.5502 360.765 78.9523 350.648 63.3544 340.533C78.9777 330.426 94.5756 320.285 110.148 310.109ZM59.3569 345.489C67.2776 365.858 75.155 386.267 82.989 406.718C75.1162 427.064 67.2584 447.423 59.4157 467.794C51.558 447.409 43.7001 427.026 35.8424 406.641C43.7138 386.273 51.552 365.889 59.3569 345.489ZM161.292 345.641C169.205 365.939 177.043 386.298 184.807 406.718C177.005 427.035 169.186 447.344 161.351 467.641C153.463 447.331 145.606 426.999 137.778 406.641C145.617 386.304 153.456 365.971 161.292 345.641ZM263.11 345.641C263.213 345.622 263.291 345.672 263.345 345.794C271.192 366.073 278.99 386.382 286.742 406.718C278.949 427.058 271.112 447.366 263.227 467.641C255.327 447.35 247.489 427.017 239.713 406.641C247.513 386.305 255.312 365.973 263.11 345.641ZM365.045 345.641C365.149 345.622 365.226 345.672 365.28 345.794C373.127 366.073 380.926 386.382 388.677 406.718C380.885 427.058 373.047 447.366 365.163 467.641C357.262 447.35 349.425 427.017 341.648 406.641C349.448 386.305 357.248 365.973 365.045 345.641ZM54.4189 346.709C54.5058 346.689 54.5842 346.715 54.654 346.785C47.3796 365.631 40.0901 384.465 32.7855 403.286C27.9651 400.16 23.1446 397.034 18.3241 393.908C15.8282 387.611 13.418 381.282 11.0934 374.921C25.5515 365.532 39.9933 356.127 54.4189 346.709ZM64.1774 346.709C78.7473 356.057 93.2871 365.486 107.797 374.998C105.34 381.246 102.929 387.522 100.566 393.831C95.7114 397.069 90.8321 400.195 85.9283 403.21C78.6297 384.404 71.3794 365.57 64.1774 346.709ZM156.354 346.709C156.441 346.689 156.52 346.715 156.589 346.785C149.315 365.631 142.026 384.465 134.721 403.286C129.9 400.16 125.08 397.034 120.259 393.908C117.763 387.611 115.353 381.282 113.029 374.921C127.487 365.532 141.929 356.127 156.354 346.709ZM165.995 346.861C166.002 346.779 166.041 346.727 166.113 346.709C180.654 356.089 195.154 365.544 209.614 375.074C207.211 381.256 204.841 387.458 202.501 393.679C197.649 396.939 192.77 400.142 187.864 403.286C180.571 384.469 173.281 365.66 165.995 346.861ZM258.407 346.709C251.2 365.607 243.93 384.466 236.597 403.286C231.805 400.14 227.005 397.014 222.195 393.908C219.695 387.628 217.226 381.325 214.788 374.998C229.297 365.486 243.837 356.057 258.407 346.709ZM267.93 346.861C267.937 346.779 267.976 346.727 268.048 346.709C282.589 356.089 297.09 365.544 311.55 375.074C309.147 381.256 306.776 387.458 304.437 393.679C299.584 396.939 294.705 400.142 289.799 403.286C282.506 384.469 275.216 365.66 267.93 346.861ZM360.342 346.709C353.135 365.607 345.866 384.466 338.533 403.286C333.74 400.14 328.94 397.014 324.13 393.908C321.63 387.628 319.161 381.325 316.723 374.998C331.233 365.486 345.773 356.057 360.342 346.709ZM369.866 346.861C369.873 346.779 369.912 346.727 369.983 346.709C384.525 356.089 399.025 365.544 413.485 375.074C411.082 381.256 408.712 387.458 406.372 393.679C401.52 396.939 396.64 400.142 391.734 403.286C384.441 384.469 377.152 365.66 369.866 346.861ZM212.201 379.344C214.543 385.325 216.875 391.323 219.197 397.339C219.294 397.465 219.393 397.594 219.491 397.72C224.055 400.654 228.601 403.628 233.129 406.641C228.68 409.603 224.212 412.526 219.726 415.41C219.539 415.57 219.362 415.747 219.197 415.944C216.855 421.867 214.542 427.814 212.26 433.786C209.928 427.839 207.596 421.891 205.264 415.944C205.09 415.794 204.934 415.616 204.794 415.41C200.307 412.526 195.84 409.603 191.391 406.641C195.84 403.68 200.307 400.756 204.794 397.873C204.981 397.712 205.157 397.536 205.323 397.339C207.649 391.356 209.941 385.357 212.201 379.344ZM314.136 379.344C316.478 385.325 318.81 391.323 321.132 397.339C321.229 397.465 321.328 397.594 321.426 397.72C325.99 400.654 330.537 403.628 335.064 406.641C330.615 409.603 326.148 412.526 321.661 415.41C321.474 415.57 321.298 415.747 321.132 415.944C318.79 421.867 316.477 427.814 314.195 433.786C311.864 427.839 309.531 421.891 307.2 415.944C307.026 415.794 306.869 415.616 306.729 415.41C302.243 412.526 297.775 409.603 293.326 406.641C297.775 403.68 302.243 400.756 306.729 397.873C306.916 397.712 307.093 397.536 307.258 397.339C309.584 391.356 311.877 385.357 314.136 379.344ZM110.266 379.496C110.369 379.477 110.447 379.527 110.501 379.649C112.747 385.426 114.961 391.221 117.144 397.034C117.359 397.313 117.575 397.594 117.79 397.873C122.316 400.782 126.822 403.73 131.311 406.718C126.765 409.665 122.219 412.615 117.673 415.563C117.413 415.848 117.198 416.179 117.026 416.554C114.822 422.321 112.589 428.066 110.325 433.786C108.052 427.889 105.778 421.993 103.505 416.096C103.368 415.918 103.231 415.741 103.094 415.563C98.5294 412.628 93.9833 409.655 89.4554 406.641C93.9833 403.628 98.5294 400.654 103.094 397.72C103.231 397.542 103.368 397.365 103.505 397.186C105.792 391.304 108.046 385.409 110.266 379.496ZM32.668 409.996C32.771 409.977 32.8494 410.027 32.9031 410.149C40.1384 428.943 47.3886 447.726 54.654 466.498C40.1091 457.23 25.5889 447.851 11.0934 438.361C13.4134 432.037 15.804 425.734 18.2653 419.451C23.0825 416.314 27.8834 413.162 32.668 409.996ZM64.1774 466.574C71.384 447.676 78.6538 428.816 85.9871 409.996C90.7788 413.142 95.5797 416.269 100.39 419.375C102.889 425.655 105.358 431.958 107.797 438.285C93.2871 447.797 78.7473 457.226 64.1774 466.574ZM134.603 409.996C134.707 409.977 134.784 410.027 134.838 410.149C142.074 428.943 149.324 447.726 156.589 466.498C142.044 457.23 127.524 447.851 113.029 438.361C115.349 432.037 117.739 425.734 120.201 419.451C125.018 416.314 129.819 413.162 134.603 409.996ZM187.746 409.996C192.617 413.08 197.477 416.206 202.325 419.375C204.769 425.641 207.2 431.92 209.614 438.209C195.154 447.739 180.654 457.194 166.113 466.574C166.074 466.548 166.034 466.524 165.995 466.498C173.294 447.691 180.544 428.858 187.746 409.996ZM236.539 409.996C243.935 428.778 251.206 447.638 258.348 466.574C243.837 457.125 229.317 447.696 214.788 438.285C217.213 432.069 219.623 425.843 222.018 419.604C226.856 416.377 231.697 413.174 236.539 409.996ZM289.681 409.996C294.552 413.08 299.413 416.206 304.26 419.375C306.705 425.641 309.135 431.92 311.55 438.209C297.09 447.739 282.589 457.194 268.048 466.574C268.009 466.548 267.969 466.524 267.93 466.498C275.229 447.691 282.479 428.858 289.681 409.996ZM338.474 409.996C345.87 428.778 353.141 447.638 360.284 466.574C345.773 457.125 331.253 447.696 316.723 438.285C319.148 432.069 321.559 425.843 323.954 419.604C328.792 416.377 333.632 413.174 338.474 409.996ZM391.617 409.996C396.488 413.08 401.348 416.206 406.196 419.375C408.64 425.641 411.07 431.92 413.485 438.209C399.025 447.739 384.525 457.194 369.983 466.574C369.944 466.548 369.904 466.524 369.866 466.498C377.165 447.691 384.414 428.858 391.617 409.996ZM110.266 442.174C125.978 452.364 141.694 462.555 157.412 472.75C141.707 482.923 126.011 493.115 110.325 503.326C94.6952 493.075 79.0384 482.884 63.3544 472.75C78.9987 462.554 94.6358 452.361 110.266 442.174ZM212.201 442.174C227.892 452.324 243.569 462.517 259.23 472.75C243.546 482.884 227.889 493.075 212.26 503.326C196.631 493.075 180.974 482.884 165.29 472.75C180.934 462.554 196.571 452.361 212.201 442.174ZM314.136 442.174C329.828 452.324 345.505 462.517 361.165 472.75C345.481 482.884 329.824 493.075 314.195 503.326C298.566 493.075 282.909 482.884 267.225 472.75C282.869 462.554 298.506 452.361 314.136 442.174ZM54.5364 478.774C54.6003 478.783 54.6394 478.833 54.654 478.926C47.3946 497.809 40.1051 516.669 32.7855 535.504C27.9651 532.378 23.1446 529.251 18.3241 526.125C15.8282 519.828 13.418 513.5 11.0934 507.139C25.5725 497.659 40.0535 488.204 54.5364 478.774ZM156.472 478.774C156.535 478.783 156.575 478.833 156.589 478.926C149.33 497.809 142.041 516.669 134.721 535.504C129.9 532.378 125.08 529.251 120.259 526.125C117.763 519.828 115.353 513.5 113.029 507.139C127.508 497.659 141.989 488.204 156.472 478.774ZM64.1774 479.079C64.1844 478.996 64.2236 478.945 64.2949 478.926C78.8137 488.317 93.3144 497.746 107.797 507.215C105.371 513.431 102.961 519.658 100.566 525.896C95.7248 529.138 90.865 532.341 85.9871 535.504C78.6817 516.705 71.4118 497.897 64.1774 479.079ZM166.113 478.926C180.633 488.229 195.114 497.634 209.556 507.139C207.231 513.5 204.821 519.828 202.325 526.125C197.505 529.251 192.684 532.378 187.864 535.504C180.518 516.702 173.268 497.844 166.113 478.926ZM258.407 478.926C251.2 497.824 243.93 516.684 236.597 535.504C231.805 532.358 227.005 529.232 222.195 526.125C219.695 519.845 217.226 513.542 214.788 507.215C229.297 497.704 243.837 488.275 258.407 478.926ZM268.048 478.926C282.568 488.229 297.05 497.634 311.491 507.139C309.167 513.5 306.756 519.828 304.26 526.125C299.44 529.251 294.619 532.378 289.799 535.504C282.453 516.702 275.203 497.844 268.048 478.926ZM360.342 478.926C353.135 497.824 345.866 516.684 338.533 535.504C333.74 532.358 328.94 529.232 324.13 526.125C321.63 519.845 319.161 513.542 316.723 507.215C331.233 497.704 345.773 488.275 360.342 478.926ZM369.983 478.926C384.503 488.229 398.985 497.634 413.426 507.139C411.102 513.5 408.692 519.828 406.196 526.125C401.375 529.251 396.555 532.378 391.734 535.504C384.388 516.702 377.139 497.844 369.983 478.926Z" fill="#FAFAFA"/>
</svg>
