<svg width="1170" height="1247" viewBox="0 0 1170 1247" fill="none" xmlns="http://www.w3.org/2000/svg">
<path opacity="0.981" fill-rule="evenodd" clip-rule="evenodd" d="M40.6254 0.78125C47.4474 0.78125 54.2695 0.78125 61.0915 0.78125C70.6297 6.0071 80.2131 11.1991 89.8416 16.3572C92.2823 11.156 94.7187 5.96404 97.1509 0.78125C101.049 0.78125 104.948 0.78125 108.846 0.78125C105.364 8.54657 101.791 16.2769 98.1255 23.9722C119.754 70.1768 141.465 116.328 163.26 162.425C184.93 116.19 206.641 69.9809 228.394 23.7991C224.687 16.1884 221.114 8.51573 217.674 0.78125C221.572 0.78125 225.47 0.78125 229.369 0.78125C231.801 5.96404 234.237 11.156 236.678 16.3572C246.307 11.1991 255.89 6.0071 265.428 0.78125C272.142 0.78125 278.856 0.78125 285.569 0.78125C285.366 1.75559 284.933 2.62092 284.27 3.37725C271.492 10.1845 258.714 16.9918 245.937 23.7991C258.765 30.5756 271.543 37.4406 284.27 44.394C284.588 44.9067 284.968 45.3684 285.407 45.7786C291.55 58.9853 297.777 72.1383 304.086 85.2377C310.396 72.1383 316.622 58.9853 322.766 45.7786C323.106 45.2282 323.485 44.709 323.903 44.221C336.624 37.5022 349.294 30.6949 361.911 23.7991C349.567 17.2226 337.222 10.646 324.878 4.06951C323.596 3.33878 322.729 2.24269 322.279 0.78125C329.101 0.78125 335.923 0.78125 342.745 0.78125C352.283 6.0071 361.866 11.1991 371.495 16.3572C373.935 11.156 376.371 5.96404 378.804 0.78125C382.703 0.78125 386.601 0.78125 390.499 0.78125C387.017 8.54657 383.443 16.2769 379.779 23.9722C401.353 70.0615 423.011 116.097 444.751 162.079C466.438 116.213 488.041 70.2924 509.56 24.3183C509.778 23.9722 509.778 23.626 509.56 23.2799C506.035 15.7712 502.517 8.27161 499.002 0.78125C503.008 0.78125 507.017 0.78125 511.022 0.78125C513.205 6.01125 515.642 11.0879 518.331 16.0111C527.895 11.0595 537.371 5.98287 546.757 0.78125C553.579 0.78125 560.401 0.78125 567.223 0.78125C566.904 1.98898 566.255 2.96969 565.274 3.72338C552.711 10.4153 540.152 17.1072 527.59 23.7991C540.311 30.5179 552.981 37.3253 565.598 44.221C566.203 44.7602 566.69 45.3947 567.06 46.1247C573.233 59.2778 579.405 72.4308 585.577 85.5839C591.857 72.1999 598.14 58.8164 604.419 45.4324C604.906 44.9132 605.394 44.394 605.881 43.8748C618.443 37.183 631.002 30.491 643.565 23.7991C631.002 17.1072 618.443 10.4153 605.881 3.72338C604.9 2.96969 604.25 1.98898 603.932 0.78125C610.647 0.78125 617.358 0.78125 624.073 0.78125C633.611 6.0071 643.194 11.1991 652.823 16.3572C655.435 11.2541 657.872 6.06213 660.133 0.78125C664.031 0.78125 667.929 0.78125 671.828 0.78125C668.598 8.35409 665.187 15.8536 661.594 23.2799C661.377 23.7414 661.377 24.2029 661.594 24.6644C683.142 70.5849 704.694 116.505 726.242 162.425C747.981 116.443 769.64 70.4077 791.213 24.3183C791.431 23.9722 791.431 23.626 791.213 23.2799C787.689 15.7712 784.17 8.27161 780.656 0.78125C784.661 0.78125 788.67 0.78125 792.675 0.78125C794.858 6.01125 797.295 11.0879 799.985 16.0111C809.549 11.0595 819.025 5.98287 828.41 0.78125C835.232 0.78125 842.054 0.78125 848.876 0.78125C848.558 1.98898 847.908 2.96969 846.927 3.72338C834.365 10.4153 821.805 17.1072 809.243 23.7991C821.965 30.5179 834.634 37.3253 847.252 44.221C847.856 44.7602 848.343 45.3947 848.714 46.1247C854.886 59.2778 861.058 72.4308 867.231 85.5839C873.51 72.1999 879.793 58.8164 886.072 45.4324C886.56 44.9132 887.047 44.394 887.534 43.8748C900.097 37.183 912.656 30.491 925.218 23.7991C912.656 17.1072 900.097 10.4153 887.534 3.72338C886.553 2.96969 885.904 1.98898 885.585 0.78125C892.3 0.78125 899.012 0.78125 905.726 0.78125C915.264 6.0071 924.848 11.1991 934.477 16.3572C937.088 11.2541 939.525 6.06213 941.786 0.78125C945.684 0.78125 949.583 0.78125 953.481 0.78125C950.252 8.35409 946.841 15.8536 943.248 23.2799C943.03 23.7414 943.03 24.2029 943.248 24.6644C964.796 70.5849 986.347 116.505 1007.89 162.425C1029.63 116.443 1051.29 70.4077 1072.87 24.3183C1073.08 23.9722 1073.08 23.626 1072.87 23.2799C1069.34 15.7712 1065.82 8.27161 1062.31 0.78125C1066.31 0.78125 1070.32 0.78125 1074.33 0.78125C1076.51 6.01125 1078.95 11.0879 1081.64 16.0111C1091.2 11.0595 1100.68 5.98287 1110.06 0.78125C1116.89 0.78125 1123.71 0.78125 1130.53 0.78125C1130.21 1.98898 1129.56 2.96969 1128.58 3.72338C1116.02 10.4153 1103.46 17.1072 1090.9 23.7991C1103.62 30.5179 1116.29 37.3253 1128.91 44.221C1129.51 44.7602 1130 45.3947 1130.37 46.1247C1136.54 59.2778 1142.71 72.4308 1148.88 85.5839C1155.16 72.1999 1161.45 58.8164 1167.73 45.4324C1168.3 44.6398 1169.01 44.0628 1169.84 43.7018C1169.84 51.3167 1169.84 58.9316 1169.84 66.5465C1165.17 76.0842 1160.62 85.7182 1156.19 95.4487C1160.6 98.1987 1165.15 100.679 1169.84 102.891C1169.84 107.159 1169.84 111.429 1169.84 115.697C1163.03 112.068 1156.2 108.433 1149.37 104.794C1149.05 104.563 1148.72 104.563 1148.4 104.794C1105.25 127.724 1062.15 150.741 1019.1 173.848C1062.26 197.012 1105.46 220.087 1148.72 243.074C1155.73 239.284 1162.77 235.592 1169.84 231.998C1169.84 236.152 1169.84 240.305 1169.84 244.459C1165.19 246.935 1160.53 249.416 1155.87 251.901C1160.49 261.698 1165.15 271.448 1169.84 281.149C1169.84 288.764 1169.84 296.379 1169.84 303.994C1169.01 303.633 1168.3 303.056 1167.73 302.263C1161.45 288.879 1155.16 275.496 1148.88 262.112C1142.58 275.665 1136.19 289.164 1129.72 302.609C1129.21 303.253 1128.62 303.772 1127.93 304.167C1115.59 310.743 1103.24 317.32 1090.9 323.897C1103.46 330.588 1116.02 337.28 1128.58 343.972C1129.07 344.491 1129.55 345.011 1130.04 345.53C1136.32 358.915 1142.6 372.296 1148.88 385.681C1155.16 372.296 1161.45 358.915 1167.73 345.53C1168.3 344.737 1169.01 344.16 1169.84 343.799C1169.84 351.3 1169.84 358.797 1169.84 366.298C1165.15 376 1160.49 385.747 1155.87 395.546C1160.44 398.211 1165.1 400.693 1169.84 402.988C1169.84 407.256 1169.84 411.527 1169.84 415.795C1163.03 412.164 1156.2 408.53 1149.37 404.892C1148.94 404.66 1148.5 404.66 1148.07 404.892C1104.97 427.851 1061.88 450.813 1018.78 473.772C1061.93 496.935 1105.14 520.012 1148.4 542.999C1148.72 543.231 1149.05 543.231 1149.37 542.999C1156.2 539.361 1163.03 535.727 1169.84 532.096C1169.84 536.249 1169.84 540.403 1169.84 544.556C1165.19 547.031 1160.53 549.513 1155.87 551.998C1160.49 561.797 1165.15 571.544 1169.84 581.247C1169.84 588.861 1169.84 596.476 1169.84 604.091C1169 603.721 1168.3 603.146 1167.73 602.361C1161.45 588.976 1155.16 575.594 1148.88 562.209C1142.41 575.653 1136.02 589.152 1129.72 602.707C1129.45 602.994 1129.17 603.285 1128.91 603.572C1116.18 610.291 1103.51 617.099 1090.9 623.994C1103.46 630.685 1116.02 637.379 1128.58 644.07C1129.07 644.589 1129.55 645.108 1130.04 645.627C1136.32 659.012 1142.6 672.394 1148.88 685.779C1155.31 671.909 1161.86 658.123 1168.54 644.416C1168.94 644.142 1169.38 643.969 1169.84 643.897C1169.84 651.397 1169.84 658.895 1169.84 666.395C1165.15 676.097 1160.49 685.844 1155.87 695.644C1160.44 698.309 1165.1 700.791 1169.84 703.085C1169.84 707.239 1169.84 711.393 1169.84 715.546C1162.79 711.995 1155.81 708.305 1148.88 704.47C1105.54 727.647 1062.17 750.779 1018.78 773.87C1062.17 796.96 1105.54 820.092 1148.88 843.269C1155.81 839.434 1162.79 835.744 1169.84 832.193C1169.84 836.347 1169.84 840.5 1169.84 844.654C1165.1 846.949 1160.44 849.43 1155.87 852.096C1160.49 861.895 1165.15 871.642 1169.84 881.344C1169.84 888.959 1169.84 896.574 1169.84 904.189C1168.77 903.687 1167.96 902.88 1167.4 901.766C1161.32 888.454 1155.14 875.186 1148.88 861.961C1142.49 875.574 1136.11 889.191 1129.72 902.804C1129.26 903.251 1128.77 903.652 1128.26 904.016C1115.86 910.561 1103.51 917.196 1091.22 923.918C1103.51 930.64 1115.86 937.276 1128.26 943.821C1128.64 944.288 1129.07 944.693 1129.55 945.032C1136 958.532 1142.44 972.031 1148.88 985.53C1155.06 972.377 1161.23 959.224 1167.4 946.071C1167.96 944.956 1168.77 944.15 1169.84 943.648C1169.84 951.263 1169.84 958.878 1169.84 966.493C1165.15 976.195 1160.49 985.942 1155.87 995.741C1160.53 998.226 1165.19 1000.71 1169.84 1003.18C1169.84 1007.34 1169.84 1011.49 1169.84 1015.64C1162.79 1012.09 1155.81 1008.4 1148.88 1004.57C1105.6 1027.66 1062.34 1050.79 1019.1 1073.97C1062.44 1096.97 1105.7 1120.1 1148.88 1143.37C1155.9 1139.6 1162.89 1135.79 1169.84 1131.94C1169.84 1136.21 1169.84 1140.48 1169.84 1144.75C1165.19 1147.23 1160.53 1149.71 1155.87 1152.19C1160.49 1161.99 1165.15 1171.74 1169.84 1181.44C1169.84 1189.06 1169.84 1196.67 1169.84 1204.29C1169.22 1203.87 1168.63 1203.41 1168.05 1202.9C1161.66 1189.29 1155.27 1175.67 1148.88 1162.06C1142.6 1175.44 1136.32 1188.82 1130.04 1202.21C1129.45 1202.84 1128.85 1203.48 1128.26 1204.11C1115.86 1210.66 1103.51 1217.29 1091.22 1224.02C1103.51 1230.74 1115.86 1237.37 1128.26 1243.92C1129.43 1244.53 1130.19 1245.52 1130.53 1246.86C1123.6 1246.86 1116.67 1246.86 1109.74 1246.86C1100.39 1241.71 1090.97 1236.63 1081.48 1231.63C1078.92 1236.62 1076.54 1241.7 1074.33 1246.86C1070.32 1246.86 1066.31 1246.86 1062.31 1246.86C1065.82 1239.37 1069.34 1231.87 1072.87 1224.36C1073.08 1224.02 1073.08 1223.67 1072.87 1223.32C1051.35 1177.35 1029.74 1131.43 1008.06 1085.56C986.37 1131.43 964.766 1177.35 943.248 1223.32C943.03 1223.78 943.03 1224.25 943.248 1224.71C946.75 1232.06 950.161 1239.44 953.481 1246.86C949.583 1246.86 945.684 1246.86 941.786 1246.86C939.46 1241.67 936.968 1236.59 934.314 1231.63C924.822 1236.63 915.401 1241.71 906.051 1246.86C899.229 1246.86 892.407 1246.86 885.585 1246.86C885.92 1245.87 886.459 1245 887.209 1244.26C899.82 1237.6 912.383 1230.86 924.893 1224.02C912.6 1217.29 900.256 1210.66 887.859 1204.11C887.343 1203.75 886.855 1203.35 886.397 1202.9C880.007 1189.29 873.621 1175.67 867.231 1162.06C860.951 1175.44 854.668 1188.82 848.389 1202.21C847.794 1202.84 847.196 1203.48 846.602 1204.11C834.205 1210.66 821.861 1217.29 809.568 1224.02C821.861 1230.74 834.205 1237.37 846.602 1243.92C847.778 1244.53 848.535 1245.52 848.876 1246.86C841.947 1246.86 835.014 1246.86 828.085 1246.86C818.736 1241.71 809.315 1236.63 799.822 1231.63C797.266 1236.62 794.884 1241.7 792.675 1246.86C788.67 1246.86 784.661 1246.86 780.656 1246.86C784.17 1239.37 787.689 1231.87 791.213 1224.36C791.431 1224.02 791.431 1223.67 791.213 1223.32C769.695 1177.35 748.092 1131.43 726.404 1085.56C704.716 1131.43 683.113 1177.35 661.594 1223.32C661.377 1223.78 661.377 1224.25 661.594 1224.71C665.096 1232.06 668.508 1239.44 671.828 1246.86C667.929 1246.86 664.031 1246.86 660.133 1246.86C657.807 1241.67 655.315 1236.59 652.661 1231.63C643.168 1236.63 633.747 1241.71 624.398 1246.86C617.576 1246.86 610.754 1246.86 603.932 1246.86C604.266 1245.87 604.806 1245 605.556 1244.26C618.167 1237.6 630.73 1230.86 643.24 1224.02C630.947 1217.29 618.603 1210.66 606.206 1204.11C605.689 1203.75 605.202 1203.35 604.744 1202.9C598.354 1189.29 591.967 1175.67 585.577 1162.06C579.298 1175.44 573.015 1188.82 566.735 1202.21C566.141 1202.84 565.543 1203.48 564.949 1204.11C552.552 1210.66 540.207 1217.29 527.915 1224.02C540.207 1230.74 552.552 1237.37 564.949 1243.92C566.125 1244.53 566.882 1245.52 567.223 1246.86C560.294 1246.86 553.361 1246.86 546.432 1246.86C537.082 1241.71 527.661 1236.63 518.169 1231.63C515.612 1236.62 513.231 1241.7 511.022 1246.86C507.017 1246.86 503.008 1246.86 499.002 1246.86C502.517 1239.37 506.035 1231.87 509.56 1224.36C509.778 1224.02 509.778 1223.67 509.56 1223.32C488.012 1177.4 466.461 1131.48 444.913 1085.56C423.118 1131.66 401.408 1177.81 379.779 1224.02C383.355 1231.64 386.929 1239.26 390.499 1246.86C386.494 1246.86 382.485 1246.86 378.479 1246.86C376.27 1241.7 373.889 1236.62 371.332 1231.63C361.84 1236.63 352.419 1241.71 343.07 1246.86C336.14 1246.86 329.208 1246.86 322.279 1246.86C322.845 1245.74 323.603 1244.76 324.553 1243.92C337.056 1237.31 349.508 1230.62 361.911 1223.84C349.349 1217.15 336.79 1210.46 324.228 1203.77C323.849 1203.36 323.47 1202.96 323.091 1202.56C316.839 1189.12 310.504 1175.73 304.086 1162.4C297.669 1175.73 291.334 1189.12 285.082 1202.56C284.703 1202.96 284.324 1203.36 283.945 1203.77C271.333 1210.43 258.772 1217.18 246.261 1224.02C258.772 1230.86 271.333 1237.6 283.945 1244.26C284.822 1244.91 285.364 1245.77 285.569 1246.86C278.747 1246.86 271.925 1246.86 265.103 1246.86C255.753 1241.71 246.332 1236.63 236.841 1231.63C234.185 1236.59 231.695 1241.67 229.369 1246.86C225.47 1246.86 221.572 1246.86 217.674 1246.86C221.114 1239.12 224.687 1231.45 228.394 1223.84C206.641 1177.66 184.93 1131.45 163.26 1085.22C141.549 1131.48 119.837 1177.75 98.1255 1224.02C101.703 1231.64 105.277 1239.26 108.846 1246.86C104.839 1246.86 100.833 1246.86 96.8261 1246.86C94.6187 1241.7 92.2365 1236.62 89.6792 1231.63C80.1877 1236.63 70.7668 1241.71 61.4164 1246.86C54.4861 1246.86 47.5556 1246.86 40.6254 1246.86C41.1916 1245.74 41.9498 1244.76 42.8994 1243.92C55.4029 1237.31 67.8557 1230.62 80.2582 1223.84C67.6969 1217.15 55.1359 1210.46 42.5745 1203.77C42.1954 1203.36 41.8166 1202.96 41.4375 1202.56C35.1859 1189.12 28.8511 1175.73 22.4332 1162.4C16.0154 1175.73 9.68064 1189.12 3.42894 1202.56C2.62855 1203.65 1.59983 1204.34 0.342773 1204.63C0.342773 1197.6 0.342773 1190.56 0.342773 1183.52C5.35571 1173.12 10.3369 1162.68 15.2863 1152.19C10.3472 1149.39 5.36604 1146.68 0.342773 1144.06C0.342773 1139.91 0.342773 1135.75 0.342773 1131.6C7.66007 1135.47 14.9694 1139.39 22.2708 1143.37C65.6142 1120.19 108.983 1097.06 152.377 1073.97C108.983 1050.88 65.6142 1027.74 22.2708 1004.57C14.9781 1008.54 7.66871 1012.46 0.342773 1016.34C0.342773 1012.18 0.342773 1008.03 0.342773 1003.88C5.36604 1001.26 10.3472 998.545 15.2863 995.741C10.3369 985.25 5.35571 974.81 0.342773 964.416C0.342773 957.379 0.342773 950.339 0.342773 943.302C1.59983 943.596 2.62855 944.288 3.42894 945.379C9.70955 958.764 15.9902 972.145 22.2708 985.53C28.5262 972.547 34.6986 959.508 40.7878 946.417C41.2614 945.565 41.8569 944.814 42.5745 944.167C55.1359 937.476 67.6969 930.782 80.2582 924.091C67.8557 917.311 55.4029 910.62 42.8994 904.016C42.3039 903.382 41.7081 902.745 41.1127 902.112C35.0576 888.748 28.831 875.477 22.4332 862.307C16.0154 875.636 9.68064 889.021 3.42894 902.458C2.62855 903.548 1.59983 904.241 0.342773 904.535C0.342773 897.612 0.342773 890.69 0.342773 883.767C5.26755 873.213 10.2487 862.656 15.2863 852.096C10.3472 849.292 5.36604 846.578 0.342773 843.962C0.342773 839.808 0.342773 835.654 0.342773 831.501C7.52253 835.153 14.6694 838.901 21.7835 842.75C22.2166 842.982 22.6498 842.982 23.0829 842.75C66.1811 819.791 109.279 796.829 152.377 773.87C109.279 750.911 66.1811 727.948 23.0829 704.989C22.6498 704.757 22.2166 704.757 21.7835 704.989C14.6694 708.838 7.52253 712.587 0.342773 716.238C0.342773 712.085 0.342773 707.931 0.342773 703.778C5.36604 701.161 10.3472 698.447 15.2863 695.644C10.3369 685.152 5.35571 674.713 0.342773 664.318C0.342773 657.282 0.342773 650.241 0.342773 643.204C1.49021 643.672 2.51893 644.364 3.42894 645.281C9.68064 658.718 16.0154 672.103 22.4332 685.433C28.8511 672.103 35.1859 658.718 41.4375 645.281C41.8166 644.876 42.1954 644.475 42.5745 644.07C55.1359 637.379 67.6969 630.685 80.2582 623.994C67.4805 617.071 54.7025 610.149 41.9248 603.226C35.3321 589.581 28.7806 575.909 22.2708 562.209C15.9902 575.594 9.70955 588.976 3.42894 602.361C2.62247 603.51 1.59375 604.32 0.342773 604.784C0.342773 597.747 0.342773 590.706 0.342773 583.669C5.39723 573.244 10.3784 562.746 15.2863 552.171C10.3886 549.333 5.4074 546.678 0.342773 544.21C0.342773 539.942 0.342773 535.671 0.342773 531.403C7.69763 535.322 15.0611 539.243 22.4332 543.172C65.7981 520.126 109.113 496.994 152.377 473.772C109.279 450.813 66.1811 427.851 23.0829 404.892C22.6498 404.66 22.2166 404.66 21.7835 404.892C14.6694 408.741 7.52253 412.489 0.342773 416.141C0.342773 411.987 0.342773 407.834 0.342773 403.68C5.36604 401.063 10.3472 398.35 15.2863 395.546C10.3369 385.055 5.35571 374.615 0.342773 364.221C0.342773 357.184 0.342773 350.144 0.342773 343.107C1.81657 343.573 2.95358 344.496 3.7538 345.876C9.89722 359.084 16.1237 372.237 22.4332 385.335C28.8511 372.006 35.1859 358.621 41.4375 345.184C41.7081 344.895 41.9791 344.607 42.2497 344.318C54.8688 337.423 67.5384 330.615 80.2582 323.897C67.6391 317.001 54.9695 310.193 42.2497 303.475C41.9791 303.186 41.7081 302.898 41.4375 302.609C35.1859 289.172 28.8511 275.788 22.4332 262.458C16.1237 275.557 9.89722 288.71 3.7538 301.917C2.84938 303.17 1.71237 304.093 0.342773 304.686C0.342773 297.648 0.342773 290.61 0.342773 283.572C5.39723 273.148 10.3784 262.648 15.2863 252.074C10.3886 249.234 5.4074 246.58 0.342773 244.113C0.342773 239.844 0.342773 235.575 0.342773 231.306C7.69763 235.224 15.0611 239.147 22.4332 243.074C65.6899 220.087 108.896 197.012 152.052 173.848C109.004 150.741 65.9066 127.724 22.7581 104.794C22.4332 104.563 22.1084 104.563 21.7835 104.794C14.6694 108.642 7.52253 112.392 0.342773 116.044C0.342773 111.89 0.342773 107.736 0.342773 103.583C5.4074 101.116 10.3886 98.4618 15.2863 95.6217C10.3784 85.0474 5.39723 74.5481 0.342773 64.1236C0.342773 57.0857 0.342773 50.0474 0.342773 43.0095C1.71237 43.6031 2.84938 44.5259 3.7538 45.7786C9.89722 58.9853 16.1237 72.1383 22.4332 85.2377C28.7428 72.1383 34.9692 58.9853 41.1127 45.7786C41.4525 45.2282 41.8316 44.709 42.2497 44.221C54.9695 37.5022 67.6391 30.6949 80.2582 23.7991C67.9136 17.2226 55.5689 10.646 43.2242 4.06951C41.9423 3.33878 41.0759 2.24269 40.6254 0.78125ZM89.6792 31.241C110.035 74.0407 130.122 116.961 149.941 160.003C109.795 138.587 69.675 117.126 29.5801 95.6217C36.2398 81.4303 42.8994 67.2388 49.559 53.0474C62.927 45.7239 76.3001 38.4551 89.6792 31.241ZM371.332 31.241C391.688 74.0407 411.774 116.961 431.594 160.003C391.448 138.587 351.328 117.126 311.233 95.6217C317.893 81.4303 324.553 67.2388 331.212 53.0474C344.58 45.7239 357.955 38.4551 371.332 31.241ZM236.516 31.5871C249.976 38.5849 263.404 45.6806 276.798 52.8743C283.554 67.0965 290.267 81.3458 296.94 95.6217C256.845 117.126 216.725 138.587 176.579 160.003C196.367 117.142 216.346 74.337 236.516 31.5871ZM458.07 159.656C477.903 117.047 497.826 74.4723 517.844 31.9332C518.123 31.5585 518.448 31.5008 518.819 31.7602C531.92 38.7406 545.025 45.7208 558.127 52.7012C564.871 66.7234 571.53 80.7996 578.106 94.9295C578.349 95.3223 578.294 95.6685 577.943 95.9679C538.018 117.295 498.06 138.525 458.07 159.656ZM713.085 159.656C673.094 138.525 633.137 117.295 593.212 95.9679C592.861 95.6685 592.805 95.3223 593.049 94.9295C599.602 80.9689 606.151 67.0079 612.703 53.0474C625.863 45.863 639.075 38.7673 652.336 31.7602C652.706 31.5008 653.031 31.5585 653.311 31.9332C673.328 74.4723 693.252 117.047 713.085 159.656ZM739.723 159.656C759.556 117.047 779.479 74.4723 799.497 31.9332C799.777 31.5585 800.102 31.5008 800.472 31.7602C813.574 38.7406 826.678 45.7208 839.78 52.7012C846.524 66.7234 853.184 80.7996 859.759 94.9295C860.002 95.3223 859.947 95.6685 859.596 95.9679C819.671 117.295 779.713 138.525 739.723 159.656ZM994.738 159.656C954.748 138.525 914.79 117.295 874.865 95.9679C874.514 95.6685 874.459 95.3223 874.702 94.9295C881.255 80.9689 887.804 67.0079 894.356 53.0474C907.516 45.863 920.728 38.7673 933.989 31.7602C934.36 31.5008 934.684 31.5585 934.964 31.9332C954.982 74.4723 974.905 117.047 994.738 159.656ZM1021.38 159.656C1041.21 117.047 1061.13 74.4723 1081.15 31.9332C1081.43 31.5585 1081.75 31.5008 1082.13 31.7602C1095.23 38.7406 1108.33 45.7208 1121.43 52.7012C1128.18 66.7234 1134.84 80.7996 1141.41 94.9295C1141.66 95.3223 1141.6 95.6685 1141.25 95.9679C1101.32 117.295 1061.37 138.525 1021.38 159.656ZM303.437 104.621C346.981 127.414 390.402 150.49 433.705 173.848C390.551 197.012 347.345 220.087 304.086 243.074C260.722 220.03 217.407 196.896 174.143 173.675C217.311 150.735 260.409 127.717 303.437 104.621ZM585.09 104.621C628.582 127.445 672.006 150.463 715.359 173.675C672.094 196.896 628.78 220.03 585.415 243.074C542.157 220.087 498.95 197.012 455.796 173.848C498.915 150.762 542.01 127.686 585.09 104.621ZM866.743 104.621C910.235 127.445 953.659 150.463 997.012 173.675C953.747 196.896 910.434 220.03 867.068 243.074C823.81 220.087 780.604 197.012 737.449 173.848C780.568 150.762 823.664 127.686 866.743 104.621ZM163.097 185.27C184.895 231.431 206.66 277.64 228.394 323.897C206.641 370.078 184.93 416.286 163.26 462.523C141.549 416.255 119.837 369.991 98.1255 323.723C119.787 277.563 141.445 231.412 163.097 185.27ZM726.079 185.27C748.046 231.329 769.812 277.538 791.376 323.897C769.844 370.064 748.189 416.158 726.404 462.177C704.573 416.12 682.918 369.97 661.432 323.723C682.983 277.567 704.534 231.416 726.079 185.27ZM1007.73 185.27C1029.7 231.329 1051.46 277.538 1073.03 323.897C1051.5 370.064 1029.84 416.158 1008.06 462.177C986.227 416.12 964.572 369.97 943.085 323.723C964.636 277.567 986.188 231.416 1007.73 185.27ZM444.426 185.616C444.712 185.571 444.926 185.686 445.076 185.962C466.669 231.919 488.217 277.897 509.723 323.897C488.165 370.012 466.562 416.106 444.913 462.177C423.118 416.079 401.408 369.929 379.779 323.723C401.421 277.723 422.969 231.687 444.426 185.616ZM149.453 187.693C149.693 187.648 149.91 187.706 150.103 187.866C129.886 230.659 109.799 273.522 89.8416 316.455C76.6016 309.315 63.3366 302.219 50.0463 295.167C42.9585 280.814 36.1907 266.334 29.7426 251.728C69.6912 230.417 109.595 209.072 149.453 187.693ZM176.417 187.693C216.633 209.06 256.807 230.521 296.94 252.074C290.28 266.265 283.62 280.457 276.961 294.648C263.547 301.996 250.065 309.092 236.516 315.935C216.349 273.25 196.316 230.503 176.417 187.693ZM431.107 187.693C431.347 187.648 431.565 187.706 431.756 187.866C411.54 230.659 391.451 273.522 371.495 316.455C358.254 309.315 344.99 302.219 331.7 295.167C324.612 280.814 317.844 266.334 311.396 251.728C351.344 230.417 391.25 209.072 431.107 187.693ZM457.745 188.039C457.765 187.851 457.872 187.736 458.07 187.693C498.245 209.096 538.417 230.498 578.593 251.901C571.839 266.123 565.124 280.372 558.452 294.648C545.292 301.833 532.079 308.928 518.819 315.935C518.448 316.195 518.123 316.137 517.844 315.762C497.885 273.113 477.851 230.539 457.745 188.039ZM712.76 187.693C712.935 187.714 713.046 187.829 713.085 188.039C693.073 230.571 673.146 273.145 653.311 315.762C653.031 316.137 652.706 316.195 652.336 315.935C639.234 308.955 626.13 301.975 613.028 294.994C606.164 280.657 599.342 266.292 592.562 251.901C632.698 230.576 672.763 209.174 712.76 187.693ZM739.398 188.039C739.418 187.851 739.525 187.736 739.723 187.693C779.899 209.096 820.071 230.498 860.246 251.901C853.492 266.123 846.777 280.372 840.105 294.648C826.945 301.833 813.733 308.928 800.472 315.935C800.102 316.195 799.777 316.137 799.497 315.762C779.538 273.113 759.504 230.539 739.398 188.039ZM994.413 187.693C994.589 187.714 994.699 187.829 994.738 188.039C974.727 230.571 954.8 273.145 934.964 315.762C934.684 316.137 934.36 316.195 933.989 315.935C920.888 308.955 907.783 301.975 894.681 294.994C887.817 280.657 880.995 266.292 874.215 251.901C914.352 230.576 954.416 209.174 994.413 187.693ZM1021.05 188.039C1021.07 187.851 1021.18 187.736 1021.38 187.693C1061.55 209.096 1101.72 230.498 1141.9 251.901C1135.15 266.123 1128.43 280.372 1121.76 294.648C1108.6 301.833 1095.39 308.928 1082.13 315.935C1081.75 316.195 1081.43 316.137 1081.15 315.762C1061.19 273.113 1041.16 230.539 1021.05 188.039ZM585.415 262.112C591.824 275.421 598.159 288.805 604.419 302.263C604.906 302.782 605.394 303.302 605.881 303.821C618.443 310.513 631.002 317.205 643.565 323.897C631.002 330.588 618.443 337.28 605.881 343.972C605.394 344.491 604.906 345.011 604.419 345.53C598.14 358.915 591.857 372.296 585.577 385.681C579.298 372.296 573.015 358.915 566.735 345.53C566.248 345.011 565.761 344.491 565.274 343.972C552.711 337.28 540.152 330.588 527.59 323.897C539.935 317.32 552.279 310.743 564.624 304.167C565.309 303.772 565.904 303.253 566.411 302.609C572.921 289.199 579.256 275.7 585.415 262.112ZM867.068 262.112C873.478 275.421 879.812 288.805 886.072 302.263C886.56 302.782 887.047 303.302 887.534 303.821C900.097 310.513 912.656 317.205 925.218 323.897C912.656 330.588 900.097 337.28 887.534 343.972C887.047 344.491 886.56 345.011 886.072 345.53C879.793 358.915 873.51 372.296 867.231 385.681C860.951 372.296 854.668 358.915 848.389 345.53C847.901 345.011 847.414 344.491 846.927 343.972C834.365 337.28 821.805 330.588 809.243 323.897C821.588 317.32 833.932 310.743 846.277 304.167C846.963 303.772 847.557 303.253 848.064 302.609C854.574 289.199 860.909 275.7 867.068 262.112ZM303.762 262.458C304.046 262.413 304.263 262.528 304.411 262.804C310.701 276.496 317.198 290.053 323.903 303.475C336.624 310.193 349.294 317.001 361.911 323.897C349.19 330.615 336.52 337.423 323.903 344.318C323.632 344.607 323.361 344.895 323.091 345.184C316.839 358.621 310.504 372.006 304.086 385.335C297.777 372.237 291.55 359.084 285.407 345.876C285.067 345.326 284.688 344.806 284.27 344.318C271.492 337.511 258.714 330.704 245.937 323.897C258.765 317.12 271.543 310.255 284.27 303.302C291.108 289.884 297.605 276.27 303.762 262.458ZM89.6792 331.338C110.035 374.138 130.122 417.058 149.941 460.1C109.736 438.709 69.6155 417.193 29.5801 395.546C36.1417 381.389 42.747 367.257 49.3966 353.145C62.8438 345.866 76.2716 338.597 89.6792 331.338ZM236.516 331.338C249.826 338.43 263.145 345.525 276.473 352.626C283.379 366.879 290.201 381.185 296.94 395.546C256.859 417.186 216.685 438.532 176.417 459.581C196.583 416.896 216.616 374.148 236.516 331.338ZM371.332 331.338C391.688 374.138 411.774 417.058 431.594 460.1C391.389 438.709 351.269 417.193 311.233 395.546C317.795 381.389 324.4 367.257 331.05 353.145C344.496 345.866 357.925 338.597 371.332 331.338ZM458.07 459.754C477.903 417.145 497.826 374.57 517.844 332.031C518.123 331.656 518.448 331.598 518.819 331.858C531.92 338.838 545.025 345.818 558.127 352.799C564.871 366.82 571.53 380.898 578.106 395.027C578.349 395.421 578.294 395.768 577.943 396.065C538.018 417.394 498.06 438.622 458.07 459.754ZM713.085 459.754C672.828 438.536 632.653 417.134 592.562 395.546C599.264 381.438 605.923 367.305 612.541 353.145C625.782 346.005 639.046 338.909 652.336 331.858C652.706 331.598 653.031 331.656 653.311 332.031C673.328 374.57 693.252 417.145 713.085 459.754ZM739.723 459.754C759.556 417.145 779.479 374.57 799.497 332.031C799.777 331.656 800.102 331.598 800.472 331.858C813.574 338.838 826.678 345.818 839.78 352.799C846.524 366.82 853.184 380.898 859.759 395.027C860.002 395.421 859.947 395.768 859.596 396.065C819.671 417.394 779.713 438.622 739.723 459.754ZM994.738 459.754C954.481 438.536 914.306 417.134 874.215 395.546C880.917 381.438 887.577 367.305 894.194 353.145C907.435 346.005 920.699 338.909 933.989 331.858C934.36 331.598 934.684 331.656 934.964 332.031C954.982 374.57 974.905 417.145 994.738 459.754ZM1021.38 459.754C1041.21 417.145 1061.13 374.57 1081.15 332.031C1081.43 331.656 1081.75 331.598 1082.13 331.858C1095.23 338.838 1108.33 345.818 1121.43 352.799C1128.18 366.82 1134.84 380.898 1141.41 395.027C1141.66 395.421 1141.6 395.768 1141.25 396.065C1101.32 417.394 1061.37 438.622 1021.38 459.754ZM303.437 404.719C303.883 404.663 304.316 404.722 304.736 404.892C347.835 427.851 390.931 450.813 434.03 473.772C390.766 496.994 347.452 520.126 304.086 543.172C260.722 520.126 217.407 496.994 174.143 473.772C217.311 450.834 260.409 427.816 303.437 404.719ZM584.765 404.719C585.21 404.663 585.646 404.722 586.065 404.892C629.164 427.851 672.26 450.813 715.359 473.772C672.36 497.025 629.264 520.099 586.065 542.999C585.74 543.231 585.415 543.231 585.09 542.999C541.832 520.012 498.625 496.935 455.471 473.772C498.638 450.834 541.738 427.816 584.765 404.719ZM866.418 404.719C866.864 404.663 867.299 404.722 867.718 404.892C910.817 427.851 953.913 450.813 997.012 473.772C954.014 497.025 910.918 520.099 867.718 542.999C867.393 543.231 867.068 543.231 866.743 542.999C823.485 520.012 780.279 496.935 737.124 473.772C780.292 450.834 823.391 427.816 866.418 404.719ZM163.097 485.022C184.806 531.341 206.572 577.664 228.394 623.994C206.641 670.175 184.93 716.384 163.26 762.62C141.549 716.353 119.837 670.089 98.1255 623.821C119.875 577.591 141.532 531.324 163.097 485.022ZM444.751 485.368C466.438 531.525 488.093 577.733 509.723 623.994C488.165 670.109 466.562 716.204 444.913 762.274C423.118 716.176 401.408 670.026 379.779 623.821C401.44 577.661 423.099 531.511 444.751 485.368ZM726.079 485.368C748.03 531.393 769.795 577.602 791.376 623.994C769.844 670.161 748.189 716.256 726.404 762.274C704.573 716.218 682.918 670.068 661.432 623.821C682.983 577.664 704.534 531.514 726.079 485.368ZM1007.73 485.368C1029.68 531.393 1051.45 577.602 1073.03 623.994C1051.5 670.161 1029.84 716.256 1008.06 762.274C986.227 716.218 964.572 670.068 943.085 623.821C964.636 577.664 986.188 531.514 1007.73 485.368ZM149.453 487.791C149.693 487.746 149.91 487.804 150.103 487.964C130.169 530.846 110.028 573.594 89.6792 616.206C76.3599 609.11 63.0407 602.015 49.7214 594.919C42.966 580.696 36.2524 566.446 29.5801 552.171C69.608 530.791 109.566 509.33 149.453 487.791ZM176.417 487.791C216.624 509.154 256.798 530.614 296.94 552.171C290.28 566.363 283.62 580.554 276.961 594.746C263.547 602.094 250.065 609.19 236.516 616.033C216.349 573.348 196.316 530.6 176.417 487.791ZM431.107 487.791C431.347 487.746 431.565 487.804 431.756 487.964C411.823 530.846 391.682 573.594 371.332 616.206C358.013 609.11 344.694 602.015 331.375 594.919C324.619 580.696 317.906 566.446 311.233 552.171C351.263 530.791 391.22 509.33 431.107 487.791ZM457.745 488.137C457.765 487.95 457.872 487.832 458.07 487.791C497.976 509.223 537.933 530.569 577.943 551.825C578.294 552.123 578.349 552.469 578.106 552.864C571.553 566.823 565.004 580.786 558.452 594.746C545.292 601.931 532.079 609.027 518.819 616.033C518.448 616.293 518.123 616.234 517.844 615.86C497.885 573.209 477.851 530.635 457.745 488.137ZM712.76 487.791C712.935 487.811 713.046 487.926 713.085 488.137C693.249 530.753 673.322 573.327 653.311 615.86C653.031 616.234 652.706 616.293 652.336 616.033C639.234 609.051 626.13 602.073 613.028 595.092C606.164 580.755 599.342 566.391 592.562 551.998C632.698 530.673 672.763 509.272 712.76 487.791ZM739.398 488.137C739.418 487.95 739.525 487.832 739.723 487.791C779.629 509.223 819.587 530.569 859.596 551.825C859.947 552.123 860.002 552.469 859.759 552.864C853.206 566.823 846.657 580.786 840.105 594.746C826.945 601.931 813.733 609.027 800.472 616.033C800.102 616.293 799.777 616.234 799.497 615.86C779.538 573.209 759.504 530.635 739.398 488.137ZM994.413 487.791C994.589 487.811 994.699 487.926 994.738 488.137C974.902 530.753 954.975 573.327 934.964 615.86C934.684 616.234 934.36 616.293 933.989 616.033C920.888 609.051 907.783 602.073 894.681 595.092C887.817 580.755 880.995 566.391 874.215 551.998C914.352 530.673 954.416 509.272 994.413 487.791ZM1021.05 488.137C1021.07 487.95 1021.18 487.832 1021.38 487.791C1061.28 509.223 1101.24 530.569 1141.25 551.825C1141.6 552.123 1141.66 552.469 1141.41 552.864C1134.86 566.823 1128.31 580.786 1121.76 594.746C1108.6 601.931 1095.39 609.027 1082.13 616.033C1081.75 616.293 1081.43 616.234 1081.15 615.86C1061.19 573.209 1041.16 530.635 1021.05 488.137ZM303.762 562.209C310.399 575.833 317.005 589.505 323.578 603.226C336.355 610.149 349.135 617.071 361.911 623.994C349.349 630.685 336.79 637.379 324.228 644.07C323.849 644.475 323.47 644.876 323.091 645.281C316.839 658.718 310.504 672.103 304.086 685.433C297.669 672.103 291.334 658.718 285.082 645.281C284.812 644.994 284.541 644.703 284.27 644.416C271.651 637.521 258.981 630.712 246.261 623.994C258.664 617.213 271.117 610.522 283.62 603.918C284.108 603.399 284.595 602.88 285.082 602.361C291.4 589.01 297.627 575.629 303.762 562.209ZM585.415 562.209C591.824 575.518 598.159 588.903 604.419 602.361C604.799 602.766 605.176 603.167 605.556 603.572C618.278 610.291 630.947 617.099 643.565 623.994C630.788 630.802 618.008 637.607 605.231 644.416C598.555 658.123 592.003 671.909 585.577 685.779C579.298 672.394 573.015 659.012 566.735 645.627C566.248 645.108 565.761 644.589 565.274 644.07C552.711 637.379 540.152 630.685 527.59 623.994C540.207 617.099 552.877 610.291 565.598 603.572C572.417 589.91 579.022 576.124 585.415 562.209ZM867.068 562.209C873.478 575.518 879.812 588.903 886.072 602.361C886.453 602.766 886.829 603.167 887.209 603.572C899.931 610.291 912.6 617.099 925.218 623.994C912.441 630.802 899.661 637.607 886.885 644.416C880.209 658.123 873.656 671.909 867.231 685.779C860.951 672.394 854.668 659.012 848.389 645.627C847.901 645.108 847.414 644.589 846.927 644.07C834.365 637.379 821.805 630.685 809.243 623.994C821.861 617.099 834.53 610.291 847.252 603.572C854.07 589.91 860.675 576.124 867.068 562.209ZM89.6792 631.436C109.852 674.135 129.994 716.882 150.103 759.678C109.915 738.644 69.7945 717.356 29.7426 695.817C36.0984 681.58 42.6499 667.389 49.3966 653.242C62.8438 645.963 76.2716 638.694 89.6792 631.436ZM176.417 759.851C196.329 716.958 216.416 674.152 236.678 631.436C249.918 638.577 263.183 645.672 276.473 652.723C283.379 666.977 290.201 681.282 296.94 695.644C256.849 717.232 216.674 738.633 176.417 759.851ZM371.332 631.436C391.506 674.135 411.647 716.882 431.756 759.678C391.568 738.644 351.448 717.356 311.396 695.817C317.752 681.58 324.303 667.389 331.05 653.242C344.496 645.963 357.925 638.694 371.332 631.436ZM517.844 631.436C531.303 638.435 544.733 645.53 558.127 652.723C564.88 666.946 571.595 681.196 578.268 695.47C538.313 717.1 498.249 738.561 458.07 759.851C457.963 759.792 457.852 759.737 457.745 759.678C477.912 716.993 497.943 674.246 517.844 631.436ZM713.085 759.851C672.828 738.633 632.653 717.232 592.562 695.644C599.264 681.535 605.923 667.403 612.541 653.242C625.918 645.883 639.345 638.615 652.823 631.436C673.085 674.152 693.171 716.958 713.085 759.851ZM799.497 631.436C812.956 638.435 826.386 645.53 839.78 652.723C846.534 666.946 853.249 681.196 859.921 695.47C819.967 717.1 779.902 738.561 739.723 759.851C739.616 759.792 739.506 759.737 739.398 759.678C759.566 716.993 779.596 674.246 799.497 631.436ZM994.738 759.851C954.481 738.633 914.306 717.232 874.215 695.644C880.917 681.535 887.577 667.403 894.194 653.242C907.572 645.883 920.998 638.615 934.477 631.436C954.738 674.152 974.824 716.958 994.738 759.851ZM1081.15 631.436C1094.61 638.435 1108.04 645.53 1121.43 652.723C1128.19 666.946 1134.9 681.196 1141.57 695.47C1101.62 717.1 1061.56 738.561 1021.38 759.851C1021.27 759.792 1021.16 759.737 1021.05 759.678C1041.22 716.993 1061.25 674.246 1081.15 631.436ZM585.415 704.47C628.829 727.599 672.253 750.731 715.684 773.87C672.289 796.96 628.92 820.092 585.577 843.269C542.235 820.092 498.866 796.96 455.471 773.87C498.856 750.814 542.17 727.682 585.415 704.47ZM867.068 704.47C910.482 727.599 953.906 750.731 997.337 773.87C953.942 796.96 910.573 820.092 867.231 843.269C823.888 820.092 780.519 796.96 737.124 773.87C780.509 750.814 823.823 727.682 867.068 704.47ZM303.437 704.816C303.883 704.761 304.316 704.82 304.736 704.989C347.835 727.948 390.931 750.911 434.03 773.87C390.931 796.829 347.835 819.791 304.736 842.75C304.303 842.982 303.87 842.982 303.437 842.75C260.339 819.791 217.241 796.829 174.143 773.87C217.311 750.931 260.409 727.914 303.437 704.816ZM163.097 785.119C184.983 831.352 206.748 877.675 228.394 924.091C206.641 970.272 184.93 1016.48 163.26 1062.72C141.549 1016.45 119.837 970.186 98.1255 923.918C119.875 877.689 141.532 831.421 163.097 785.119ZM444.751 785.465C466.614 831.535 488.272 877.744 509.723 924.091C488.165 970.207 466.562 1016.3 444.913 1062.37C423.118 1016.27 401.408 970.124 379.779 923.918C401.44 877.758 423.099 831.608 444.751 785.465ZM726.079 785.465C726.365 785.42 726.579 785.534 726.729 785.811C748.41 831.84 769.958 877.935 791.376 924.091C769.844 970.259 748.189 1016.35 726.404 1062.37C704.573 1016.32 682.918 970.165 661.432 923.918C682.983 877.761 704.534 831.612 726.079 785.465ZM1007.73 785.465C1008.02 785.42 1008.23 785.534 1008.38 785.811C1030.06 831.84 1051.61 877.935 1073.03 924.091C1051.5 970.259 1029.84 1016.35 1008.06 1062.37C986.227 1016.32 964.572 970.165 943.085 923.918C964.636 877.761 986.188 831.612 1007.73 785.465ZM149.453 787.888C149.693 787.843 149.91 787.902 150.103 788.061C130.003 830.836 109.862 873.584 89.6792 916.303C76.3599 909.208 63.0407 902.112 49.7214 895.016C42.825 880.724 36.1654 866.36 29.7426 851.923C69.6912 830.611 109.595 809.265 149.453 787.888ZM176.417 787.888C216.674 809.106 256.849 830.507 296.94 852.096C290.15 866.277 283.491 880.524 276.961 894.843C263.547 902.192 250.065 909.287 236.516 916.13C216.349 873.445 196.316 830.698 176.417 787.888ZM431.107 787.888C431.347 787.843 431.565 787.902 431.756 788.061C411.657 830.836 391.516 873.584 371.332 916.303C358.013 909.208 344.694 902.112 331.375 895.016C324.478 880.724 317.819 866.36 311.396 851.923C351.344 830.611 391.25 809.265 431.107 787.888ZM457.745 788.234C457.765 788.047 457.872 787.93 458.07 787.888C498.249 809.179 538.313 830.639 578.268 852.269C571.628 866.301 565.079 880.378 558.614 894.497C545.207 901.897 531.725 909.166 518.169 916.303C498.018 873.594 477.877 830.902 457.745 788.234ZM713.085 787.888C693.171 830.781 673.085 873.587 652.823 916.303C639.582 909.163 626.318 902.067 613.028 895.016C606.121 880.762 599.299 866.457 592.562 852.096C632.653 830.507 672.828 809.106 713.085 787.888ZM739.398 788.234C739.418 788.047 739.525 787.93 739.723 787.888C779.902 809.179 819.967 830.639 859.921 852.269C853.281 866.301 846.732 880.378 840.267 894.497C826.86 901.897 813.379 909.166 799.822 916.303C779.671 873.594 759.53 830.902 739.398 788.234ZM994.738 787.888C974.824 830.781 954.738 873.587 934.477 916.303C921.235 909.163 907.971 902.067 894.681 895.016C887.775 880.762 880.953 866.457 874.215 852.096C914.306 830.507 954.481 809.106 994.738 787.888ZM1021.05 788.234C1021.07 788.047 1021.18 787.93 1021.38 787.888C1061.56 809.179 1101.62 830.639 1141.57 852.269C1134.93 866.301 1128.39 880.378 1121.92 894.497C1108.51 901.897 1095.03 909.166 1081.48 916.303C1061.32 873.594 1041.18 830.902 1021.05 788.234ZM585.415 861.961C591.886 875.536 598.328 889.149 604.744 902.804C605.014 903.091 605.287 903.382 605.556 903.67C618.167 910.329 630.73 917.079 643.24 923.918C630.947 930.64 618.603 937.276 606.206 943.821C605.689 944.184 605.202 944.586 604.744 945.032C598.273 958.476 591.883 971.975 585.577 985.53C579.135 972.031 572.69 958.532 566.248 945.032C565.767 944.693 565.335 944.288 564.949 943.821C552.552 937.276 540.207 930.64 527.915 923.918C540.207 917.196 552.552 910.561 564.949 904.016C565.465 903.652 565.953 903.251 566.411 902.804C572.836 889.225 579.171 875.609 585.415 861.961ZM867.068 861.961C873.539 875.536 879.981 889.149 886.397 902.804C886.667 903.091 886.94 903.382 887.209 903.67C899.82 910.329 912.383 917.079 924.893 923.918C912.6 930.64 900.256 937.276 887.859 943.821C887.343 944.184 886.855 944.586 886.397 945.032C879.926 958.476 873.536 971.975 867.231 985.53C860.789 972.031 854.343 958.532 847.901 945.032C847.421 944.693 846.989 944.288 846.602 943.821C834.205 937.276 821.861 930.64 809.568 923.918C821.861 917.196 834.205 910.561 846.602 904.016C847.119 903.652 847.606 903.251 848.064 902.804C854.49 889.225 860.824 875.609 867.068 861.961ZM303.762 862.307C304.046 862.262 304.263 862.376 304.411 862.653C310.618 875.764 316.736 888.917 322.766 902.112C323.361 902.745 323.957 903.382 324.553 904.016C337.056 910.62 349.508 917.311 361.911 924.091C349.349 930.782 336.79 937.476 324.228 944.167C323.51 944.814 322.915 945.565 322.441 946.417C316.352 959.508 310.18 972.547 303.924 985.53C297.644 972.145 291.363 958.764 285.082 945.379C284.703 944.974 284.324 944.572 283.945 944.167C271.333 937.508 258.772 930.758 246.261 923.918C258.772 917.079 271.333 910.329 283.945 903.67C284.324 903.265 284.703 902.863 285.082 902.458C291.4 889.108 297.627 875.726 303.762 862.307ZM89.3543 931.533C89.6389 931.488 89.8556 931.602 90.004 931.879C109.996 974.537 130.028 1017.17 150.103 1059.78C109.915 1038.74 69.7945 1017.45 29.7426 995.914C36.1527 981.56 42.7581 967.254 49.559 952.994C62.8691 945.874 76.1341 938.719 89.3543 931.533ZM176.417 1059.95C196.329 1017.06 216.416 974.25 236.678 931.533C249.918 938.674 263.183 945.77 276.473 952.82C283.379 967.074 290.201 981.38 296.94 995.741C256.849 1017.33 216.674 1038.73 176.417 1059.95ZM371.008 931.533C371.293 931.488 371.508 931.602 371.657 931.879C391.649 974.537 411.683 1017.17 431.756 1059.78C391.568 1038.74 351.448 1017.45 311.396 995.914C317.806 981.56 324.411 967.254 331.212 952.994C344.522 945.874 357.789 938.719 371.008 931.533ZM517.844 931.533C531.303 938.532 544.733 945.628 558.127 952.82C564.88 967.043 571.595 981.293 578.268 995.568C538.313 1017.2 498.249 1038.66 458.07 1059.95C457.963 1059.89 457.852 1059.83 457.745 1059.78C477.912 1017.09 497.943 974.343 517.844 931.533ZM652.661 931.533C673.098 974.163 693.187 1016.97 712.922 1059.95C672.828 1038.5 632.708 1017.1 592.562 995.741C599.264 981.633 605.923 967.5 612.541 953.34C625.909 946.016 639.283 938.747 652.661 931.533ZM799.497 931.533C812.956 938.532 826.386 945.628 839.78 952.82C846.534 967.043 853.249 981.293 859.921 995.568C819.967 1017.2 779.902 1038.66 739.723 1059.95C739.616 1059.89 739.506 1059.83 739.398 1059.78C759.566 1017.09 779.596 974.343 799.497 931.533ZM934.314 931.533C954.751 974.163 974.84 1016.97 994.576 1059.95C954.481 1038.5 914.361 1017.1 874.215 995.741C880.917 981.633 887.577 967.5 894.194 953.34C907.562 946.016 920.936 938.747 934.314 931.533ZM1081.15 931.533C1094.61 938.532 1108.04 945.628 1121.43 952.82C1128.19 967.043 1134.9 981.293 1141.57 995.568C1101.62 1017.2 1061.56 1038.66 1021.38 1059.95C1021.27 1059.89 1021.16 1059.83 1021.05 1059.78C1041.22 1017.09 1061.25 974.343 1081.15 931.533ZM303.762 1004.57C347.176 1027.7 390.6 1050.83 434.03 1073.97C390.636 1097.06 347.267 1120.19 303.924 1143.37C260.739 1120.1 217.479 1096.97 174.143 1073.97C217.369 1050.82 260.575 1027.69 303.762 1004.57ZM585.415 1004.57C628.771 1027.61 672.087 1050.74 715.359 1073.97C672.022 1096.97 628.761 1120.1 585.577 1143.37C542.394 1120.1 499.132 1096.97 455.796 1073.97C499.022 1050.82 542.228 1027.69 585.415 1004.57ZM867.068 1004.57C910.424 1027.61 953.741 1050.74 997.012 1073.97C953.676 1096.97 910.414 1120.1 867.231 1143.37C824.047 1120.1 780.785 1096.97 737.449 1073.97C780.675 1050.82 823.881 1027.69 867.068 1004.57ZM149.778 1087.64C149.955 1087.66 150.063 1087.77 150.103 1087.99C130.045 1130.84 109.904 1173.65 89.6792 1216.4C76.3599 1209.31 63.0407 1202.21 49.7214 1195.11C42.825 1180.82 36.1654 1166.46 29.7426 1152.02C69.749 1130.5 109.761 1109.04 149.778 1087.64ZM431.431 1087.64C431.607 1087.66 431.717 1087.77 431.756 1087.99C411.699 1130.84 391.558 1173.65 371.332 1216.4C358.013 1209.31 344.694 1202.21 331.375 1195.11C324.478 1180.82 317.819 1166.46 311.396 1152.02C351.402 1130.5 391.415 1109.04 431.431 1087.64ZM176.417 1088.33C176.436 1088.14 176.544 1088.03 176.742 1087.99C216.858 1109.3 256.924 1130.7 296.94 1152.19C290.238 1166.3 283.579 1180.43 276.961 1194.59C263.584 1201.95 250.156 1209.22 236.678 1216.4C216.493 1173.73 196.406 1131.04 176.417 1088.33ZM458.07 1087.99C498.19 1109.1 538.203 1130.45 578.106 1152.02C571.683 1166.46 565.023 1180.82 558.127 1195.11C544.807 1202.21 531.488 1209.31 518.169 1216.4C497.872 1173.73 477.841 1130.92 458.07 1087.99ZM713.085 1087.99C693.171 1130.88 673.085 1173.68 652.823 1216.4C639.582 1209.26 626.318 1202.16 613.028 1195.11C606.121 1180.86 599.299 1166.55 592.562 1152.19C632.653 1130.6 672.828 1109.2 713.085 1087.99ZM739.723 1087.99C779.843 1109.1 819.856 1130.45 859.759 1152.02C853.336 1166.46 846.677 1180.82 839.78 1195.11C826.461 1202.21 813.141 1209.31 799.822 1216.4C779.525 1173.73 759.494 1130.92 739.723 1087.99ZM994.738 1087.99C974.824 1130.88 954.738 1173.68 934.477 1216.4C921.235 1209.26 907.971 1202.16 894.681 1195.11C887.775 1180.86 880.953 1166.55 874.215 1152.19C914.306 1130.6 954.481 1109.2 994.738 1087.99ZM1021.38 1087.99C1061.5 1109.1 1101.51 1130.45 1141.41 1152.02C1134.99 1166.46 1128.33 1180.82 1121.43 1195.11C1108.11 1202.21 1094.79 1209.31 1081.48 1216.4C1061.18 1173.73 1041.15 1130.92 1021.38 1087.99Z" fill="#FAFAFA"/>
</svg>
