<svg width="199" height="184" viewBox="0 0 199 184" fill="none" xmlns="http://www.w3.org/2000/svg">
<path d="M91.3858 27.7927C101.611 -8.03701 152.389 -8.03702 162.614 27.7927C168.099 47.0128 187.846 58.4133 207.233 53.5536C243.375 44.4941 268.764 88.4689 242.847 115.239C228.945 129.599 228.945 152.401 242.848 166.761C268.764 193.531 243.375 237.506 207.233 228.446C187.846 223.587 168.099 234.987 162.614 254.207C152.389 290.037 101.611 290.037 91.3858 254.207C85.9007 234.987 66.1544 223.587 46.7667 228.446C10.6246 237.506 -14.7643 193.531 11.1525 166.761C25.055 152.401 25.055 129.599 11.1525 115.239C-14.7643 88.4689 10.6246 44.4941 46.7667 53.5536C66.1544 58.4133 85.9007 47.0128 91.3858 27.7927Z" fill="#E2F6F9"/>
</svg>
