<svg width="32" height="32" viewBox="0 0 32 32" fill="none" xmlns="http://www.w3.org/2000/svg">
<path d="M9.08822 1.6001H8.32022C7.68022 1.6321 6.84822 1.6641 6.49622 1.7601C5.92022 1.8881 5.37622 2.0481 4.92822 2.2721C4.41622 2.5281 3.93622 2.8801 3.52022 3.2961C3.10422 3.7121 2.78422 4.1601 2.49622 4.7041C2.27222 5.1521 2.08022 5.6961 1.98422 6.2401C1.92022 6.6241 1.85622 7.4561 1.82422 8.0961V23.6801C1.85622 24.3201 1.88822 25.1521 1.98422 25.5041C2.11222 26.0801 2.27222 26.6241 2.49622 27.0721C2.75222 27.5841 3.10422 28.0641 3.52022 28.4801C3.93622 28.8961 4.38422 29.2161 4.92822 29.5041C5.37622 29.7281 5.92022 29.9201 6.46422 30.0161C6.84822 30.0801 7.68022 30.1441 8.32022 30.1761H23.9042C24.5442 30.1441 25.3762 30.1121 25.7282 30.0161C26.3042 29.8881 26.8482 29.7281 27.2962 29.5041C27.8082 29.2481 28.2882 28.8961 28.7042 28.4801C29.1202 28.0641 29.4402 27.6161 29.7282 27.0721C29.9522 26.6241 30.1442 26.0801 30.2402 25.5361C30.3042 25.1521 30.3682 24.3201 30.4002 23.6801V8.0961C30.3682 7.4561 30.3362 6.6241 30.2402 6.2721C30.1122 5.6961 29.9522 5.1521 29.7282 4.7041C29.4722 4.1921 29.1202 3.7121 28.7042 3.2961C28.2882 2.8801 27.8402 2.5601 27.2962 2.2721C26.8482 2.0481 26.3042 1.8561 25.7602 1.7601C25.3762 1.6961 24.5442 1.6321 23.9042 1.6001H9.08822Z" fill="url(#paint0_linear_255_2046)"/>
<path d="M21.3125 17.4082C21.0565 17.2802 19.7765 16.6722 19.5525 16.5762C19.3285 16.4802 19.1365 16.4482 18.9765 16.7042C18.8165 16.9602 18.3045 17.5362 18.1765 17.6962C18.0165 17.8562 17.8885 17.8882 17.6325 17.7602C17.3765 17.6322 16.5445 17.3762 15.5525 16.5122C14.7845 15.8402 14.2725 15.0082 14.1125 14.7522C13.9525 14.4962 14.1125 14.3682 14.2405 14.2402C14.3685 14.1122 14.4965 13.9522 14.6245 13.7922C14.7525 13.6322 14.7845 13.5362 14.8805 13.3762C14.9765 13.2162 14.9125 13.0562 14.8485 12.9282C14.7845 12.8002 14.2725 11.5522 14.0485 11.0402C13.8245 10.5602 13.6325 10.6242 13.4725 10.5922H12.9925C12.8325 10.5922 12.5445 10.6562 12.3205 10.9122C12.0965 11.1682 11.4245 11.7762 11.4245 13.0242C11.4245 14.2722 12.3525 15.4562 12.4805 15.6482C12.6085 15.8082 14.3045 18.3682 16.8645 19.4562C17.4725 19.7122 17.9525 19.8722 18.3365 20.0002C18.9445 20.1922 19.5205 20.1602 19.9685 20.0962C20.4485 20.0322 21.5045 19.4882 21.6965 18.9122C21.9205 18.3362 21.9205 17.8242 21.8565 17.7282C21.7285 17.6002 21.5685 17.5362 21.3125 17.4082ZM16.4165 24.0002C14.8805 24.0002 13.4085 23.5842 12.0965 22.8162L11.7765 22.6242L8.57653 23.4562L9.44053 20.3522L9.24853 20.0322C8.41653 18.6882 7.96853 17.1522 7.96853 15.5522C7.96853 10.9122 11.7765 7.1362 16.4485 7.1362C18.6565 7.1362 20.8005 8.0002 22.4005 9.6002C24.0005 11.2002 24.8645 13.3122 24.8645 15.5522C24.8645 20.1922 21.0565 24.0002 16.4165 24.0002ZM23.6165 8.3842C21.6965 6.4642 19.1365 5.4082 16.4165 5.4082C10.8165 5.4082 6.24053 9.9522 6.24053 15.5522C6.24053 17.3442 6.72053 19.0722 7.58453 20.6082L6.14453 25.8562L11.5205 24.4482C12.9925 25.2482 14.6885 25.6962 16.3845 25.6962C21.9845 25.6962 26.5605 21.1522 26.5605 15.5522C26.5925 12.8642 25.5365 10.3042 23.6165 8.3842Z" fill="white"/>
<defs>
<linearGradient id="paint0_linear_255_2046" x1="16.1218" y1="1.6065" x2="16.1218" y2="30.1569" gradientUnits="userSpaceOnUse">
<stop stop-color="#62FA7F"/>
<stop offset="0.686" stop-color="#22CC40"/>
<stop offset="1" stop-color="#05B723"/>
</linearGradient>
</defs>
</svg>
