<svg width="190" height="52" viewBox="0 0 190 52" fill="none" xmlns="http://www.w3.org/2000/svg">
<path d="M7.28125 41.7495L15.2394 38.8049V36.7837L7.28125 39.7283V41.7495Z" fill="#E2F6F9"/>
<path d="M52.0234 35.4965L59.9816 32.5519V30.5308L52.0234 33.4707V35.4965Z" fill="#E2F6F9"/>
<path d="M59.7903 21.1112V14.1243H56.4321C56.4321 17.2149 56.5094 22.0347 56.2823 23.7967C56.2823 24.8191 54.8134 24.8615 52.0205 24.8615H50.7739C46.9277 24.8615 45.681 23.759 45.681 21.2196V16.5129H42.2842C42.2842 20.1925 42.3229 22.878 42.2842 23.4669C42.2842 25.1866 32.1372 24.8662 32.1372 24.8662H31.8714H26.1794C24.0678 24.8662 22.6714 23.3962 22.6714 21.2243V0.65918H19.0523V25.7472C19.0523 29.3514 15.8052 31.7448 11.0168 31.7448C6.4168 31.7448 2.90399 28.8756 2.94264 24.1312V22.1807L0 22.143V24.6448C0 31.2642 4.33907 35.6788 10.8622 35.6788C16.8973 35.6788 20.8208 32.4421 21.0479 26.9957H21.275C22.0674 28.3573 23.575 28.6871 25.387 28.6871H26.0296H26.1842H31.8811H32.1468H37.9935V28.6777C40.7525 28.574 42.4243 27.057 42.9365 24.7154H43.125C43.6903 27.2548 45.5409 28.6871 48.672 28.6871H50.0684H50.7836H52.5569C57.413 28.6918 59.7903 26.6659 59.7903 21.1112Z" fill="#E2F6F9"/>
<path d="M69.1847 12.0279C71.4847 12.0279 72.8425 10.5957 72.8425 8.31064C72.8425 6.03034 71.2963 4.30127 69.1847 4.30127C67.1118 4.30127 65.4883 5.99265 65.4883 8.31064C65.4883 10.5909 66.8847 12.0279 69.1847 12.0279ZM69.1847 6.32716C70.354 6.32716 71.1851 7.20818 71.1851 8.31535C71.1851 9.30945 70.47 10.0067 69.1847 10.0067C67.8994 10.0067 67.1456 9.30945 67.1456 8.31535C67.1456 7.20818 68.0154 6.32716 69.1847 6.32716Z" fill="#E2F6F9"/>
<path d="M85.2551 0L77.2969 2.9446V4.96578L85.2551 2.02118V0Z" fill="#E2F6F9"/>
<path d="M81.5581 23.7979C81.5581 24.9334 80.0844 24.8627 77.2964 24.8627H76.0159C72.6964 24.8627 71.0342 23.5765 71.0342 20.8533V16.5142H67.9031V25.2679C67.9031 30.2713 66.0525 33.7295 62.5831 33.7295L60.9258 33.6918L62.2062 37.4797C66.7338 37.7389 70.7684 33.8002 70.2417 26.0782H70.4302C70.9182 27.4775 72.7302 28.6883 75.0302 28.6883H75.3298H76.0111H77.823C82.6888 28.6883 85.0661 26.6671 85.0661 21.1124V14.1255H81.7079C81.7079 17.2161 81.7852 22.0312 81.5581 23.7979Z" fill="#E2F6F9"/>
<path d="M79.1187 7.17578C79.4038 7.38779 79.7082 7.6375 80.0319 7.92018C80.3557 8.20757 80.6601 8.50439 80.9452 8.81063C81.2447 8.49968 81.5588 8.20286 81.8825 7.92018C82.2063 7.6375 82.5107 7.38779 82.7958 7.17578C83.2113 7.46789 83.6414 7.82595 84.0859 8.24997C84.5304 8.674 84.917 9.07917 85.2504 9.47022C84.917 9.86126 84.5208 10.2711 84.0617 10.7046C83.6027 11.138 83.1823 11.4914 82.7958 11.7647C82.5107 11.5385 82.2063 11.2841 81.8825 11.0061C81.5588 10.7282 81.2544 10.436 80.9693 10.1298C80.6697 10.4408 80.3557 10.7376 80.0319 11.0203C79.7082 11.3077 79.4038 11.5526 79.1187 11.7647C78.7321 11.4725 78.3117 11.1192 77.8527 10.7046C77.3937 10.29 76.9975 9.88011 76.6641 9.47022C76.9975 9.06504 77.3937 8.65044 77.8527 8.23584C78.3166 7.82124 78.737 7.46789 79.1187 7.17578Z" fill="#E2F6F9"/>
<path d="M34.7515 31.7158C35.0366 31.9278 35.341 32.1775 35.6647 32.4602C35.9885 32.7476 36.2929 33.0444 36.578 33.3507C36.8775 33.0397 37.1916 32.7429 37.5154 32.4602C37.8391 32.1775 38.1435 31.9278 38.4286 31.7158C38.8441 32.0079 39.2742 32.366 39.7187 32.79C40.1633 33.214 40.5498 33.6192 40.8832 34.0103C40.5498 34.4013 40.1536 34.8112 39.6946 35.2446C39.2355 35.6781 38.8151 36.0314 38.4286 36.3047C38.1435 36.0785 37.8391 35.8241 37.5154 35.5462C37.1916 35.2682 36.8872 34.9761 36.6021 34.6698C36.3025 34.9808 35.9885 35.2776 35.6647 35.5603C35.341 35.8477 35.0366 36.0927 34.7515 36.3047C34.3649 36.0126 33.9446 35.6592 33.4855 35.2446C33.0265 34.83 32.6303 34.4201 32.2969 34.0103C32.6303 33.6051 33.0265 33.1905 33.4855 32.7759C33.9494 32.3613 34.3698 32.0079 34.7515 31.7158Z" fill="#E2F6F9"/>
<path d="M53.4898 7.17578C53.7749 7.38779 54.0793 7.6375 54.403 7.92018C54.7267 8.20757 55.0312 8.50439 55.3162 8.81063C55.6158 8.49968 55.9299 8.20286 56.2536 7.92018C56.5774 7.6375 56.8818 7.38779 57.1669 7.17578C57.5824 7.46789 58.0125 7.82595 58.457 8.24997C58.9015 8.674 59.2881 9.07917 59.6215 9.47022C59.2881 9.86126 58.8919 10.2711 58.4328 10.7046C57.9738 11.138 57.5534 11.4914 57.1669 11.7647C56.8818 11.5385 56.5774 11.2841 56.2536 11.0061C55.9299 10.7282 55.6255 10.436 55.3404 10.1298C55.0408 10.4408 54.7267 10.7376 54.403 11.0203C54.0793 11.3077 53.7749 11.5526 53.4898 11.7647C53.1032 11.4725 52.6828 11.1192 52.2238 10.7046C51.7648 10.29 51.3686 9.88011 51.0352 9.47022C51.3686 9.06504 51.7648 8.65044 52.2238 8.23584C52.6828 7.82124 53.1032 7.46789 53.4898 7.17578Z" fill="#E2F6F9"/>
<path d="M23.6193 49.1196V49.685H23.484C22.8655 49.685 22.3388 49.3175 22.0972 48.738H22.0682C21.8266 49.341 21.1743 49.7651 20.4254 49.7745C19.8262 49.7745 19.2271 49.5484 18.9275 49.1903L18.9178 50.1278C18.855 51.0371 18.2993 51.5413 17.3281 51.5413V50.9759C17.9949 50.9759 18.4443 50.6602 18.5023 50.0478C18.5023 49.9206 18.5119 47.9606 18.5506 47.7533C18.6134 46.599 19.3914 45.8452 20.3771 45.8452C21.3 45.8452 21.817 46.4671 22.3243 47.9606C22.6143 48.7898 22.8752 49.1196 23.6193 49.1196ZM21.8218 47.9418C21.5802 47.122 21.1937 46.3917 20.3529 46.3917C19.4687 46.3917 18.9323 47.1644 18.9323 48.0313C18.9323 48.7239 19.4977 49.2186 20.4109 49.2186C21.3676 49.2186 22.0586 48.6438 21.8218 47.9418Z" fill="#E2F6F9"/>
<path d="M25.583 46.0762V47.8948C25.583 49.3176 25.0273 49.6851 23.8 49.6851H23.5391V49.1197H23.7613C24.6939 49.1197 25.008 48.7145 25.0273 48.7145C25.0998 48.201 25.0804 47.2399 25.0804 46.0762H25.583ZM24.1431 51.2917C23.9401 51.2917 23.8 51.155 23.8 50.976C23.8 50.797 23.9401 50.6415 24.1431 50.6415C24.346 50.6415 24.4765 50.797 24.4765 50.976C24.4813 51.155 24.346 51.2917 24.1431 51.2917ZM25.037 51.2917C24.834 51.2917 24.6939 51.155 24.6939 50.976C24.6939 50.797 24.834 50.6415 25.037 50.6415C25.2399 50.6415 25.3704 50.797 25.3704 50.976C25.3704 51.155 25.2399 51.2917 25.037 51.2917Z" fill="#E2F6F9"/>
<path d="M28.0737 49.0128H28.0351C28.1462 50.9681 27.1315 52.0187 26.17 51.9999L25.8945 51.4345L26.1361 51.4439C27.0687 51.4439 27.6582 50.4168 27.6582 48.8951V46.709H28.1365V48.0329C28.1365 48.716 28.6149 49.1212 29.6055 49.1212V49.6866H29.4557C28.784 49.6819 28.209 49.418 28.0737 49.0128Z" fill="#E2F6F9"/>
<path d="M29.4766 49.6806V49.12H31.5543C31.5543 49.1011 31.9892 48.6064 31.5736 47.9045L29.7375 44.7997L29.7761 44.4133L33.4677 42.3403L33.7625 42.7644L30.3366 44.6819L32.2308 47.9045C32.7671 48.7855 33.0908 49.12 33.9461 49.12V49.6806H33.8156C33.0474 49.6806 32.6077 49.4121 32.1341 48.7337L32.0955 48.7431C32.0423 49.266 31.7911 49.6806 31.2644 49.6806H29.4766Z" fill="#E2F6F9"/>
<path d="M33.9033 49.1193C34.744 49.1193 35.0871 48.8414 35.0871 48.1017V42.0806H35.6138V48.0687C35.6138 49.1853 35.1451 49.68 34.0627 49.68H33.8984V49.1193H33.9033Z" fill="#E2F6F9"/>
<path d="M37.6595 42.0806H37.1328V49.68H37.6595V42.0806Z" fill="#E2F6F9"/>
<path d="M43.1965 51.5279C41.4329 51.5279 40.4375 50.7081 40.4375 49.1769V47.9803H40.8917V49.078C40.882 50.3312 41.7421 50.9673 43.211 50.9673C44.6509 50.9673 45.4917 50.3265 45.4917 49.1016V47.0286H45.999V49.0921C46.0039 50.661 44.936 51.5279 43.1965 51.5279ZM43.2545 46.7459C43.0516 46.7459 42.9114 46.5998 42.9114 46.4208C42.9114 46.2418 43.0516 46.0957 43.2545 46.0957C43.4478 46.0957 43.5783 46.2465 43.5783 46.4208C43.5783 46.5998 43.4478 46.7459 43.2545 46.7459Z" fill="#E2F6F9"/>
<path d="M47.8353 42.0806H47.3086V49.68H47.8353V42.0806Z" fill="#E2F6F9"/>
<path d="M50.6362 49.0128H50.5976C50.7087 50.9681 49.694 52.0187 48.7325 51.9999L48.457 51.4345L48.6986 51.4439C49.6312 51.4439 50.2207 50.4168 50.2207 48.8951V46.709H50.699V48.0329C50.699 48.716 51.1774 49.1212 52.168 49.1212V49.6866H52.0182C51.3465 49.6819 50.7667 49.418 50.6362 49.0128Z" fill="#E2F6F9"/>
<path d="M52.043 49.1212H52.531C52.9562 49.1212 53.4539 49.0835 53.7486 49.0317C53.1012 48.7254 52.676 48.0328 52.6953 47.3214C52.7146 46.1247 53.4346 45.2955 54.4686 45.2955C55.4736 45.2955 56.1501 46.1247 56.1694 47.3214C56.1694 48.0328 55.7636 48.7254 55.1741 49.0222C55.4785 49.0835 55.9472 49.1212 56.3386 49.1212H56.8652V49.6818H56.2274C55.1741 49.6818 54.7489 49.5358 54.4348 49.2484H54.372C54.0675 49.5075 53.5312 49.6818 52.56 49.6818H52.043V49.1212ZM54.4831 48.8997C55.232 48.683 55.7491 48.0517 55.7491 47.4157C55.7491 46.5158 55.2224 45.8326 54.4396 45.8421C53.6375 45.8421 53.1108 46.5158 53.1108 47.4157C53.1157 48.0517 53.652 48.6736 54.4831 48.8997ZM53.9371 44.5135C53.7438 44.5135 53.6133 44.3862 53.6133 44.1884C53.6133 43.9999 53.7438 43.8633 53.9371 43.8633C54.1497 43.8633 54.2801 43.9999 54.2801 44.1884C54.2801 44.3862 54.1497 44.5135 53.9371 44.5135ZM54.9808 44.5135C54.7682 44.5135 54.6377 44.3862 54.6377 44.1884C54.6377 43.9999 54.7682 43.8633 54.9808 43.8633C55.1741 43.8633 55.3045 43.9999 55.3045 44.1884C55.3045 44.3862 55.1741 44.5135 54.9808 44.5135Z" fill="#E2F6F9"/>
<path d="M56.747 49.1193C57.5878 49.1193 57.9308 48.8414 57.9308 48.1017V42.0806H58.4575V48.0687C58.4575 49.1853 57.9888 49.68 56.9065 49.68H56.7422V49.1193H56.747Z" fill="#E2F6F9"/>
<path d="M60.5032 42.0806H59.9766V49.68H60.5032V42.0806Z" fill="#E2F6F9"/>
<path d="M69.4973 49.1196V49.685H69.3668C68.7483 49.685 68.2216 49.3175 67.98 48.738H67.9511C67.7095 49.341 67.0571 49.7651 66.3082 49.7745C65.709 49.7745 65.1099 49.5484 64.8103 49.1903L64.8006 50.1278C64.7378 51.0371 64.1822 51.5413 63.2109 51.5413V50.9759C63.8777 50.9759 64.3271 50.6602 64.3851 50.0478C64.3851 49.9206 64.3948 47.9606 64.4334 47.7533C64.4962 46.599 65.2742 45.8452 66.2599 45.8452C67.1828 45.8452 67.6998 46.4671 68.2071 47.9606C68.4922 48.7898 68.7532 49.1196 69.4973 49.1196ZM67.6998 47.9418C67.4582 47.122 67.0716 46.3917 66.2309 46.3917C65.3466 46.3917 64.8103 47.1644 64.8103 48.0313C64.8103 48.7239 65.3756 49.2186 66.2889 49.2186C67.2456 49.2186 67.9366 48.6438 67.6998 47.9418Z" fill="#E2F6F9"/>
<path d="M72.2441 49.6819C71.4855 49.6819 71.0603 49.3474 70.9057 48.7443H70.867C70.7172 49.3379 70.2389 49.6819 69.4609 49.6819V49.1165H69.5624C70.4128 49.1165 70.7076 48.5841 70.7269 48.5841C70.7366 48.5464 70.7269 48.08 70.7269 46.709H71.2343V48.0235C71.2343 48.7726 71.6208 49.1212 72.5002 49.1212V49.6866H72.2441V49.6819ZM70.408 51.2649C70.2051 51.2649 70.0649 51.1094 70.0649 50.9304C70.0649 50.7513 70.2051 50.6147 70.408 50.6147C70.5916 50.6147 70.7414 50.7513 70.7414 50.9304C70.7414 51.1047 70.5916 51.2649 70.408 51.2649ZM71.442 51.2649C71.2584 51.2649 71.1086 51.1094 71.1086 50.9304C71.1086 50.7513 71.2632 50.6147 71.442 50.6147C71.6353 50.6147 71.7754 50.7513 71.7754 50.9304C71.7754 51.1047 71.6353 51.2649 71.442 51.2649Z" fill="#E2F6F9"/>
<path d="M75.1504 49.68C74.3386 49.68 73.9037 49.3738 73.7733 48.7801H73.7346C73.5945 49.3643 73.1693 49.68 72.3672 49.68V49.1193H72.4976C73.2901 49.1193 73.6235 48.8037 73.6235 47.9604V42.0806H74.1502V48.0216C74.1502 48.832 74.4642 49.1193 75.2857 49.1193V49.68H75.1504Z" fill="#E2F6F9"/>
<path d="M75.2031 49.1218H76.0874C76.614 49.1218 77.2132 48.9945 77.5853 48.9239L76.0729 46.7896L76.1357 46.3138C76.9958 46.0688 77.4741 45.9463 78.1313 45.9463C79.4407 45.9463 80.1075 46.3986 80.1172 47.2089C80.1269 47.8403 79.6002 48.5328 78.7159 48.9898C79.0832 49.0699 79.4842 49.117 79.9722 49.117H80.7647V49.6824H79.9432C79.175 49.6824 78.542 49.5835 78.0395 49.3667C77.4838 49.5552 76.7832 49.6824 76.0632 49.6824H75.2031V49.1218ZM76.5416 46.7284L78.0829 48.8532C78.9624 48.5847 79.7161 47.9533 79.6872 47.322C79.6872 46.7708 79.0977 46.4834 78.1361 46.4834C77.6384 46.4787 77.2905 46.5399 76.5416 46.7284Z" fill="#E2F6F9"/>
<path d="M83.4286 49.6821C82.67 49.6821 82.2352 49.3476 82.0805 48.7445H82.0515C81.8969 49.3382 81.4137 49.6821 80.6406 49.6821V49.1167H80.7421C81.5829 49.1167 81.8873 48.5843 81.9066 48.5843V46.7045H82.4139V48.019C82.4139 48.7728 82.7812 49.1167 83.6316 49.1167V49.6821H83.4286ZM81.6892 45.8188C81.4959 45.8188 81.3557 45.6586 81.3557 45.4843C81.3557 45.3052 81.4959 45.1592 81.6892 45.1592C81.8728 45.1592 82.0226 45.3052 82.0226 45.4843C82.0226 45.6586 81.8679 45.8188 81.6892 45.8188ZM82.7232 45.8188C82.5396 45.8188 82.3898 45.6586 82.3898 45.4843C82.3898 45.3052 82.5396 45.1592 82.7232 45.1592C82.9261 45.1592 83.0663 45.3052 83.0663 45.4843C83.0663 45.6586 82.9213 45.8188 82.7232 45.8188Z" fill="#E2F6F9"/>
<path d="M83.5361 49.1193C84.3768 49.1193 84.7199 48.8414 84.7199 48.1017V42.0806H85.2466V48.0687C85.2466 49.1853 84.7779 49.68 83.6955 49.68H83.5312V49.1193H83.5361Z" fill="#E2F6F9"/>
<path d="M154.001 33.6664L146.15 36.644L138.298 33.6664L135.949 32.7759L108.142 22.2178C106.04 21.4168 104.479 19.6689 103.952 17.53L102.276 10.6749C102.044 9.71851 103.063 8.927 103.967 9.36515L144.057 28.8325L146.15 29.8502L154.001 33.6664Z" fill="white"/>
<path d="M182.167 47.7773L180.805 49.5487C180.713 49.6665 180.553 49.7136 180.413 49.6571L148.711 37.6196L156.249 34.7598L182.042 47.2826C182.23 47.3815 182.293 47.6171 182.167 47.7773Z" fill="white"/>
<path d="M189.964 10.8652L188.355 17.4564C187.819 19.6471 186.219 21.4375 184.064 22.2572L153.995 33.6729L146.143 36.6505L111.875 49.6633C111.832 49.6774 111.793 49.6868 111.755 49.6868C111.648 49.6868 111.552 49.6397 111.484 49.5549L110.121 47.7834C109.996 47.6185 110.054 47.383 110.242 47.2934L138.287 33.6729L146.139 29.8567L188.143 9.45645C188.331 9.36223 188.524 9.31982 188.713 9.31982C189.5 9.31982 190.172 10.0312 189.964 10.8652Z" fill="white"/>
<path d="M144.053 28.8379L135.945 32.7813L138.289 33.667L146.146 29.8555L144.053 28.8379Z" fill="white"/>
<path d="M140.932 0.65918C141.729 1.25752 142.589 1.95481 143.507 2.75574C144.425 3.55667 145.281 4.39529 146.083 5.2669C146.928 4.39529 147.813 3.55667 148.731 2.75574C149.649 1.95481 150.504 1.25281 151.306 0.65918C152.48 1.48367 153.693 2.49661 154.94 3.68859C156.186 4.88056 157.278 6.03014 158.221 7.12789C157.278 8.23035 156.162 9.38934 154.867 10.6049C153.572 11.8204 152.384 12.8192 151.301 13.5966C150.499 12.9558 149.644 12.2444 148.726 11.4623C147.808 10.6803 146.948 9.85577 146.15 8.98417C145.305 9.85577 144.421 10.6944 143.503 11.4953C142.584 12.2963 141.724 12.9983 140.927 13.5919C139.845 12.7674 138.656 11.7686 137.361 10.6002C136.066 9.43174 134.95 8.27275 134.008 7.12318C134.95 5.97831 136.066 4.81932 137.361 3.64619C138.666 2.48248 139.85 1.48838 140.932 0.65918Z" fill="white"/>
</svg>
